<svg xmlns="http://www.w3.org/2000/svg" width="403" height="267" viewBox="0 0 403 267">
    <defs>
        <linearGradient id="a" x1="50%" x2="50%" y1="100%" y2="0%">
            <stop offset="0%" stop-color="gray" stop-opacity=".25"/>
            <stop offset="54%" stop-color="gray" stop-opacity=".12"/>
            <stop offset="100%" stop-color="gray" stop-opacity=".1"/>
        </linearGradient>
        <linearGradient id="b" x1="9%" x2="9%" y1="25%" y2="1%">
            <stop offset="0%" stop-color="gray" stop-opacity=".25"/>
            <stop offset="54%" stop-color="gray" stop-opacity=".12"/>
            <stop offset="100%" stop-color="gray" stop-opacity=".1"/>
        </linearGradient>
        <linearGradient id="c" x1="49.993%" x2="49.993%" y1="100.089%" y2=".017%">
            <stop offset="0%" stop-color="gray" stop-opacity=".25"/>
            <stop offset="54%" stop-color="gray" stop-opacity=".12"/>
            <stop offset="100%" stop-color="gray" stop-opacity=".1"/>
        </linearGradient>
        <linearGradient id="d" x1="0%" x2="42%" y1="15%" y2="15%">
            <stop offset="0%" stop-color="gray" stop-opacity=".25"/>
            <stop offset="54%" stop-color="gray" stop-opacity=".12"/>
            <stop offset="100%" stop-color="gray" stop-opacity=".1"/>
        </linearGradient>
        <linearGradient id="e" x1="1%" x2="42%" y1="15%" y2="15%">
            <stop offset="0%" stop-color="gray" stop-opacity=".25"/>
            <stop offset="54%" stop-color="gray" stop-opacity=".12"/>
            <stop offset="100%" stop-color="gray" stop-opacity=".1"/>
        </linearGradient>
    </defs>
    <g fill="none" fill-rule="evenodd">
        <path fill="#6C63FF" fill-rule="nonzero" d="M43.798 173.86c-9.888.43-20.444 2.488-27.33 9.6-11.48 11.846-6.676 33.378 6.537 43.266 13.212 9.889 31.478 10.195 47.468 6.09 8.594-2.208 17.442-5.58 26.084-3.554 10.888 2.553 18.46 13.05 29.253 15.986 14.502 3.964 28.378-6.688 42.35-12.273 23.845-9.543 53.176-3.277 71.046 15.176 4.989 5.149 9.262 11.238 15.493 14.779 6.3 3.583 13.846 4.122 21.09 4.066 21.764-.172 43.19-4.985 64.42-9.772 13.479-3.019 27.209-6.175 39.127-13.17 11.919-6.995 21.958-18.604 23.514-32.344.272-2.393.263-4.92-.793-7.09-1.747-3.592-5.83-5.29-9.569-6.692-11.108-4.162-23.591-8.315-34.497-3.606-2.859 1.238-5.51 3.062-8.564 3.692-8.714 1.79-15.834-6.322-22.62-12.075-21.01-17.802-51.626-16.176-78.438-22.546-31.224-7.391-64.376-13.437-96.837-8.733-16.335 2.368-28.892 13.46-44.497 17.746-20.573 5.65-42.298.56-63.237 1.454z" opacity=".5"/>
        <path fill="url(#a)" fill-rule="nonzero" d="M56 0v210h240V0z"/>
        <path fill="#535461" fill-rule="nonzero" d="M57 0h237v7H57z"/>
        <path fill="#EDEDF4" fill-rule="nonzero" d="M57 7h237v199H57z"/>
        <circle cx="61" cy="3" r="1" fill="#FA595F" fill-rule="nonzero"/>
        <circle cx="65" cy="3" r="1" fill="#FFC74C" fill-rule="nonzero"/>
        <circle cx="68" cy="3" r="1" fill="#85D459" fill-rule="nonzero"/>
        <path fill="#FFF" fill-rule="nonzero" d="M85 18h182v72H85z"/>
        <path stroke="#6C63FF" d="M266 87v2h-2"/>
        <path stroke="#6C63FF" stroke-dasharray="11.69" d="M259 90H90"/>
        <path stroke="#6C63FF" d="M87 89h-2v-2"/>
        <path stroke="#6C63FF" stroke-dasharray="11.79" d="M85 81V23"/>
        <path stroke="#6C63FF" d="M85 20v-2h2"/>
        <path stroke="#6C63FF" stroke-dasharray="11.69" d="M92 18h169"/>
        <path stroke="#6C63FF" d="M264 18h2v2"/>
        <path stroke="#6C63FF" stroke-dasharray="11.79" d="M266 26v58"/>
        <path fill="#FFF" fill-rule="nonzero" d="M129 100h92v4h-92zM82 135h92v4H82zM82 144h92v4H82zM82 152h92v4H82zM82 161h92v4H82zM82 169h92v4H82zM82 177h92v4H82zM82 185h92v4H82zM156 107h40v4h-40z"/>
        <path fill="#6C63FF" fill-rule="nonzero" d="M176 73c10.493 0 19-8.507 19-19s-8.507-19-19-19-19 8.507-19 19a18.996 18.996 0 0 0 19 19zm0-34.322a15.322 15.322 0 1 1 0 30.644 15.322 15.322 0 0 1 0-30.644zm1.53 25.128h-3.065a.924.924 0 0 1-.92-.92V54h-5.131a.92.92 0 0 1-.65-1.57l7.586-7.586a.92.92 0 0 1 1.283 0l7.586 7.587a.92.92 0 0 1-.65 1.569h-5.131v8.886a.924.924 0 0 1-.903.92h-.004z" opacity=".5"/>
        <path fill="#6C63FF" fill-rule="nonzero" d="M64.277 152.185C69.039 169.546 48.722 219 48.722 219s-42.748-32.257-47.51-49.627A32.512 32.512 0 0 1 9.41 137.71a32.762 32.762 0 0 1 31.645-8.625c11.337 2.991 20.198 11.806 23.22 23.1z"/>
        <path fill="#000" fill-rule="nonzero" d="M64.277 152.185C69.039 169.546 48.722 219 48.722 219s-42.748-32.257-47.51-49.627A32.512 32.512 0 0 1 9.41 137.71a32.762 32.762 0 0 1 31.645-8.625c11.337 2.991 20.198 11.806 23.22 23.1z" opacity=".1"/>
        <path stroke="#535461" d="M25 130s26.923 40.198 24.89 90"/>
        <path fill="#6C63FF" fill-rule="nonzero" d="M70.793 183.623S47.283 170.478 50.261 219c0 0 19.613-.72 26.572-17.164 2.821-6.622.374-14.367-5.694-18.022l-.346-.19z"/>
        <path stroke="#535461" d="M72 184s-3.194 24.979-22 35"/>
        <path fill="url(#b)" fill-rule="nonzero" d="M324 121.125c.06-.075.09-.125.09-.125l-.09.125z"/>
        <path fill="url(#a)" fill-rule="nonzero" d="M202 31v74H386V31z"/>
        <path fill="url(#c)" fill-rule="nonzero" d="M333.984 125.768a9.264 9.264 0 0 0-.858-3.85l-5.336-12.886s-.193.268-.524.636c-.39-3.287-1.876-9.559-7.482-9.962-7.624-.559-10.303 3.361-8.766 3.734 1.537.372 8.006 2.988 8.006 2.988l3.005 4.977a3.962 3.962 0 0 1-.163-.121l.111.455-.111-.083.111.455-.111-.082 2.902 12.084-5.924 5.462s-5.718 2.802-8.586 2.599a10.212 10.212 0 0 0-1.627.035l.215-.143 1.888-1.265c1.46-.975 2.984-2.027 3.714-3.604v-.026a5.29 5.29 0 0 0 .18-.346c.768-1.66.502-3.57.54-5.388.085-1.106.102-2.215.052-3.323a9.645 9.645 0 0 0-.888-3.032 11.128 11.128 0 0 0-3.988-4.764 8.045 8.045 0 0 0-6.083-1.157 4.182 4.182 0 0 1-1.035.182c-.678 0-1.262-.433-1.884-.697a3.924 3.924 0 0 0-4.525 1.3c-.43.571-.648 1.251-1.082 1.806-.644.827-1.687 1.347-2.12 2.295l-.043.104a2.358 2.358 0 0 0-.15.269c-.43.935-.146 2.022-.237 3.032a8.28 8.28 0 0 1-.858 2.598c.18-.061.352-.147.51-.255a8.978 8.978 0 0 0-.124 7.12 15.914 15.914 0 0 1-1.683 5.268l-.055.052h-.026l-.155.12-.171.118c.197-.31.425-.631.682-.966-.378.459-2.146 2.213-5.83.082-4.194-2.425-14.101-2.425-14.101-2.425l-9.874-4.466c.18-3.145 1.018-15.424 3.005-16.078-.192.075-.389.14-.588.195l.047-.078.048-.07.047-.064.051-.06.047-.053.052-.052.047-.039.056-.043.047-.03.06-.03.078-.035s-.206.082-.541.177l.176-.294a.859.859 0 0 1 .365-.26s-.1.039-.262.095l2.55-4.201s6.477-2.6 8.006-2.989c1.528-.39-1.142-4.297-8.766-3.734-5.152.382-6.826 5.718-7.367 9.13-.021-.055-.047-.107-.068-.168L251 125.85s0 .091.047.251l-.047.122s0 .09.047.25l-.047.122s.57 4.297 4.765 5.977l15.819 9.53s6.869 4.105 6.869 14.38c0 10.273 1.335 26.516 1.335 26.516s.261.156.742.433c-1.193 3.357-3.498 9.351-5.13 10.395-2.288 1.495-8.006 14.38-8.006 14.38h.172l-.167.373h.858l-4.666 9.143s-1.524 4.106 0 6.723c1.524 2.616 1.142 8.03 1.142 8.03s3.048 8.775 5.525 12.886c1.257 2.087 1.485 4.651 1.399 6.674l-5.211 8.637s-2.477 2.24-4.383 1.867c-.893-.174-1.786.961-1.679 2.105v.489a.35.35 0 0 0 .022.117v.04l.025.09v.043l.03.091v.04l.048.108.068.12v.031l.06.091.03.04.06.077.035.04.073.081.03.03.116.109.111.091.043.03.095.065.051.035.103.06.056.03.133.07h.035l.18.078h.051l.146.052.073.022.142.043.077.022.159.039h.073l.245.047.24.035h2.164l.266-.026h.124l.404-.052c7.813-1.122 16.96-5.228 16.96-5.228.051-.547.073-1.096.065-1.646.026-2.24-.352-6.692-3.593-7.935h-.167c-.799-2.486-1.447-5.63-.88-8.307 1.141-5.415-3.241-15.307-3.241-18.673 0-.745-.953-2.425.953-4.855.888-1.13 2.932-3.071 4.842-5.198-.2.302-.418.592-.653.866.083.024.168.042.254.052-.082.104-.164.213-.254.32 0 0 2.537.828 4.59-2.827.124-.221.248-.464.369-.72 2.094-4.482 7.43-10.828 10.1-10.455 2.46.342 8.002 5.137 9.148 8.515.091.267.155.543.19.823.381 3.361 5.335 3.734 5.335 3.734l-.3-.407.189.021a55.802 55.802 0 0 1 2.975 5.241c1.524 3.361 1.335 5.6 1.335 5.6-4.194 8.59-2.67 13.818-2.67 19.058a23.452 23.452 0 0 1-.43 4.232c-2.717 1.694-3.198 9.213-3.198 9.213l.026.03V258.718s5.602 5.86 13.041 6.601l.348.03H324.21l.124-.025h.094l.12-.026.087-.022.115-.03.078-.022.111-.035.073-.025.108-.04.068-.025.103-.044.06-.026.103-.043.056-.026.099-.048.052-.026.094-.052.043-.026.09-.056.039-.026.086-.06.034-.027.081-.065.03-.021.078-.07.026-.021.077-.074.073-.078.068-.082.065-.087.056-.09.051-.096.047-.1c.124-.27.171-.57.138-.866a1.603 1.603 0 0 0-.39-1.248 1.574 1.574 0 0 0-1.186-.532c-2.288 0-3.434-2.599-3.434-2.599l-4.035-9.624-.099-.026c.172-.949.322-1.871.386-2.495.116-1.156 2.43-6.895 4.173-11.097a26.4 26.4 0 0 0 1.945-7.887 22.74 22.74 0 0 1 .742-4.167 8.877 8.877 0 0 0-.141-5.198 19.827 19.827 0 0 1-.919-4.444c-.202-2.308-1.142-4.643-2.07-6.453h.082l-.124-.407.124.03s-3.812-12.509-5.718-14.19c-1.382-1.217-4.563-6.93-6.28-10.503.339-.466.654-.949.944-1.447l-.055-.281.055-.091-.055-.282.055-.09s-1.936-9.686-2.009-16.642c.022-2.235.267-4.119.859-5.197 0 0 .764-11.764 6.868-14.004l15.832-14.167s1.692-1.04 1.61-3.808c-.008-.12-.008-.242-.013-.372zm-43.323 7.103l.172-.264-.172.264zm13.51.433s-.03.178-.108.473a6.294 6.294 0 0 1-.566-1.36 9.404 9.404 0 0 0 1.472-.46 2.54 2.54 0 0 0 1.1.737c-.644.169-1.278.374-1.898.615v-.005zm3.82 78.662c.43.645.859 1.334 1.288 2.036a27.372 27.372 0 0 1-1.288-2.032v-.004z"/>
        <path fill="#FFF" fill-rule="nonzero" d="M202 32h182v72H202z"/>
        <path fill="#6C63FF" fill-rule="nonzero" d="M365.62 74.512v28.862H221V59.601h4.54V48.45h17.266v11.152h4.697v33.44h6.055V82.193h7.272V93.04h6.055V74.512h.303v-9.64h5.757v9.64h13.322v14.464h7.42v-4.522h4.548v4.522h7.419V46.189h9.691V39.41h1.667v6.778h2.722V59.6h4.848V48.45h4.086V37h8.483v11.45h4.086V59.6h5v14.911h6.813v-9.64h5.756v9.64z" opacity=".3"/>
        <path fill="#FFF" fill-rule="nonzero" d="M224 64h6.358v3.617H224zM244.358 67.617H238V64h6.358zM224 71h6.358v3.617H224zM244.358 74.617H238V71h6.358zM224 78h6.358v3.617H224zM244.358 81.617H238V78h6.358zM224 85h6.358v3.617H224zM244.358 88.617H238V85h6.358zM224 92h6.358v3.617H224zM244.358 95.617H238V92h6.358zM224 99h6.358v3.617H224zM244.358 102.617H238V99h6.358zM250 97h14.842v1.808H250zM250 100h14.842v1.808H250zM250 103h14.838v1.292H250zM289 98h14.842v1.808H289zM289 101h14.842v1.808H289zM289 103h14.838v1H289zM270 78h4.09v5.275H270zM283.09 83.275H279V78h4.09zM270 87h4.09v5.275H270zM283.09 92.275H279V87h4.09zM270 95h4.09v5.275H270zM283.09 100.275H279V95h4.09zM270 104h4.09v1H270zM279 104h4.09v1H279zM306 50h5.454v6.928H306zM306 60h5.454v6.928H306zM306 70h5.454v6.928H306zM306 80h5.454v6.928H306zM306 90h5.454v6.928H306zM306 100h5.449v4.004H306zM323 64h20.291v5.873H323zM323 77h20.291v5.873H323zM323 90h20.291v5.873H323zM340.153 103.593H343.291V102H323v1.593h16.703zM226 52h2.727v5.727H226zM359 78h6.813v8.737H359zM359 91h6.813v8.737H359zM359 104h6.817v1H359z" opacity=".4"/>
        <path fill="#252223" fill-rule="nonzero" d="M261.687 44.453h-1.043a.733.733 0 0 0 .68-.345.724.724 0 0 0 0-.76.733.733 0 0 0-.68-.346h-8.44a.733.733 0 0 0-.68.346.724.724 0 0 0 0 .76.733.733 0 0 0 .68.345h1.042a.733.733 0 0 0-.68.346.724.724 0 0 0 0 .76.733.733 0 0 0 .68.345h-1.458a.733.733 0 0 0-.68.346.724.724 0 0 0 0 .76.733.733 0 0 0 .68.345h8.44a.73.73 0 0 0 .675-.725.73.73 0 0 0-.675-.726h1.459a.73.73 0 0 0 .675-.725.73.73 0 0 0-.675-.726zM298.574 62.451h-1.043a.73.73 0 0 0 .675-.725.73.73 0 0 0-.675-.726h-8.44a.73.73 0 0 0-.675.726c0 .38.294.696.675.725h1.043a.733.733 0 0 0-.68.346.724.724 0 0 0 0 .76.733.733 0 0 0 .68.345h-1.459a.73.73 0 0 0-.675.726c0 .38.294.696.675.725h8.44a.73.73 0 0 0 .676-.725.73.73 0 0 0-.675-.726h1.458a.733.733 0 0 0 .68-.346.724.724 0 0 0 0-.76.733.733 0 0 0-.68-.345zM361.678 39.453h-1.043a.73.73 0 0 0 .675-.725.73.73 0 0 0-.675-.726h-8.44a.733.733 0 0 0-.68.346.724.724 0 0 0 0 .76.733.733 0 0 0 .68.345h1.043a.733.733 0 0 0-.68.346.724.724 0 0 0 0 .76.733.733 0 0 0 .68.345h-1.45a.733.733 0 0 0-.68.346.724.724 0 0 0 0 .76.733.733 0 0 0 .68.345h8.44a.73.73 0 0 0 .675-.725.73.73 0 0 0-.675-.726h1.459a.73.73 0 0 0 .675-.725.73.73 0 0 0-.675-.726h-.009z" opacity=".1"/>
        <path fill="url(#d)" fill-rule="nonzero" d="M281.182 91l-.182.133a.766.766 0 0 0 .182-.133z"/>
        <path fill="url(#e)" fill-rule="nonzero" d="M281.182 91l-.182.133a.766.766 0 0 0 .182-.133z"/>
        <path fill="url(#e)" fill-rule="nonzero" d="M281.182 91l-.182.133a.766.766 0 0 0 .182-.133z"/>
        <ellipse cx="274.376" cy="88.442" fill="#F2F2F2" fill-rule="nonzero" rx="1" ry="1" transform="rotate(-25.74 274.668 88.668)"/>
        <path fill="#F7BBC3" fill-rule="nonzero" d="M271.335 206l-5.664 10.964s-1.51 4.02 0 6.579c1.51 2.558 1.133 7.86 1.133 7.86s3.02 8.6 5.477 12.611c2.456 4.012.946 9.89.946 9.89l9.816 1.096s-3.775-7.129-2.665-12.43c1.11-5.302-3.211-14.98-3.211-18.279 0-.73-.946-2.378.946-4.751 1.892-2.374 9.061-8.406 8.884-11.88L271.335 206zM319.762 204s3.52 4.893 3.93 9.655a19.98 19.98 0 0 0 .863 4.378 8.95 8.95 0 0 1 .138 5.109 22.905 22.905 0 0 0-.716 4.109 26.542 26.542 0 0 1-1.872 7.793c-1.678 4.144-3.883 9.798-4.012 10.937-.186 1.84-1.1 6.257-1.1 6.257L309.658 255s2.2-5.339 2.2-10.491c0-5.152-1.466-10.305 2.59-18.774 0 0 .185-2.208-1.295-5.52-1.48-3.312-7.153-11.963-7.153-11.963L319.762 204z"/>
        <path fill="#000" fill-rule="nonzero" d="M307.24 211.07c-.6.667 2.485 4.915 2.485 4.915s-4.727-.373-5.09-3.73a4.28 4.28 0 0 0-.184-.821c-1.095-3.375-6.382-8.164-8.726-8.506-2.566-.373-7.635 5.97-9.637 10.446a11.11 11.11 0 0 1-.35.72c-1.955 3.651-4.376 2.826-4.376 2.826 1.283-1.624 1.548-2.91 1.146-3.95-1.591-4.025-13.508-3.906-13.508-3.906s5.454-12.873 7.635-14.365c2.182-1.492 5.638-12.689 5.638-12.689s26.002-2.984 26.181-1.68c.18 1.303 5.274 11.569 7.092 13.245 1.818 1.677 5.454 14.19 5.454 14.19-6.18-1.866-12.999 2.703-13.726 3.265l-.034.04z" opacity=".1"/>
        <path fill="#8499F0" fill-rule="nonzero" d="M307.231 210.073c-.599.667 2.485 4.916 2.485 4.916s-4.726-.373-5.09-3.73a4.28 4.28 0 0 0-.184-.822c-1.095-3.375-6.382-8.163-8.726-8.505-2.566-.373-7.635 5.969-9.636 10.445a11.11 11.11 0 0 1-.351.72c-1.955 3.652-4.367 2.822-4.367 2.822 1.283-1.624 1.548-2.91 1.146-3.95-1.591-4.024-13.508-3.906-13.508-3.906s5.454-12.872 7.635-14.365c2.182-1.492 5.638-12.688 5.638-12.688s26.002-2.984 26.181-1.68c.18 1.303 5.274 11.568 7.092 13.245 1.818 1.676 5.454 14.18 5.454 14.18-6.18-1.865-12.999 2.704-13.726 3.265l-.043.053z"/>
        <path fill="#000" fill-rule="nonzero" d="M272.955 250l-5.075 8.211s-2.401 2.118-4.246 1.765c-1.845-.353-3.69 4.943 3.877 3.884 7.567-1.06 16.423-4.943 16.423-4.943s.83-7.152-3.412-8.722l-7.567-.195zM317.336 247.315l3.896 9.205s1.087 2.572 3.26 2.572c2.175 0 2.9 4.558-4.168 3.829-7.068-.729-12.324-6.38-12.324-6.38s.546-8.746 3.807-9.295c1.829-.35 3.709-.326 5.529.069z" opacity=".1"/>
        <path fill="#B77983" fill-rule="nonzero" d="M272.955 251l-5.075 8.211s-2.401 2.118-4.246 1.765c-1.845-.353-3.69 4.943 3.877 3.884 7.567-1.06 16.423-4.943 16.423-4.943s.83-7.152-3.412-8.722l-7.567-.195zM317.336 248.315l3.896 9.205s1.087 2.572 3.26 2.572c2.175 0 2.9 4.558-4.168 3.829-7.068-.729-12.324-6.38-12.324-6.38s.546-8.746 3.807-9.295c1.829-.35 3.709-.326 5.529.069z"/>
        <path fill="#000" fill-rule="nonzero" d="M306.871 179.33c.185 1.307 5.303 11.475 7.131 13.138 1.678 1.528 4.9 12.11 5.415 13.825.331.065.658.14.985.235 0 0-3.656-12.397-5.484-14.064-1.828-1.668-6.946-11.845-7.13-13.138-.035-.256-1.106-.348-2.788-.322 1.144.03 1.84.122 1.871.327zM294.355 202.016c-2.58-.37-7.678 5.92-9.69 10.36-.117.256-.233.491-.353.713-1.136 2.09-2.422 2.7-3.312 2.843.59.109 2.58.2 4.228-2.843.12-.222.237-.457.353-.713 1.845-4.075 6.3-9.699 9.002-10.317l-.228-.043zM306.994 209.707l.03-.03c.589-.435 5.161-3.482 10.172-3.67-5.355-.187-10.46 3.196-11.088 3.67l-.03.03c-.53.584 1.802 3.918 2.374 4.702a8.24 8.24 0 0 0 1.036.17s-3.096-4.214-2.494-4.872z"/>
        <path fill="#F7BBC3" fill-rule="nonzero" d="M260 109.406s0-10.82 7.256-11.354c7.256-.534 9.817 3.192 8.345 3.547-1.473.355-7.62 2.837-7.62 2.837l-3.99 6.564-3.991-1.594zM327 112.406s0-10.82-7.256-11.354c-7.256-.534-9.817 3.192-8.345 3.547 1.473.355 7.62 2.837 7.62 2.837l3.99 6.564 3.991-1.594zM292.814 125s.544 7.31-3.968 11.515c-4.51 4.205 10.478 9.485 10.478 9.485l6.676-8.04s-5.41-3.29-2.546-8.957L292.814 125z"/>
        <path fill="#000" fill-rule="nonzero" d="M291.95 132.977s-1.655 2.59-5.697.186c-4.041-2.405-13.594-2.405-13.594-2.405l-9.553-4.404s.735-15.785 2.94-16.519c0 0-4.41 1.835-5.698-1.835L253 127.455s.553 4.223 4.595 5.872l15.25 9.36s6.613 4.037 6.613 14.132c0 10.094 1.297 26.06 1.297 26.06s21.297 12.863 29.942-2.184c0 0-3.492-17.801-1.102-22.21 0 0 .735-11.562 6.613-13.764l15.237-13.963s2.94-1.835.735-7.159l-5.144-12.663s-3.125 4.404-5.697 2.202l2.94 12.482-5.88 5.505s-5.51 2.755-8.268 2.59c-2.758-.164-5.879 1.101-5.879 1.101s-1.296 7.34-7.166 6.606c.008-.004-11.2-.557-5.136-8.445z" opacity=".1"/>
        <path fill="#000" fill-rule="nonzero" d="M291.95 131.964s-1.655 2.59-5.697.186c-4.041-2.405-13.594-2.392-13.594-2.392l-9.553-4.404s.735-15.785 2.94-16.519c0 0-4.41 1.835-5.698-1.835L253 126.455s.553 4.222 4.595 5.872l15.245 9.377s6.614 4.037 6.614 14.132c0 10.094 1.297 26.06 1.297 26.06s21.301 12.832 29.946-2.197c0 0-3.492-17.801-1.102-22.21 0 0 .735-11.562 6.613-13.764l15.237-13.967s2.94-1.835.735-7.159l-5.144-12.663s-3.125 4.404-5.697 2.202l2.94 12.482-5.88 5.505s-5.51 2.754-8.268 2.59c-2.758-.164-5.879 1.101-5.879 1.101s-1.296 7.34-7.166 6.606c.008-.013-11.2-.57-5.136-8.458z" opacity=".1"/>
        <path fill="#D39999" fill-rule="nonzero" d="M292.17 132l-.17.23.17-.23zM331.43 129.763l-15.25 13.95c-5.878 2.202-6.613 13.765-6.613 13.765-2.39 4.404 1.102 22.21 1.102 22.21-8.644 15.051-29.95 2.202-29.95 2.202s-.043-.527-.112-1.455c-.06-.812-.143-1.935-.233-3.269-.121-1.727-.26-3.812-.39-6.075-.289-4.943-.553-10.703-.553-15.263 0-10.094-6.613-14.131-6.613-14.131l-11.411-7.03-3.812-2.34c-4.042-1.653-4.595-5.872-4.595-5.872L260.348 107c1.202 3.428 5.13 2.05 5.64 1.857-2.16.975-2.882 16.497-2.882 16.497l9.552 4.404s9.553 0 13.598 2.388c3.458 2.03 5.148.475 5.58-.039-5.809 7.772 5.261 8.294 5.261 8.294 5.878.734 7.167-6.606 7.167-6.606s3.125-1.295 5.878-1.1c2.753.194 8.269-2.591 8.269-2.591l5.878-5.505-2.94-12.483c2.594 2.202 5.698-2.202 5.698-2.202l5.143 12.664c2.192 5.345-.76 7.185-.76 7.185z"/>
        <path fill="#000" fill-rule="nonzero" d="M293.177 125a17.307 17.307 0 0 1-.177 3.418c1.648 4.066 6.04 6.338 10.349 5.353a6.357 6.357 0 0 1 .651-4.768L293.177 125z" opacity=".1"/>
        <circle cx="301" cy="125" r="9" fill="#F7BBC3" fill-rule="nonzero"/>
        <path fill="#000" fill-rule="nonzero" d="M301.64 119.112c-.079.886-.144 1.83.277 2.618.235.397.527.758.869 1.074l1.893 1.883a4.824 4.824 0 0 1 1.35 1.859c.547 1.762-1.068 3.51-1.016 5.352.595.901 1.738 1.31 2.796.999.417-.155.81-.365 1.168-.625l1.827-1.208c1.411-.932 2.887-1.938 3.595-3.44.742-1.582.49-3.41.525-5.147.081-1.057.097-2.117.048-3.176a9.116 9.116 0 0 0-.868-2.911 10.663 10.663 0 0 0-3.864-4.543 7.882 7.882 0 0 0-5.887-1.103c-.324.098-.66.156-.999.172-.655 0-1.22-.42-1.823-.667-1.578-.596-3.373-.096-4.38 1.22-.4.546-.63 1.196-1.047 1.724-.62.79-1.632 1.288-2.053 2.19-.421.902-.14 1.934-.23 2.907a7.812 7.812 0 0 1-.821 2.496c1.025-.344 1.524-1.426 2.17-2.257a5.822 5.822 0 0 1 4.234-2.072c.564-.025 1.61-.067 2.058.348.599.525.238 1.67.178 2.307z" opacity=".1"/>
        <path fill="#74585E" fill-rule="nonzero" d="M301.596 119.123c-.078.884-.143 1.827.278 2.615.234.397.527.758.868 1.073l1.893 1.883a4.82 4.82 0 0 1 1.35 1.857c.547 1.76-1.068 3.508-1.016 5.348.595.9 1.738 1.308 2.796.998a4.83 4.83 0 0 0 1.212-.641l1.827-1.208c1.411-.93 2.887-1.936 3.595-3.437.742-1.58.49-3.408.525-5.143a25.82 25.82 0 0 0 .048-3.174 9.105 9.105 0 0 0-.868-2.909 10.657 10.657 0 0 0-3.864-4.54 7.887 7.887 0 0 0-5.887-1.102 4.1 4.1 0 0 1-.999.172c-.655 0-1.22-.42-1.823-.666-1.578-.596-3.373-.096-4.38 1.22-.4.544-.63 1.194-1.047 1.722-.62.788-1.632 1.287-2.053 2.188-.421.902-.14 1.933-.23 2.905a7.803 7.803 0 0 1-.821 2.494c1.025-.343 1.524-1.425 2.17-2.255a5.824 5.824 0 0 1 4.234-2.07c.564-.026 1.61-.068 2.058.347.568.541.208 1.673.134 2.323z"/>
        <path fill="#000" fill-rule="nonzero" d="M292 132.103c.052-.064.077-.103.077-.103l-.077.103zM322.627 113.61A2.347 2.347 0 0 1 321 113l.176.74c.486.098.99.053 1.451-.13zM290.171 133.933c-4.573 7.033 5.724 7.544 5.724 7.544a5.672 5.672 0 0 0 2.345-.167 6.092 6.092 0 0 1-1.43 0s-11.036-.547-5.188-8.31a2.971 2.971 0 0 1-1.451.933zM309.473 133.262c.74.019 1.48-.07 2.195-.262a5.934 5.934 0 0 1-1.289.082 11.953 11.953 0 0 0-3.379.34 10.718 10.718 0 0 1 2.473-.16zM332.24 123.615L327.13 111c-.206.28-.426.549-.662.804l4.861 11.979c2.19 5.303-.73 7.131-.73 7.131l-15.15 13.897c-5.84 2.193-6.57 13.712-6.57 13.712-2.374 4.387 1.096 22.124 1.096 22.124-2.302 4.022-5.51 6.022-8.975 6.848 3.809-.65 7.382-2.658 9.876-7.033 0 0-3.47-17.733-1.095-22.124 0 0 .73-11.519 6.57-13.712l15.15-13.88s2.933-1.832.739-7.13zM265.83 109a6.76 6.76 0 0 1-1.155.331c-2 1.76-2.675 16.306-2.675 16.306l9.49 4.387s9.49 0 13.51 2.378c1.966 1.166 3.362 1.144 4.293.822-.858.051-1.962-.177-3.362-1.002-4.015-2.379-13.51-2.379-13.51-2.379l-9.515-4.383s.73-15.729 2.924-16.46z"/>
        <path fill="#000" fill-rule="nonzero" d="M264.496 110.232c-1.387.18-3.294-.021-4.067-2.232l-.429 1.14c1.194 1.699 3.38 1.389 4.496 1.092z"/>
        <path fill="#000" fill-rule="nonzero" d="M279.325 173c-.286-5.023-.546-10.874-.546-15.506 0-10.256-6.52-14.357-6.52-14.357L261 136c6.563 1.755 15.295 4.777 16.079 8.334 1.278 5.782 3.622 6.339 2.719 16.23-.382 4.133-.54 8.285-.473 12.436zM281.73 185s1.538 4.87-2.73 8M307 185s.401 3.621 2 5M283.934 260.083s-8.858 3.969-16.426 5.051c-3.838.548-5.253-.573-5.475-1.762-.252 1.389.869 3.146 5.475 2.484 7.568-1.083 16.426-5.052 16.426-5.052.056-.6.077-1.202.06-1.804-.03.662-.06 1.083-.06 1.083zM320.577 263.553c-7.107-.734-12.393-6.429-12.393-6.429s.27-4.346 1.565-7.124c-1.453 2.743-1.749 7.492-1.749 7.492s5.286 5.694 12.393 6.428c3.63.376 5.217-.64 5.607-1.728-.596.938-2.208 1.694-5.423 1.361z" opacity=".1"/>
        <path fill="#FFF" fill-rule="nonzero" d="M218 143h46v31h-46z"/>
        <path stroke="#535461" stroke-width="2" d="M375.18 221s-8.075-27.265 1.511-47.326a42.846 42.846 0 0 0 3.503-26.995A72.12 72.12 0 0 0 376.347 134"/>
        <path fill="#6C63FF" fill-rule="nonzero" d="M383 121.025c0 3.328-6 12.975-6 12.975s-6-9.647-6-12.975c0-3.328 2.686-6.025 6-6.025s6 2.697 6 6.025zM393.083 139.311C391.277 142.133 381 147 381 147s.187-11.48 1.992-14.3c1.828-2.762 5.507-3.529 8.264-1.722 2.756 1.806 3.57 5.517 1.827 8.333zM392.513 171.206c-3.031 1.464-14.513.455-14.513.455s5.99-9.505 9.008-10.97a6.318 6.318 0 0 1 6.19.249c1.864 1.157 2.932 3.195 2.79 5.327-.143 2.131-1.472 4.021-3.475 4.94zM387.394 195.089C384.645 197.096 373 198 373 198s4.287-10.728 7.035-12.73a6.256 6.256 0 0 1 6.208-.779 6.117 6.117 0 0 1 3.722 4.966 6.076 6.076 0 0 1-2.571 5.632zM367.866 147.285C370.363 149.6 382 152 382 152s-2.85-11.032-5.359-13.351c-2.505-2.265-6.452-2.187-8.857.175-2.405 2.362-2.374 6.131.069 8.457l.013.004zM361.103 176.198c2.903 1.479 13.897.46 13.897.46s-5.736-9.6-8.626-11.08c-2.873-1.389-6.313-.193-7.746 2.694-1.433 2.886-.334 6.406 2.475 7.926zM359.44 204.059C362.22 206.087 374 207 374 207s-4.336-10.837-7.116-12.86c-2.78-1.946-6.629-1.34-8.657 1.362a6.111 6.111 0 0 0 1.213 8.557z"/>
        <path stroke="#535461" stroke-width="2" d="M346.118 206s-5.38-17.232 1.01-29.915c2.715-5.302 3.534-11.293 2.333-17.072A43.854 43.854 0 0 0 346.9 151"/>
        <path fill="#6C63FF" fill-rule="nonzero" d="M350 142.718c0 2.122-3.5 8.282-3.5 8.282s-3.5-6.16-3.5-8.282c.063-2.073 1.61-3.718 3.498-3.718 1.887 0 3.435 1.645 3.498 3.718H350zM356.351 155.092C355.255 156.89 349 160 349 160s.115-7.33 1.211-9.128c.691-1.211 1.948-1.927 3.28-1.869 1.333.058 2.53.881 3.125 2.148a4.087 4.087 0 0 1-.265 3.941zM356 173.532c-1.872.865-9 .266-9 .266s3.716-5.603 5.582-6.463c1.86-.807 4.083-.109 5.01 1.573.928 1.682.22 3.734-1.593 4.624zM352.59 189.316C350.95 190.478 344 191 344 191s2.558-6.208 4.197-7.367c1.64-1.092 3.89-.737 5.078.8 1.189 1.537.885 3.7-.686 4.883z"/>
        <path fill="#6C63FF" fill-rule="nonzero" d="M341.274 159.876C342.818 161.403 350 163 350 163s-1.754-7.26-3.302-8.786a3.849 3.849 0 0 0-3.824-1.076 3.931 3.931 0 0 0-2.766 2.897 4.006 4.006 0 0 0 1.166 3.86v-.019zM338 177.532c1.872.865 9 .266 9 .266s-3.716-5.603-5.582-6.463c-1.86-.807-4.083-.109-5.01 1.573-.928 1.682-.22 3.734 1.593 4.624zM335.713 195.134C337.485 196.422 345 197 345 197s-2.766-6.878-4.538-8.162a4.057 4.057 0 0 0-4.025-.528 3.926 3.926 0 0 0-2.415 3.202 3.89 3.89 0 0 0 1.691 3.622z"/>
    </g>
</svg>
