<svg xmlns="http://www.w3.org/2000/svg" width="300" height="298" viewBox="0 0 300 298">
    <defs>
        <linearGradient id="a" x1="49.998%" x2="49.998%" y1="100.007%" y2=".003%">
            <stop offset="0%" stop-color="gray" stop-opacity=".25"/>
            <stop offset="54%" stop-color="gray" stop-opacity=".12"/>
            <stop offset="100%" stop-color="gray" stop-opacity=".1"/>
        </linearGradient>
        <linearGradient id="b" x1="49.877%" x2="50.079%" y1="100.026%" y2="-.074%">
            <stop offset="0%" stop-opacity=".12"/>
            <stop offset="55%" stop-opacity=".09"/>
            <stop offset="100%" stop-opacity=".02"/>
        </linearGradient>
    </defs>
    <g fill="none" fill-rule="nonzero">
        <path fill="url(#a)" d="M300 122.407c.024-11.138-2.29-14.062-7.322-18.297L156.941 2.237a11.096 11.096 0 0 0-13.292-.053L10.31 101.198c-5.06 4.21-9.798 9.118-9.823 20.256H.342L0 273.964v6.79a16.606 16.606 0 0 0 4.859 11.773 16.7 16.7 0 0 0 11.785 4.897h6.573l126.435.28 133.004.296a16.7 16.7 0 0 0 11.807-4.845 16.607 16.607 0 0 0 4.91-11.753l.354-159.02.273.025z"/>
        <path fill="#6C63FF" d="M3.194 122.667l294 .667-.322 141.901c-.04 16.068-13.131 29.064-29.247 29.032l-236.163-.536c-15.826-.036-28.627-12.856-28.59-28.636l.322-142.428z"/>
        <path fill="#F5F5F5" d="M3.33 123L3 271.59c-.027 12.6 10.16 22.838 22.76 22.874L274 295"/>
        <path fill="#FFF" d="M296 123l-.329 148.287c-.036 12.574-10.258 22.74-22.838 22.713L25 293.448"/>
        <path fill="#6C63FF" d="M143.507 6.127L12.64 102.377c-4.966 4.092-9.616 8.865-9.64 19.694L297 123c.024-10.829-2.248-13.672-7.194-17.788L156.553 6.163a10.992 10.992 0 0 0-13.046-.036z"/>
        <path fill="#000" d="M143.507 6.127L12.64 102.377c-4.966 4.092-9.616 8.865-9.64 19.694L297 123c.024-10.829-2.248-13.672-7.194-17.788L156.553 6.163a10.992 10.992 0 0 0-13.046-.036z" opacity=".3"/>
        <path fill="url(#b)" d="M265 39.975L229.378 12l-86.12 109.15-46.281-35.902L68 122.1l67.35 51.477L152.049 187z"/>
        <path fill="#FFF" d="M263 39.705L230.725 15l-85.494 111.3-47.483-36.345L73 122.174l63.614 48.622L152.928 183z"/>
    </g>
</svg>
