<svg xmlns="http://www.w3.org/2000/svg" width="440" height="358" viewBox="0 0 440 358">
    <defs>
        <linearGradient id="a" x1="49.994%" x2="49.994%" y1="100%" y2="0%">
            <stop offset="0%" stop-color="gray" stop-opacity=".25"/>
            <stop offset="54%" stop-color="gray" stop-opacity=".12"/>
            <stop offset="100%" stop-color="gray" stop-opacity=".1"/>
        </linearGradient>
        <linearGradient id="b" x1="49.994%" x2="49.994%" y1="100.005%" y2="0%">
            <stop offset="0%" stop-color="gray" stop-opacity=".25"/>
            <stop offset="54%" stop-color="gray" stop-opacity=".12"/>
            <stop offset="100%" stop-color="gray" stop-opacity=".1"/>
        </linearGradient>
        <linearGradient id="c" x1="50.003%" x2="50.003%" y1="100%" y2="-.018%">
            <stop offset="0%" stop-color="gray" stop-opacity=".25"/>
            <stop offset="54%" stop-color="gray" stop-opacity=".12"/>
            <stop offset="100%" stop-color="gray" stop-opacity=".1"/>
        </linearGradient>
        <linearGradient id="d" x1="49.998%" x2="49.998%" y1="100%" y2="0%">
            <stop offset="0%" stop-color="gray" stop-opacity=".25"/>
            <stop offset="54%" stop-color="gray" stop-opacity=".12"/>
            <stop offset="100%" stop-color="gray" stop-opacity=".1"/>
        </linearGradient>
        <linearGradient id="e" x1="50.002%" x2="50.002%" y1="99.996%" y2=".002%">
            <stop offset="0%" stop-color="gray" stop-opacity=".25"/>
            <stop offset="54%" stop-color="gray" stop-opacity=".12"/>
            <stop offset="100%" stop-color="gray" stop-opacity=".1"/>
        </linearGradient>
        <linearGradient id="f" x1="50%" x2="50%" y1="100.025%" y2="0%">
            <stop offset="0%" stop-color="gray" stop-opacity=".25"/>
            <stop offset="54%" stop-color="gray" stop-opacity=".12"/>
            <stop offset="100%" stop-color="gray" stop-opacity=".1"/>
        </linearGradient>
        <linearGradient id="g" x1="49.969%" x2="49.969%" y1="100%" y2="-.017%">
            <stop offset="0%" stop-color="gray" stop-opacity=".25"/>
            <stop offset="54%" stop-color="gray" stop-opacity=".12"/>
            <stop offset="100%" stop-color="gray" stop-opacity=".1"/>
        </linearGradient>
    </defs>
    <g fill="none" fill-rule="evenodd">
        <ellipse cx="266" cy="350.5" fill="#6C63FF" fill-rule="nonzero" opacity=".1" rx="45" ry="7.5"/>
        <path fill="#6C63FF" fill-rule="nonzero" d="M264.219 44.23c-18.407 15.596-42.289 14.588-63.193 6.475-20.904-8.113-40.16-22.562-60.544-32.83A170.136 170.136 0 0 0 87.292 1.1c-25.98-3.598-54.998.786-73.103 25.998C-5.97 55.173-4.42 105.812 17.385 131.6c11.091 13.11 25.613 19.543 38.281 29.78 12.668 10.238 24.386 27.233 23.31 46.99-.997 18.292-12.614 32.335-24.622 41.153-9.287 6.803-20.723 14.235-21.863 28.332-1.085 13.64 8.531 24.327 17.718 30.407 29.952 19.829 66.85 19.636 96.702-.5 10.65-7.185 20.433-16.738 31.6-22.34 29.314-14.697 61.62.097 92.658 5.51 26.273 4.581 53.215 2.209 78.812-6.942 15.371-5.492 30.801-13.89 41.603-29.537 7.786-11.283 12.638-25.565 17.192-39.666 4.86-15.04 9.53-30.183 14.009-45.432 2.686-9.154 5.335-18.477 6.029-28.278 1.261-17.75-4.045-35.273-11.264-50.273-17.124-35.593-45.996-60.6-77.248-66.953-31.251-6.354-64.366 6.055-88.617 33.203" opacity=".1"/>
        <path fill="#6C63FF" fill-rule="nonzero" d="M210.447 85.796V83h-43.841c-2.016 0-.786 2.812-.786 2.812H142v62.7h104.582V85.796h-36.135z" opacity=".2"/>
        <path stroke="#535461" stroke-width="2" d="M350 133s13.249-23.603 33.217-30.403a40.845 40.845 0 0 0 20.682-15.56A68.928 68.928 0 0 0 410 76"/>
        <path fill="#6C63FF" fill-rule="nonzero" d="M423.21 71.617C420.879 73.77 410 76 410 76s2.665-10.26 5.003-12.42c2.335-2.153 6.066-2.1 8.333.12 2.267 2.219 2.21 5.763-.125 7.917zM417.343 89.935c-3.132.595-13.343-3.1-13.343-3.1s7.96-7.134 11.093-7.73c2.026-.383 4.113.294 5.474 1.778 1.361 1.483 1.79 3.547 1.125 5.414-.665 1.868-2.322 3.254-4.349 3.638zM394.566 110.695c-2.923-.996-9.566-9.116-9.566-9.116s10.31-2.33 13.232-1.33a5.55 5.55 0 0 1 3.667 4.179 5.486 5.486 0 0 1-1.833 5.223 5.658 5.658 0 0 1-5.5 1.044zM375.301 122.914c-3.136-.49-11.301-7.363-11.301-7.363s10.039-4.002 13.18-3.509c2.03.322 3.727 1.656 4.451 3.5.725 1.845.367 3.92-.94 5.442-1.305 1.523-3.36 2.263-5.39 1.942v-.012zM395.002 78.81c0 3.128 5.492 12.19 5.492 12.19s5.504-9.058 5.504-12.185c.054-2.059-.982-3.985-2.705-5.03a5.365 5.365 0 0 0-5.586 0c-1.723 1.045-2.76 2.971-2.705 5.03v-.005zM371.322 93.792c.906 3.058 8.78 10.208 8.78 10.208s2.613-10.603 1.707-13.661c-.51-2.071-2.06-3.677-4.03-4.178-1.971-.5-4.042.185-5.39 1.784-1.347 1.6-1.75 3.852-1.05 5.86l-.017-.013zM351.088 109.738c.402 3.08 7.018 11.262 7.018 11.262s4.27-9.678 3.867-12.759c-.14-2.093-1.406-3.932-3.283-4.771a5.386 5.386 0 0 0-5.646.778c-1.593 1.317-2.34 3.433-1.936 5.49h-.02z"/>
        <path fill="#000" fill-rule="nonzero" d="M423.21 71.617C420.879 73.77 410 76 410 76s2.665-10.26 5.003-12.42c2.335-2.153 6.066-2.1 8.333.12 2.267 2.219 2.21 5.763-.125 7.917zM417.343 89.935c-3.132.595-13.343-3.1-13.343-3.1s7.96-7.134 11.093-7.73c2.026-.383 4.113.294 5.474 1.778 1.361 1.483 1.79 3.547 1.125 5.414-.665 1.868-2.322 3.254-4.349 3.638zM394.566 110.695c-2.923-.996-9.566-9.116-9.566-9.116s10.31-2.33 13.232-1.33a5.55 5.55 0 0 1 3.667 4.179 5.486 5.486 0 0 1-1.833 5.223 5.658 5.658 0 0 1-5.5 1.044zM375.301 122.914c-3.136-.49-11.301-7.363-11.301-7.363s10.039-4.002 13.18-3.509c2.03.322 3.727 1.656 4.451 3.5.725 1.845.367 3.92-.94 5.442-1.305 1.523-3.36 2.263-5.39 1.942v-.012zM395.002 78.81c0 3.128 5.492 12.19 5.492 12.19s5.504-9.058 5.504-12.185c.054-2.059-.982-3.985-2.705-5.03a5.365 5.365 0 0 0-5.586 0c-1.723 1.045-2.76 2.971-2.705 5.03v-.005zM371.322 93.792c.906 3.058 8.78 10.208 8.78 10.208s2.613-10.603 1.707-13.661c-.51-2.071-2.06-3.677-4.03-4.178-1.971-.5-4.042.185-5.39 1.784-1.347 1.6-1.75 3.852-1.05 5.86l-.017-.013zM351.088 109.738c.402 3.08 7.018 11.262 7.018 11.262s4.27-9.678 3.867-12.759c-.14-2.093-1.406-3.932-3.283-4.771a5.386 5.386 0 0 0-5.646.778c-1.593 1.317-2.34 3.433-1.936 5.49h-.02z" opacity=".25"/>
        <path stroke="#535461" stroke-width="2" d="M351 132s2.611-26.782 18.167-41.024a40.652 40.652 0 0 0 12.696-22.488c.764-4.119 1.144-8.3 1.137-12.488"/>
        <path fill="#6C63FF" fill-rule="nonzero" d="M392.6 46.795c-1.139 2.908-9.55 9.205-9.55 9.205s-1.813-10.543-.674-13.45c.736-1.879 2.39-3.21 4.34-3.494 1.95-.284 3.899.524 5.113 2.119a5.798 5.798 0 0 1 .771 5.611v.009zM394.54 66.553C391.925 68.4 381 69 381 69s4.247-10.1 6.872-11.942a5.784 5.784 0 0 1 5.77-.52 5.81 5.81 0 0 1 .898 10.015zM382.757 93.99C379.607 94.244 370 89.5 370 89.5s8.651-6.226 11.8-6.48c2.038-.165 4.01.729 5.177 2.344a5.329 5.329 0 0 1 .478 5.485c-.87 1.78-2.661 2.977-4.698 3.141zM369.636 112.878c-3.12.77-13.636-2.362-13.636-2.362s7.586-7.572 10.696-8.338c3.12-.766 6.306 1.008 7.116 3.963.809 2.954-1.064 5.97-4.185 6.737h.009zM369.53 65.054C370.867 67.942 380.211 74 380.211 74s1.591-10.69.254-13.58c-1.331-2.893-4.863-4.207-7.889-2.934-3.025 1.274-4.399 4.652-3.068 7.547l.022.02zM354.437 87.509C356.557 89.885 367 93 367 93s-1.767-10.672-3.874-13.052c-2.107-2.376-5.76-2.611-8.16-.525a5.688 5.688 0 0 0-.529 8.082v.004zM342.78 111.55C344.443 114.222 354 119 354 119s.104-10.722-1.558-13.394a5.666 5.666 0 0 0-7.736-1.766 5.687 5.687 0 0 0-1.929 7.71h.005z"/>
        <path stroke="#535461" stroke-width="2" d="M65 240s-16.61-20.241-15.566-40.554a38.936 38.936 0 0 0-6.627-24.065A66.51 66.51 0 0 0 35 166"/>
        <path fill="#6C63FF" fill-rule="nonzero" d="M35.592 153.507c1.166 2.902-.538 13.493-.538 13.493s-8.466-6.235-9.633-9.137c-1.165-2.901.17-6.227 2.981-7.429 2.811-1.201 6.034.176 7.198 3.077l-.008-.004zM50.895 165.484c-.55 2.949-7.566 10.516-7.566 10.516s-3.839-9.542-3.272-12.482a5.45 5.45 0 0 1 3.564-4.196 5.575 5.575 0 0 1 5.462.99 5.382 5.382 0 0 1 1.812 5.172zM60.83 192.728C58.859 194.984 49 198 49 198s1.571-10.043 3.544-12.298c2.005-2.106 5.34-2.28 7.56-.395a5.323 5.323 0 0 1 .71 7.421h.017zM65.218 214.49c-1.621 2.672-11.212 7.51-11.212 7.51s-.185-10.666 1.44-13.32c1.64-2.63 5.113-3.465 7.79-1.873 2.676 1.592 3.56 5.017 1.982 7.684zM32.463 181.64c2.932 1.126 13.537-.747 13.537-.747s-6.39-8.421-9.319-9.553c-2.906-1.034-6.132.366-7.276 3.157-1.143 2.791.213 5.958 3.058 7.142zM37.3 206.992c3.147.225 12.7-4.608 12.7-4.608s-8.705-6.143-11.852-6.368c-2.036-.149-4 .76-5.152 2.383a5.331 5.331 0 0 0-.432 5.489c.884 1.772 2.683 2.956 4.72 3.104h.017zM44.173 231.89c2.946.74 12.827-2.51 12.827-2.51s-7.223-7.487-10.168-8.215c-2.948-.738-5.934 1.067-6.668 4.032s1.06 5.967 4.009 6.706v-.013zM414.812 275s3.203 4.181-1.478 10.454c-4.681 6.272-8.543 11.615-6.982 15.546 0 0 7.066-11.708 12.813-11.863 5.748-.154 1.973-7.104-4.353-14.137z"/>
        <path fill="#000" fill-rule="nonzero" d="M414.73 275c.282.403.505.843.662 1.308 5.673 6.56 8.696 12.682 3.244 12.837-5.095.142-11.175 9.08-12.636 11.341.048.174.107.346.174.514 0 0 7.146-11.7 12.959-11.855 5.813-.155 1.996-7.116-4.403-14.145z" opacity=".1"/>
        <path fill="#FFD037" fill-rule="nonzero" d="M421 280.044c0 1.636-.227 2.956-.5 2.956s-.5-1.32-.5-2.956.278-.86.568-.86c.29 0 .432-.772.432.86z"/>
        <path fill="#FFD037" fill-rule="nonzero" d="M422.286 282.01c-1.17.703-2.193 1.126-2.28.95-.087-.176.79-.896 1.961-1.6 1.17-.704.71-.193.798 0 .087.193.696-.054-.479.65z"/>
        <path fill="#6C63FF" fill-rule="nonzero" d="M397.188 275s-3.203 4.181 1.478 10.454c4.681 6.272 8.543 11.615 6.982 15.546 0 0-7.066-11.708-12.813-11.863-5.748-.154-1.973-7.104 4.353-14.137z"/>
        <path fill="#000" fill-rule="nonzero" d="M397.27 275a4.983 4.983 0 0 0-.662 1.308c-5.677 6.56-8.696 12.682-3.244 12.837 5.095.142 11.175 9.08 12.636 11.341a6.104 6.104 0 0 1-.174.514s-7.146-11.7-12.959-11.855c-5.813-.155-1.996-7.116 4.403-14.145z" opacity=".1"/>
        <path fill="#FFD037" fill-rule="nonzero" d="M392 280.044c0 1.636.227 2.956.5 2.956s.5-1.32.5-2.956-.278-.86-.568-.86c-.29 0-.432-.772-.432.86zM389.713 282.01c1.175.703 2.198 1.126 2.281.95.084-.176-.79-.896-1.962-1.6-1.171-.704-.71-.193-.798 0-.088.193-.693-.054.479.65z"/>
        <ellipse cx="406.5" cy="327" fill="#6C63FF" fill-rule="nonzero" opacity=".1" rx="33.5" ry="5"/>
        <path fill="#65617D" fill-rule="nonzero" d="M423.993 294.973l-.162 1.317-.23 1.864-.094.779-.226 1.863-.102.78-.226 1.863-2.602 21.173c-.23 1.893-3.34 3.388-7.093 3.388h-13.512c-3.753 0-6.858-1.474-7.093-3.388l-2.603-21.173-.23-1.864-.093-.779-.23-1.863-.098-.78-.226-1.863-.166-1.317c-.128-1.071 1.555-1.973 3.676-1.973h27.638c2.121 0 3.804.902 3.672 1.973z"/>
        <path fill="#9D9CB5" fill-rule="nonzero" d="M423 296l-.226 2h-33.553l-.221-2zM423 299l-.23 2h-33.536l-.234-2zM423 302l-.223 2h-32.55l-.227-2z"/>
        <path fill="url(#a)" fill-rule="nonzero" d="M337.369 77.878h-.352c.553-.63.837-1.26.791-1.82l-3.181-3.195 1.214-2.732h-4.09l.758-2.131h-2.424l-26.817 8.97s-.03.374 0 .908H286V156h75V77.878h-23.631z"/>
        <path fill="#F6F7F9" fill-rule="nonzero" d="M287 78h74v77h-74z"/>
        <path fill="#000" fill-rule="nonzero" d="M338 78c-3.54 5.18-27.185 12-27.185 12l.148-5.398h-4.374a2.456 2.456 0 0 0-1.211-2.702c-1.27-.694-1.394-2.945-1.377-3.9H338z" opacity=".1"/>
        <path fill="#9D9CB5" fill-rule="nonzero" d="M330.395 69.02l-26.373 8.711s-.301 3.401 1.337 4.285a2.428 2.428 0 0 1 1.196 2.662h4.318L310.727 90s27.715-7.984 27.268-13.157l-3.127-3.106 1.191-2.663h-4.025l.748-2.074-2.387.02z"/>
        <path fill="#6C63FF" fill-rule="nonzero" d="M300 103h46.26v1.56H300zM300 111h46.26v1.56H300zM300 118h46.26v1.248H300zM300 124h46.26v1.56H300zM300 132h46.26v1.56H300zM300 138h46.26v1.56H300z" opacity=".2"/>
        <path fill="url(#b)" fill-rule="nonzero" d="M86.692 71.819h-.177c1.33-3.395 2.559-6.705 2.504-7.338-.118-1.257-2.647 1.475-2.765.792-.117-.683 0-3.273-1.148-3.273-1.15 0-1.844 1.345-2.525 1.345-.682 0-3.455-.452-3.455-.452l-3.53 8.926H49V155h66V71.819H86.692z"/>
        <path fill="#F6F7F9" fill-rule="nonzero" d="M50 72h64v82H50z"/>
        <path fill="#000" fill-rule="nonzero" d="M87 72c-1.4 3.476-2.978 7.14-3.337 8.013-.698 1.658-1.158.775-1.973.556-.814-.22-1.85.22-2.314 0-.464-.22-3.186 0-3.186 0 .03-.407.03-.816 0-1.223-.06-.439-3.19 0-3.19 0L75.982 72H87z" opacity=".1"/>
        <path fill="#9D9CB5" fill-rule="nonzero" d="M79.242 63.863L73 79.36s3.064-.44 3.119 0a7.61 7.61 0 0 1 0 1.209s2.67-.222 3.123 0c.454.222 1.473-.222 2.266 0 .794.222 1.248 1.098 1.931-.55.683-1.65 5.674-13.41 5.56-14.618-.116-1.209-2.61 1.43-2.725.768-.115-.661 0-3.169-1.133-3.169s-1.817 1.303-2.495 1.303c-.68 0-3.404-.44-3.404-.44z"/>
        <path fill="#6C63FF" fill-rule="nonzero" d="M58 94h46.673v1.56H58zM58 100h46.673v1.56H58zM58 105h46.673v1.56H58zM58 109h46.673v1.56H58zM58 114h46.673v1.56H58zM58 119h46.673v1.56H58z" opacity=".2"/>
        <path fill="url(#c)" fill-rule="nonzero" d="M329.224 195.139h-.177c1.635-4.2 3.144-8.304 3.072-9.073-.139-1.541-3.249 1.823-3.37.983-.123-.84 0-4.049-1.412-4.049s-2.259 1.68-3.106 1.68-4.239-.563-4.239-.563l-4.357 11.022H283V298h81V195.139h-34.776z"/>
        <path fill="#F6F7F9" fill-rule="nonzero" d="M284 196h79v102h-79z"/>
        <path fill="#000" fill-rule="nonzero" d="M330 196c-1.687 4.256-3.58 8.711-4.02 9.782-.857 2.049-1.41.954-2.399.684-.99-.27-2.257.27-2.822 0s-3.88 0-3.88 0c.038-.501.038-1.004 0-1.506-.072-.543-3.879 0-3.879 0l3.61-8.96H330z" opacity=".1"/>
        <path fill="#9D9CB5" fill-rule="nonzero" d="M320.801 185.104L313 204.906s3.827-.563 3.9 0c.038.514.038 1.03 0 1.543 0 0 3.333-.277 3.901 0 .568.277 1.843-.277 2.837 0 .995.277 1.559 1.407 2.411-.7.852-2.105 7.09-17.136 6.949-18.68-.142-1.543-3.264 1.825-3.406.985-.142-.84 0-4.054-1.416-4.054-1.417 0-2.269 1.667-3.121 1.667-.853 0-4.254-.563-4.254-.563z"/>
        <path fill="#6C63FF" fill-rule="nonzero" d="M300 225h46.26v3.524H300zM300 246h46.26v3.524H300zM300 268h46.26v3.524H300z" opacity=".2"/>
        <path fill="url(#d)" fill-rule="nonzero" d="M100.15 198.389V186H82.616v12.389H46V296h86v-97.611z"/>
        <path fill="#F6F7F9" fill-rule="nonzero" d="M47 199h84v97H47z"/>
        <path fill="#000" fill-rule="nonzero" d="M83 199h17v13H83z" opacity=".1"/>
        <path fill="#9D9CB5" fill-rule="nonzero" d="M83 187h17v25H83z"/>
        <path fill="#6C63FF" fill-rule="nonzero" d="M65 223h46.26v3.524H65zM65 229h46.26v3.524H65zM65 236h46.26v3.524H65zM65 243h46.26v3.524H65zM100 251h12.484v10.586H100zM65 262h12.484v10.586H65z" opacity=".2"/>
        <path fill="url(#e)" fill-rule="nonzero" d="M220.069 198.534h-.117a849.222 849.222 0 0 0 2.376-9.604l-5.782 2.743s-4.103-5.486-5.622-4.57c-1.519.916-4.853 3.198-4.853 3.198l-4.425-2.287-1.695 10.52H165v75.904l2.246 1.355c1.854-.671 4.903-1.81 4.903-1.81l-1.401 3.924.945.565 1.594-1.456.59 2.781 1.895 1.144 2.991-1.92-.837 3.232 2.807 1.688 8.162-3.093-2.46 6.532 1.619.978 3.694-.654s-.167 1.304-.272 2.718l3.706 2.236c1.519-.595 2.95-1.181 2.95-1.181s-.147 1.426-.214 2.827l2.485 1.502c1.962-1.156 4.46-2.73 4.46-2.73L202.77 297H250v-98.466h-29.931z"/>
        <path fill="#F6F7F9" fill-rule="nonzero" d="M250 199v97h-46.68l2.083-3.863s-2.466 1.546-4.405 2.688l-2.454-1.483c.068-1.377.215-2.784.215-2.784s-1.416.577-2.917 1.162l-3.663-2.203c.105-1.39.265-2.674.265-2.674l-3.646.644-1.598-.965 2.428-6.436-8.064 3.05-2.778-1.685.81-3.185-2.952 1.892-1.871-1.125-.582-2.738-1.577 1.44-.936-.56 1.387-3.862s-3.014 1.12-4.848 1.782L166 273.763V199h84z"/>
        <path fill="#6C63FF" fill-rule="nonzero" d="M184 229h46.26v3.524H184zM184 239h46.26v3.524H184zM184 250h46.26v3.524H184zM184 260h9.283v3.524H184z" opacity=".2"/>
        <path fill="#000" fill-rule="nonzero" d="M220 199.004c-2.284 8.891-5.612 21.21-6.48 20.993-1.348-.362-3.455-2.91-3.455-2.91s-4.955 4.594-7.356 2.224c-2.402-2.37-5.709-.744-5.709-.744L200.202 199l19.798.004z" opacity=".1"/>
        <path fill="#9D9CB5" fill-rule="nonzero" d="M201.763 188.997L197 218.564s3.273-1.642 5.652.75c2.38 2.392 7.293-2.25 7.293-2.25s2.087 2.564 3.423 2.933c1.335.368 8.632-30.103 8.632-30.103l-5.656 2.69s-4.016-5.38-5.506-4.483c-1.49.896-4.746 3.137-4.746 3.137l-4.33-2.24z"/>
        <path fill="url(#f)" fill-rule="nonzero" d="M240.384 59.833V57H195.94c-2.04 0-.792 2.833-.792 2.833H171V123h106V59.808l-36.616.025z"/>
        <path fill="#F6F7F9" fill-rule="nonzero" d="M172 60h105v63H172z"/>
        <path fill="#000" fill-rule="nonzero" d="M241.428 70h-42.085s-.454-4.727 1.023-5.602c1.476-.876-4.2-3.958-4.2-3.958A4.49 4.49 0 0 1 196 60h45.428v1.43s5.787 4.945 0 8.57z" opacity=".1"/>
        <path fill="#9D9CB5" fill-rule="nonzero" d="M196.166 57h44.273v3.947s5.762 5.21 0 9.053h-41.9s-.451-4.993 1.019-5.918c1.47-.925-4.182-4.182-4.182-4.182s-1.242-2.9.79-2.9z"/>
        <path fill="#6C63FF" fill-rule="nonzero" d="M184 80h79.402v1.248H184zM184 85h47.432v1.56H184zM184 90h79.402v1.56H184zM184 94h79.402v1.56H184zM184 99h79.402v1.56H184z" opacity=".2"/>
        <path fill="url(#g)" fill-rule="nonzero" d="M296.97 349.153c-.75-3.206-1.213-6.016-1.213-6.016s.173-3.488-1.389-6.104v-7.311a21.757 21.757 0 0 1 1.62-3.366c1.159-2.028 0-9.449 0-9.449s-4.29-10.462-3.245-17.097c1.046-6.634-8.815-29.469-8.815-29.469.06-2.203.372-4.392.928-6.525a5.19 5.19 0 0 0 .126-1.367v-.168.054c-.147-4.375-3.598-12.578-3.598-12.578l.462-15.637s2.204-9.222-1.39-21.594c-1.259-4.32-2.06-7.774-2.569-10.441a72.913 72.913 0 0 1-.163-.871c7.4-1.132 13.05-2.074 13.05-2.074s-4.294-18.006-7.19-21.152c-2.897-3.147-5.218-13.042-5.218-13.042s-1.511-12.709.928-16.407c2.438-3.697 2.779-10.126 2.779-10.126s5.566-4.047 6.263-5.847c.697-1.8 1.855-5.848 1.855-7.993 0-2.146-.697-4.051-.462-5.175.235-1.123-1.624-5.397-.696-7.425a5.48 5.48 0 0 0 .369-2.01v-.022a27.587 27.587 0 0 0-.491-5.28s-2.519-2.225-5.504-2.944l-.121-.484-.315-1.262a5.908 5.908 0 0 0-.55-.328v-.459l-.05-1.825.873-4.11c1.708-7.152-7.8-8.208-7.8-8.208a4.978 4.978 0 0 0-2.69-2.381c-1.915-.678-.32 10.744.574 11.472.676.551 2.754 4.131 3.753 5.89l.164.29a3.939 3.939 0 0 0-.42.458l.361 2.478.055.379c-.63.786-1.14 1.66-1.516 2.595 0 0 1.742 1.91 1.394 4.047-.348 2.138.533 4.8.575 4.948-.105-.118-1.326-1.447-2.548-1.123-1.221.323-4.618 1.35-4.618 1.35s-2.552.45-2.317 1.014c.235.564-1.742 3.037-1.742 3.037l-6.855-6.512a19.33 19.33 0 0 1-.197-.589 15.86 15.86 0 0 1-.596-2.852 15.604 15.604 0 0 0 2.19-.699 4.73 4.73 0 0 0 1.898-1.215c.689-.842.84-1.94 1.104-2.945.542-2.003 1.709-3.786 2.544-5.684a18.546 18.546 0 0 0 1.369-10.21 6.715 6.715 0 0 0-1.054-2.987c-1.117-1.544-3.148-2.17-4.618-3.403-1.469-1.233-2.426-3.109-4.147-4.034-1.553-.842-3.45-.737-5.201-.45a27.97 27.97 0 0 0-9.718 3.542c-1 .593-2.099 1.262-3.25 1.068-.982-.177-1.704-.967-2.337-1.72a.843.843 0 0 1 .029-.097l-.076-.089a12.142 12.142 0 0 0-1.066 5.141c0 .274 0 .547.034.842v.29c.006.078.006.157 0 .235 0 .123-.017.245-.05.362a2.684 2.684 0 0 1-.643.93c-.21.236-.396.49-.558.761.03-.092.059-.185.092-.277a4.066 4.066 0 0 0-.71 2.162 2.165 2.165 0 0 0 .517 1.552 7.27 7.27 0 0 0 1.117.9 13.119 13.119 0 0 0 6.254 13.623c.08.193.156.39.236.589.873 2.313 1.532 5.006 1.259 7.492-.025.185-.05.366-.084.547a3.89 3.89 0 0 0-.248.286s-11.334.11-13.983-2.31c-2.649-2.419-6.716 5.89-6.716 5.89s-4.06.79-4.87 0c-.81-.79-5.566-.11-5.566-.11s-2.9-2.814-7.074-2.587a20.939 20.939 0 0 0-5.192-2.894l-.13-.046a5.865 5.865 0 0 0-2.553-.324s-5.566-4.628-7.186-7.085c-1.62-2.456-9.357-11.653-9.391-11.695l-.03-.42-.088-1.338c-.229.036-.46.056-.692.059l-.155-.463a25.194 25.194 0 0 0-1.646-3.786s0-1.683.491-2.104c.491-.42-.201-6.609-.201-6.609s-5.017-11.754-9.508-2.978c0 0-8.493 5.675-1.365 12.284 0 0 2.842 1.384 3.245 2.478.265.71 1.23 2.692 1.88 4.013.11.219.206.42.29.59l-.08.066.106 1.103.042.42c-1.344.766-2.255 1.52-2.032 2.104.397.974.669 1.995.81 3.037 0 0 9.857 12.373 11.133 17.67 0 0 26.446 15.745 35.136 16.873l-1.507 7.87s-.466 4.725-.349 6.412c.118 1.687-1.045 9.34-1.045 9.34s-1.507 11.244-2.783 12.818c-1.276 1.573-1.041 8.325-1.041 8.325a56.928 56.928 0 0 1-1.742 9.562c-1.26 4.275-.345 9.558-.345 9.558s-4.407 10.126 6.146 3.265c0 0 5.18-.324 11.145-.526v.593c0 .77-.025 1.603-.033 2.482-.08 5.797-.114 13.786.147 19.832.461 10.685 3.71 31.833 3.71 31.833v10.622a14.38 14.38 0 0 0-.306 3.038 19.805 19.805 0 0 0 2.859 10.635l.718 7.013s1.905 4.67 1.943 7.458a4.09 4.09 0 0 1-.084.678 4.899 4.899 0 0 0-.092 1.085c-.11 3.218 1.826 10.913 1.826 10.913s.118 7.761 1.26 8.211c.99.383-1.323 4.472-2.016 5.646 0-.076-.029-.147-.042-.223-.088.152-.142.236-.142.236a5.517 5.517 0 0 0-.361 1.96 2.825 2.825 0 0 0 1.284 2.73c2.204 1.35 3.388 2.474 1.52 2.945a20.35 20.35 0 0 0-2.045.42 10.41 10.41 0 0 1-.096-.26 1.263 1.263 0 0 0-.764 1.359c-.05.568.138 1.397.693 2.633 1.855 4.161 3.14 5.739 3.14 5.739l.89-.101c-.136.338-.31.66-.517.959-.339.488-.79.887-1.314 1.165a3.949 3.949 0 0 1-1.582.543 4.484 4.484 0 0 0-3.287 1.603c-1.155 1.497-1.88 3.542.42 5.334l8.294 2.869s14.273 1.855 13.505-1.35a88.176 88.176 0 0 1-1.213-6.016s.16-3.13-1.159-5.688a6.806 6.806 0 0 0-.504-.841l.504-.06s1.041-7.084 2.435-8.413c.319-.311.39-.551.315-.732.147-.387-.219-.614-.685-.74l-.1.277c-.455-.1-.92-.151-1.386-.155 0 0-.466-3.71 1.042-5.049.248-.31.354-.71.293-1.102a5.97 5.97 0 0 0-.155-1.51c0 .025-.034.059-.055.084-.76-3.365-3.328-8.72-3.328-8.72s-.118-3.366.81-4.72c.927-1.356-.114-18.339-.114-18.339s.349-8.207-.696-12.031c-1.046-3.824 1.259-8.326 1.259-8.326s0-.088-.025-.244l.03-.059s-.051-.504-.135-1.291a.565.565 0 0 0-.03.076c-.23-2.171-.675-6.109-.999-7.93-.466-2.588.114-14.96.114-14.96l2.099-5.284 3.71 9.108 3.946 12.15s1.952 2.566 1.999 5.166c0 .126 0 .252-.026.378-.031.27-.047.54-.046.812a7.23 7.23 0 0 0 1.2 4.329s1.046 5.734 2.67 7.198c1.625 1.464 1.621 4.274 1.621 4.274s1.973 8.321 2.9 9.785c.782 1.233.84 4.628.815 5.659v.302s.273 2.975.265 5.47c0 .306 0 .605-.03.887v-.063a8.987 8.987 0 0 1-.24 2.023.898.898 0 0 0-.033.114c0-.139 0-.282.034-.42a21.381 21.381 0 0 0-.58 5.186c-.054 2.991.42 6.538 2.209 8.616 3.131 3.601 5.104 3.151 5.104 3.151s-1.511 4.497-3.358 5.397c-.07.036-.136.078-.197.127 0-.089-.034-.173-.046-.261-.387.336-.542.942-.542 1.683-.134 1.977 1.108 5.19 2.296 6.667.439.431.976.746 1.566.918a3.433 3.433 0 0 1-.294.18c-.206.113-.42.213-.638.3a3.05 3.05 0 0 1-.944.247 4.438 4.438 0 0 0-3.296 1.582c-1.154 1.494-1.88 3.538.42 5.33l8.295 2.87s14.247 1.85 13.488-1.355z"/>
        <path fill="#2D293D" fill-rule="nonzero" d="M242.66 354.474l-8.182-2.814c-2.26-1.759-1.541-3.764-.398-5.234a4.426 4.426 0 0 1 3.239-1.572 3.918 3.918 0 0 0 1.562-.533 3.662 3.662 0 0 0 1.284-1.143 5.67 5.67 0 0 0 .932-3.05s8.987-2.538 11.443 0c.439.459.805.978 1.087 1.54 1.284 2.509 1.147 5.58 1.147 5.58s.457 2.753 1.198 5.902c.74 3.149-13.313 1.324-13.313 1.324zM281.652 350.476l-8.178-2.815c-2.254-1.758-1.536-3.764-.398-5.23a4.401 4.401 0 0 1 3.238-1.572c.324-.03.64-.113.937-.244.215-.085.425-.183.628-.293 2.289-1.214 2.229-4.194 2.229-4.194s8.982-2.538 11.437 0c.329.343.616.721.856 1.127 1.54 2.568 1.369 5.993 1.369 5.993s.457 2.758 1.201 5.903c.745 3.145-13.32 1.325-13.32 1.325z"/>
        <path fill="#000" fill-rule="nonzero" d="M251.95 340.08c.424.44.778.938 1.05 1.476L240 343c.578-.876.89-1.888.9-2.923 0 0 8.679-2.425 11.05.004zM292 337.247v2.422c-2.07 3.315-12.091 2.59-15 .925.214-.084.421-.182.622-.292 2.265-1.209 2.206-4.178 2.206-4.178s8.89-2.53 11.321 0c.327.342.612.718.851 1.123z" opacity=".1"/>
        <path fill="#575988" fill-rule="nonzero" d="M293.499 326.307a22.216 22.216 0 0 0-1.58 3.361v8.883c-2.26 3.705-14.004 2.47-15.584.45-1.58-2.022-3.273-7.303-1.47-8.202 1.804-.9 3.27-5.391 3.27-5.391s-1.922.45-4.972-3.147c-3.049-3.596-2.145-11.571-1.575-13.479.57-1.907 0-8.314 0-8.314s.114-4.492-.79-5.954c-.903-1.462-2.8-9.773-2.8-9.773s0-2.807-1.583-4.269c-1.584-1.462-2.598-7.189-2.598-7.189a7.348 7.348 0 0 1-1.127-4.827c.337-2.811-1.922-5.844-1.922-5.844l-3.84-12.13-3.61-9.101-2.031 5.281s-.566 12.357-.115 14.941c.452 2.584 1.128 9.437 1.128 9.437s-2.255 4.491-1.242 8.31c1.014 3.82.68 12.021.68 12.021s1.014 16.962.11 18.31c-.904 1.35-.79 4.719-.79 4.719s4.646 9.882 3.164 11.23c-1.483 1.35-1.018 5.043-1.018 5.043s3.163 0 1.807 1.348c-1.355 1.349-2.373 8.403-2.373 8.403L238.988 342s-1.267-1.576-3.058-5.73c-1.79-4.156.338-3.707 2.154-4.156 1.816-.45.668-1.572-1.478-2.941-2.145-1.37-.904-4.383-.904-4.383s3.273-5.504 2.146-5.953c-1.128-.45-1.242-8.202-1.242-8.202s-2.26-9.21-1.69-11.68c.571-2.47-1.828-8.386-1.828-8.386l-.79-7.08c-4.067-6.962-2.483-13.365-2.483-13.365v-10.882s-3.163-21.117-3.615-31.79c-.287-6.835-.207-16.163-.114-21.982.055-3.264.114-5.428.114-5.428L274.98 195s-.051 2.24.886 7.21c.494 2.664 1.267 6.113 2.5 10.428 3.502 12.357 1.356 21.567 1.356 21.567l-.452 15.609s4.291 10.449 3.38 14.041a29.724 29.724 0 0 0-.905 6.517s9.608 22.797 8.59 29.44c-1.017 6.643 3.164 17.075 3.164 17.075s1.127 7.395 0 9.42z"/>
        <path fill="#000" fill-rule="nonzero" d="M266 267.767L281 266s-8.498 7.671-15 1.767z" opacity=".05"/>
        <path fill="#000" fill-rule="nonzero" d="M279.011 251s.563 5.085-3.011 7c0 0 6.397-.876 3.011-7zM277 235s-12.022 9.76-16.395 8.953C256.232 243.146 277 235 277 235zM248 273s-9.698 2.21-9.994 6.1c-.295 3.892 9.994-6.1 9.994-6.1z" opacity=".1"/>
        <path fill="#000" fill-rule="nonzero" d="M248.849 319s-12.845 2.41-9.197 4.05c3.648 1.64 9.632 2.95 9.632 2.95s4.136.22-.435-7z" opacity=".05"/>
        <path fill="#000" fill-rule="nonzero" d="M237.703 326.914A2.605 2.605 0 0 1 236.49 325l-.135.235s-1.234 3.024.898 4.368l.693.453c.39-.071.814-.126 1.226-.23 1.805-.449.663-1.567-1.47-2.912zM254.625 325.3c.361-.335.349-1.194.126-2.3-.596.867-.738 2.216-.751 3.242.139-.355.352-.676.625-.942zM251.894 270a14.986 14.986 0 0 0-.894 4.118c.253-.973.596-1.92 1.024-2.828 0 0-.05-.507-.13-1.29zM282.29 264.223c.11-.4.158-.812.145-1.223a28.41 28.41 0 0 0-.435 2.291c.085-.347.18-.703.29-1.068zM252.31 309.488c.185-.276.286-1.198.336-2.488-.42.817-.591 2.136-.646 3.142a3.05 3.05 0 0 1 .31-.654zM254.287 331c-.924 2.513-1.55 6.878-1.55 6.878l-13.57 1.567s-1.26-1.567-3.039-5.71a13.957 13.957 0 0 1-.382-.988c-.814.373-1.133 1.214-.067 3.673 1.796 4.143 3.039 5.714 3.039 5.714l13.57-1.58s1.012-7.053 2.36-8.377c.663-.67.239-1.01-.361-1.177zM236.55 310.35s.113 7.728 1.234 8.176c.566-1.278.944-2.513.42-2.693-1.121-.444-1.235-8.173-1.235-8.173s-2.245-9.186-1.679-11.649c.567-2.463-1.796-8.398-1.796-8.398l-.785-7.054c-4.042-6.945-2.468-13.329-2.468-13.329v-10.857s-3.144-21.057-3.593-31.697c-.286-6.81-.206-16.11-.114-21.911 0-1.052.038-1.982.055-2.765l-.39.038s-.06 2.157-.114 5.412c-.092 5.801-.172 15.08.114 21.915.449 10.64 3.593 31.693 3.593 31.693v10.865s-1.574 6.384 2.468 13.325l.785 7.058s2.355 5.936 1.796 8.378c-.558 2.442 1.709 11.665 1.709 11.665zM276.681 336.32a13.037 13.037 0 0 1-2.149-5.32c-1.385 1.257.206 6.095 1.679 8.009 1.57 2.015 13.243 3.246 15.489-.448v-2.132c-3.014 3.003-13.533 1.797-15.019-.11zM293.574 323.096a21.991 21.991 0 0 0-1.574 3.351v1.571c.256-.574.621-1.34 1.125-2.24.323-.583.457-1.61.491-2.778l-.042.096zM277.424 325.546c.43-.86.8-1.75 1.108-2.66 0 0-1.91.448-4.94-3.133-2.204-2.61-2.33-7.54-2.015-10.753-.567 1.906-1.46 9.856 1.565 13.438 1.99 2.345 3.48 2.961 4.282 3.108zM271.833 300.592c.198 2.207.272 4.424.223 6.64a9.52 9.52 0 0 1 .23-1.04c.567-1.901 0-8.285 0-8.285s.114-4.482-.784-5.936c-.899-1.453-2.825-9.743-2.825-9.743s0-2.802-1.57-4.255c-1.57-1.454-2.582-7.168-2.582-7.168a7.36 7.36 0 0 1-1.12-4.817c.335-2.798-1.91-5.822-1.91-5.822l-3.816-12.097L254.09 239l-2.023 5.261s-.03.662-.067 1.7l1.641-4.276 3.59 9.073 3.815 12.093s2.245 3.024 1.91 5.827a7.343 7.343 0 0 0 1.12 4.813s1.012 5.713 2.582 7.167c1.57 1.453 1.599 4.255 1.599 4.255s1.91 8.29 2.808 9.743c.898 1.454.768 5.936.768 5.936z"/>
        <path fill="#FFCDD3" fill-rule="nonzero" d="M280.807 93.408l-.821 4.025.05 1.79.032 1.323-4.6.454-.514-.953c-.949-1.723-2.916-5.233-3.557-5.773-.846-.717-2.358-11.91-.542-11.246a4.808 4.808 0 0 1 2.55 2.318s9.012 1.052 7.402 8.062z"/>
        <path fill="#000" fill-rule="nonzero" d="M280 100.596l-4.496.404-.504-.812c.645-.58 2.486-1.898 4.964-.703l.036 1.11z" opacity=".1"/>
        <path fill="#DCE6F2" fill-rule="nonzero" d="M282 102.582L275.503 104l-.137-.902-.366-2.414s2.563-3.18 6.281-.8l.322 1.23.397 1.468z"/>
        <path fill="#FFCDD3" fill-rule="nonzero" d="M182 93.494L175.372 97s-.254-.515-.6-1.246c-.634-1.3-1.573-3.262-1.83-3.964-.394-1.08-3.166-2.443-3.166-2.443-6.945-6.527 1.331-12.135 1.331-12.135 4.38-8.663 9.266 2.941 9.266 2.941s.676 6.116.198 6.527c-.477.411-.477 2.077-.477 2.077a24.984 24.984 0 0 1 1.597 3.74c.2.623.309.997.309.997z"/>
        <path fill="#000" fill-rule="nonzero" d="M181 94.142L174.581 98s-.245-.567-.581-1.371c.905-.846 4.122-3.757 5.178-3.625.505.07 1.016.084 1.523.042.193.685.299 1.096.299 1.096z" opacity=".1"/>
        <path fill="#DCE6F2" fill-rule="nonzero" d="M182 95.494L174.28 99l-.153-1.531-.127-1.072s4.47-3.53 5.791-3.393a7.5 7.5 0 0 0 2.017 0l.087 1.281.105 1.21z"/>
        <path fill="#FFCDD3" fill-rule="nonzero" d="M263 120.766s-32.282 3.6-26.249 1.66c4.196-1.353 5.874-3.995 6.219-6.924.285-2.451-.353-5.102-1.2-7.384a31.622 31.622 0 0 0-2.887-5.765s24.68-13.424 19.72-1.245a19.4 19.4 0 0 0-1.397 5.783 16.073 16.073 0 0 0 .633 5.853 17.4 17.4 0 0 0 5.161 8.022z"/>
        <path fill="#000" fill-rule="nonzero" d="M258.36 101.178a20.11 20.11 0 0 0-1.37 5.845c-2.28 1.95-4.782 1.824-7.991 1.824-2.47 0-5.197.609-7.168-.603a32.366 32.366 0 0 0-2.831-5.83s24.202-13.569 19.36-1.236z" opacity=".1"/>
        <circle cx="248.5" cy="96.5" r="13.5" fill="#FFCDD3" fill-rule="nonzero"/>
        <path fill="#000" fill-rule="nonzero" d="M263 120.693s-32.282 3.719-26.249 1.714c4.196-1.397 5.874-4.126 6.219-7.15 1.606-1.774 4.837-3.06 6.91-3.74a9.49 9.49 0 0 1 5.874-.099c.753.23 1.47.57 2.127 1.011a18.045 18.045 0 0 0 5.119 8.264zM281 102.614L275.124 104l-.124-.881c1.656-2.123 3.742-2.38 5.641-1.935l.359 1.43zM183 96.276L175.156 100 175 98.373c2.804-1.592 7.502-3.232 7.911-3.373l.089 1.276zM276 202.162c-12.641 1.963-30.631 4.525-33.486 3.668-2.367-.71-9.93-.635-16.514-.418.055-3.246.115-5.398.115-5.398L275.109 195s-.05 2.219.891 7.162z" opacity=".1"/>
        <path fill="#656691" fill-rule="nonzero" d="M289 198.801s-41.281 7.058-45.716 5.713c-4.434-1.344-27.174.113-27.174.113-10.236 6.828-5.961-3.25-5.961-3.25s-.9-5.26.336-9.516a57.987 57.987 0 0 0 1.683-9.521s-.223-6.702 1.014-8.285c1.237-1.583 2.697-12.767 2.697-12.767s1.127-7.615 1.014-9.294c-.114-1.68.336-6.384.336-6.384l1.469-7.824c-8.415-1.118-34.079-16.796-34.079-16.796-1.237-5.265-10.8-17.592-10.8-17.592a12.938 12.938 0 0 0-.786-3.024c-.678-1.793 9.449-5.374 9.449-5.374s7.535 9.181 9.109 11.644c1.573 2.463 6.975 7.058 6.975 7.058a5.433 5.433 0 0 1 2.474.322c.046 0 .084.026.13.038.047.013 0 0 0 0 2.525.876 5.049 2.878 5.049 2.878 4.052-.222 6.862 2.576 6.862 2.576s4.628-.67 5.398.113c.77.783 4.724 0 4.724 0s3.938-8.29 6.526-5.864c2.587 2.425 13.564 2.295 13.564 2.295 1.464-1.935 5.023-3.321 7.249-4.038a9.747 9.747 0 0 1 5.89-.096c.83.235 1.613.612 2.314 1.114l6.66 6.492s1.914-2.462 1.683-3.024c-.232-.561 2.25-1.005 2.25-1.005s3.261-1.01 4.498-1.345c1.237-.335 2.373.997 2.474 1.115-.042-.143-.888-2.853-.56-4.922.329-2.07-1.35-4.033-1.35-4.033 3.938-9.634 12.824-1.567 12.824-1.567s1.013 5.265.113 7.28c-.9 2.014.9 6.283.673 7.388-.227 1.106.45 3.024.45 5.152s-1.123 6.162-1.8 7.959c-.678 1.796-6.096 5.8-6.096 5.8s-.341 6.384-2.701 10.078c-2.36 3.695-.9 16.336-.9 16.336s2.25 9.855 5.048 12.984c2.798 3.13 6.988 21.073 6.988 21.073z"/>
        <path fill="#000" fill-rule="nonzero" d="M228.697 125s-1.253-3.767-2.39-4.113a26.533 26.533 0 0 1-3.307-1.482l.733-1.405s4.282 1.174 4.964 2.43c.682 1.256 0 4.57 0 4.57zM206 116.894c-.218 1.111-10 2.106-10 2.106l4.932-5 .123.041c2.5.871 4.945 2.853 4.945 2.853z" opacity=".1"/>
        <circle cx="177" cy="102" r="1" fill="#575988" fill-rule="nonzero"/>
        <circle cx="178" cy="104" r="1" fill="#575988" fill-rule="nonzero"/>
        <circle cx="179" cy="105" r="1" fill="#575988" fill-rule="nonzero"/>
        <circle cx="180" cy="107" r="1" fill="#575988" fill-rule="nonzero"/>
        <circle cx="285.5" cy="106.5" r="1" fill="#575988" fill-rule="nonzero"/>
        <circle cx="286.5" cy="108.5" r="1" fill="#575988" fill-rule="nonzero"/>
        <circle cx="286.5" cy="109.5" r="1" fill="#575988" fill-rule="nonzero"/>
        <path fill="#000" fill-rule="nonzero" d="M228 156c-.1-.129 25.279 31.648 45 13.286 0-.009-31.143 4.187-45-13.286zM214 172s15.387.434 17 4.934v4.686a2.887 2.887 0 0 1-2.863 0c-1.553-.869-10.856-5.646-14.137-3.349V172z" opacity=".1"/>
        <path fill="#656691" fill-rule="nonzero" d="M214 172s14.484.385 16 4.44v4.217a2.822 2.822 0 0 1-2.696 0c-1.457-.766-10.217-5.095-13.304-3.013V172z"/>
        <path fill="#000" fill-rule="nonzero" d="M222 139s1.726 4.47 5.851 10.102A39.476 39.476 0 0 0 237 158s-14.75-16.912-15-19zM217 122s2.51 11.207 9 15l-9-15zM213.235 123.004c-.066-.21-2.34 8.936 8.765 13.996-.004 0-4.72-1.588-8.765-13.996zM280.004 116.007c-.175 0 5.466 3.416 6.996 4.993 0 .012-3.682-5.218-6.996-4.993z" opacity=".1"/>
        <path fill="#2D293D" fill-rule="nonzero" d="M244.994 107.776c.187.68.415 1.428 1.029 1.785.388.186.813.281 1.244.278 4.022.249 8.206.415 11.93-1.125a4.503 4.503 0 0 0 1.811-1.203c.66-.81.788-1.91 1.054-2.905.522-1.971 1.633-3.735 2.438-5.607a18.849 18.849 0 0 0 1.306-10.067 6.821 6.821 0 0 0-1.008-2.95c-1.07-1.523-3.01-2.142-4.424-3.353-1.414-1.212-2.318-3.067-3.964-3.98-1.485-.83-3.317-.726-4.976-.444a26.219 26.219 0 0 0-9.288 3.49c-.954.59-2.003 1.266-3.106 1.058-.962-.182-1.659-.992-2.28-1.75a12.279 12.279 0 0 0-.992 5.75c.042.29.033.583-.029.868a2.573 2.573 0 0 1-.614.913c-.99 1.153-1.613 2.98-.63 4.15.415.506 1.082.784 1.497 1.298.746.93.494 2.262.477 3.449-.044.412.058.827.29 1.17.373.452 1.053.49 1.63.39.576-.1 1.165-.294 1.733-.166.62.207 1.151.616 1.51 1.162 1.857 2.345 2.583 4.963 3.362 7.79z"/>
        <path fill="#000" fill-rule="nonzero" d="M262.234 107.818c-.51.553-1.15.974-1.864 1.226-3.838 1.58-8.132 1.398-12.27 1.14a2.858 2.858 0 0 1-1.279-.278c-.627-.368-.853-1.124-1.057-1.817-.802-2.899-1.548-5.544-3.459-7.952a2.982 2.982 0 0 0-1.552-1.183c-.585-.131-1.19.067-1.783.169-.593.1-1.28.063-1.676-.398a1.775 1.775 0 0 1-.299-1.191c0-1.209.273-2.57-.49-3.511-.426-.529-1.1-.808-1.544-1.323-.631-.748-.614-1.758-.26-2.7-.725 1.14-1.04 2.607-.192 3.6.427.52 1.113.799 1.54 1.327.763.942.507 2.303.49 3.511-.045.42.06.842.299 1.192.383.46 1.083.498 1.676.397.592-.102 1.198-.3 1.782-.17.637.21 1.184.628 1.553 1.184 1.91 2.408 2.657 5.07 3.458 7.952.192.689.427 1.45 1.058 1.817.399.19.837.286 1.28.279 4.136.257 8.44.422 12.269-1.141a4.635 4.635 0 0 0 1.864-1.225c.258-.327.457-.696.588-1.09a2.929 2.929 0 0 1-.132.185zM236.03 87.515c.19-.194.335-.426.427-.68.063-.29.073-.59.03-.883-.113-1.647.103-3.3.635-4.863L237.05 81a12.384 12.384 0 0 0-1.02 5.856c.022.22.022.44 0 .66z"/>
        <path fill="#000" fill-rule="nonzero" d="M243 116.246s16.517 1.85 18-.246M275 109s9.016 0 11 3" opacity=".1"/>
    </g>
</svg>
