<svg xmlns="http://www.w3.org/2000/svg" width="472" height="359" viewBox="0 0 472 359">
    <defs>
        <linearGradient id="a" x1="50.005%" x2="50.005%" y1="100.006%" y2="0%">
            <stop offset="0%" stop-color="gray" stop-opacity=".25"/>
            <stop offset="54%" stop-color="gray" stop-opacity=".12"/>
            <stop offset="100%" stop-color="gray" stop-opacity=".1"/>
        </linearGradient>
    </defs>
    <g fill="none" fill-rule="evenodd">
        <path fill="#6C63FF" fill-rule="nonzero" d="M111.875 299.436c-3.972-.4-8.122-.828-11.883.219-3.762 1.047-6.879 4.105-5.762 7.027 2.495 6.516 17.14 1.978 23.892 6.432 2.411 1.592 3.35 4.095 5.234 6.05 3.047 3.174 8.285 4.654 13.34 5.468 30.374 4.892 65-7.697 91.622 4.426 8.621 3.928 15.42 10.178 24.873 12.799 12.523 3.471 26.238-.238 39.196-2.616a192.486 192.486 0 0 1 49.014-2.56c12.116.931 28.233 1.243 32.111-7.52 2.496-5.636-2.785-11.91-9.794-14.576-7.01-2.667-15.215-2.583-23.042-2.327-15.107.54-30.219 1.629-45.326 1.098-29.215-1.033-56.813-12.566-85.261-12.947-33.13-.4-64.93 2.369-98.214-.973zM80.94 153.046c-4.656 4.637-4.94 11.747-4.94 11.747s7.212-.403 11.849-5.046C92.486 155.105 92.793 148 92.793 148s-7.216.417-11.853 5.046zM99.476 35.64c1.704 6.326 7.956 10.26 7.956 10.26s3.49-6.318 1.786-12.644C107.514 26.929 101.262 23 101.262 23s-3.51 6.317-1.786 12.64zM372.944 53.049C368.29 57.685 368 64.793 368 64.793s7.216-.403 11.853-5.044c4.638-4.641 4.94-11.749 4.94-11.749s-7.212.436-11.849 5.049zM231.047 119.434c-.55 6.535 3.916 12.23 3.916 12.23s5.364-4.905 5.913-11.444c.55-6.54-3.915-12.22-3.915-12.22s-5.365 4.894-5.914 11.434zM384.047 212.436c-.55 6.534 3.916 12.227 3.916 12.227s5.364-4.903 5.913-11.436c.55-6.534-3.915-12.227-3.915-12.227s-5.365 4.903-5.914 11.436z" opacity=".1"/>
        <path fill="#6C63FF" fill-rule="nonzero" d="M274.083 45.053c-30.242-.911-59.045-9.348-86.55-18.604-27.503-9.255-54.745-19.487-84.263-24.386-18.985-3.15-40.7-3.595-55.994 5.217-14.724 8.474-19.48 23.11-22.037 36.689-1.925 10.213-3.055 20.965 2.215 30.528 3.664 6.643 10.159 12.224 14.654 18.581 15.64 22.133 4.584 49.422-12.36 71.05-7.943 10.14-17.172 19.806-23.307 30.6-6.135 10.793-8.972 23.152-3.603 34.155 5.318 10.91 17.995 19.105 31.728 24.868 27.892 11.686 60.746 15.056 92.806 16.954 70.947 4.207 142.267 2.384 213.4.561 26.327-.673 52.765-1.356 78.662-4.88 14.382-1.954 29.228-5.058 39.671-12.555 13.252-9.518 16.537-25.63 7.654-37.564-14.896-20.011-56.073-24.985-66.498-46.463-5.729-11.822.154-24.99 8.486-35.956 17.869-23.521 47.816-44.159 49.391-71.05 1.084-18.464-13.313-36.956-35.574-45.693-23.33-9.162-55.69-8.007-72.895 7.152-17.733 15.59-48.881 21.596-75.586 20.796z" opacity=".1"/>
        <path fill="url(#a)" fill-rule="nonzero" d="M373.14 132.826a4.203 4.203 0 0 0-2.865 2.529l-.467-.075-1.74-.28s-9.223-.762-10.945-.646c-1.722.117-2.8-1.584-2.8-1.584l-6.857-5.811-.532-.468a24.65 24.65 0 0 1 1.204-.425s-18.397-22.907-22.364-23.351c-3.967-.445-10.525-5.793-10.59-5.844l-.07-.365a27.882 27.882 0 0 1-.331-2.337l.975.598c0-.271 0-.542.028-.813a14.807 14.807 0 0 1 2.744-7.854c1.918-2.665 4.756-4.76 5.89-7.83.452-1.322.656-2.715.602-4.11a13.715 13.715 0 0 0-1.913-7.148 8.914 8.914 0 0 0-6.02-4.16c-.654-.103-1.322-.117-1.966-.267-3.831-.902-5.24-6.05-8.965-7.312-1.736-.589-3.669-.2-5.344.529-1.676.729-3.192 1.776-4.83 2.585-1.639.809-3.496 1.402-4.985 2.548a5.209 5.209 0 0 0-.467.402l-.294.285a10.582 10.582 0 0 0-1.591 2.08l-.07.117c-.047.08-.089.164-.13.248-.043.084-.07.13-.099.196-.028.066-.075.15-.107.225l-.098.224-.084.215c-.028.08-.061.159-.084.243-.024.084-.047.136-.066.206l-.07.248-.042.2c0 .085-.032.174-.046.258-.014.084 0 .126 0 .187v.864c.018.138.046.274.084.407.252.86 1.12 1.74 1.783 2.506-.075.07-.15.136-.225.21a16.31 16.31 0 0 0-4.98 11.74c.001.973.09 1.945.267 2.902a15.546 15.546 0 0 0-2.721-1.65 23.718 23.718 0 0 0-10.123-2.337c-5.717-.066-13.75-2.216-13.75-2.216.206.392.362.808.467 1.239-.35-.201-.728-.416-1.143-.64a33.48 33.48 0 0 0-10.735-3.6s-2.38.331-2.697-4.676a21.26 21.26 0 0 0-.84-4.614 78.757 78.757 0 0 1-2.829-14.024l-.798-7.35s3.594-19.167 1.433-27.338c.696-2.562.304-4.91-1.988-6.597-9.04-6.666-18.16 19.28-18.16 19.28l-3.388 3.295a7.264 7.264 0 0 0-2.875-1.098s-1.825 1.87-3.094 6.975c-.672 2.707-5.265 7.227-9.419 10.87-2.95 2.584-5.796 5.272-8.638 7.97-2.1 2-6.782 4.862-16.993 6.48-1.601.252-3.057.49-4.387.71.34-1.208.512-2.457.513-3.712-.033-6.506-4.56-12.122-10.902-13.525.046-.327.046-.659 0-.986a4.088 4.088 0 0 0-1.032-1.87c-2.151-2.665-4.485-5.404-7.687-6.666a9.996 9.996 0 0 0-4.149-.669h-1.138a10.626 10.626 0 0 0-7.776 4.058c-1.148 1.538-1.839 3.361-2.828 5.002-1.839 3.039-4.667 5.38-7.734 7.232-1.843 1.117-3.78 2.08-5.52 3.347-6.315 4.596-9.228 13.09-7.64 20.682.7 3.334 2.179 6.615 1.782 9.995-.313 2.623-1.722 4.98-3.16 7.204-1.437 2.226-2.959 4.488-3.528 7.064-.57 2.576.028 5.61 2.184 7.172.794.57 1.755.935 2.432 1.626.45.534.827 1.125 1.12 1.758a17.469 17.469 0 0 0 10.86 8.452 7.921 7.921 0 0 0 2.222.244H130.245c1.713.107 3.468-.351 4.042-1.87a4.25 4.25 0 0 1 .387-.991c.161-.234.402-.4.677-.468a6.21 6.21 0 0 1 1.582.598 20.1 20.1 0 0 0 7.691 2.202c.449.036.9.044 1.349.024a5.955 5.955 0 0 0 2.749-.393 5.893 5.893 0 0 0 2.114-1.814c.122-.154.234-.318.35-.467a38.712 38.712 0 0 1-3.444 10.752s-2.8 4.675-2.6 9.387a9.443 9.443 0 0 0 1.05 4.956s.08-.206.243-.529c.803 1.347 3.435 5.652 5.162 7.162.084 4.446.065 10.014-.49 11.16-.934 1.958-3.883 15.894 8.802 25.398l2.926 6.42-12.046.855c-1.218-.169-16.97-2.291-17.048.799-.08 3.212 2.38 34.487 10.547 32.37 7.612-1.974 5.101-11.094 4.723-12.32l.271-.074-.299-.084 6.09-5.783a2.706 2.706 0 0 0-.466-2.006l.06-.032 14.712.659 3.458 7.526s5.867 8.939 1.11 16.46c-4.755 7.523-9.674 19.285-10.468 26.419-.648 5.834-4.96 11.566-6.506 13.454-2.758.935-13.338 5.096-9.114 11.393 4.835 7.209 20.535 20.93 26.882 20.458 6.347-.472 3.804-5.096 3.804-5.096l-5.307-5.152s-.933-10.976-.555-14.188c.205-1.67-1.022-2.87-2.334-3.38.5-3.576 1.765-10.355 4.48-14.1 3.805-5.254 16.018-28.377 16.018-28.377s3.883-3.45 3.01-13.716c-.35-4.142-.545-7.779-.657-10.654l13.824.622s14.827-1.492 4.755-17.405c-10.071-15.913-31.48-31.509-31.48-31.509l-.19-9.85c.97.243 1.54.365 1.54.365s-.085-.356-.225-.992l.224.052s-3.094-13.413-4.046-24.076l.873.402c9.199 10.664 15.401 1.65 15.401 1.65s19.43-27.357 17.525-26.105a1.65 1.65 0 0 1-1.278.08l1.4-4.47s5.736-8.779-2.59-13.716c-6.796-4.03-6.619 8.602-6.325 13.375l-.336-.285s-6.5 9.818-9.992 15.287c-3.49 5.47-6.422 1.87-6.422 1.87l-4.41-4.979a17.515 17.515 0 0 0 1.05-6.227 10.59 10.59 0 0 0-2.982-8.078c-3.365-3.436-4.35-6.764-4.453-9.326a9.887 9.887 0 0 1 .882-3.843l22.92-12.155s4.836.075 11.337-9.958a172.207 172.207 0 0 1 13.88-18.34s-.135-.196-.369-.518c.234-.276.369-.426.369-.426s-.266-.388-.719-.986l3.533-4.081a52.447 52.447 0 0 0-.042 5.54l1.83 6.194 1.026 34.487s-1.11 3.272 6.03 6.587c6.04 2.805 15.607 7.48 18.398 8.859-.103.252-.163.388-.163.388l.83-.056.122.056c13.95-1.253 13.474 12.697 13.474 12.697s.933 28.377-3.328 38.255c-4.26 9.878-3.65 22.103-3.65 22.103s.425-2.085 2.8.64c-.046.239-.097.496-.153.762-1.363 6.84-4.2 21.388-4.728 27.288a95.754 95.754 0 0 1-3.094 15.895l-1.4 26.1 8.918.435-.098.935a2.936 2.936 0 0 1-1.512 2.276c-3.052 1.66-10.267 7.48-9.689 25.441l-.308 2.89a36.34 36.34 0 0 1-4.354 13.935 14.21 14.21 0 0 0-.542 1.052.86.86 0 0 1 .243-.5s-4.634.963-3.682 13.506c.952 12.543 2.38 14.735 4.284 14.89 1.904.154 11.201 2.43 10.702-2.193-.5-4.623-.934-14.894-.317-16.46.616-1.566 3.145-5.793.746-6.812a35.886 35.886 0 0 0 1.004-8.789s4.667-7.367 8.004-10.112c3.337-2.744 5.134-7.405 6.342-13.403.084-.392 9.834-6.9 8.401-12.304a32.64 32.64 0 0 1-.574-2.51 44.28 44.28 0 0 1-.159-.935h.173l1.984-11.917v11.603l1.176.155-.042.935-.5 11.126c-.09 2.167-.564 4.3-1.4 6.302-2.1 4.979-5.974 16.063-4.919 28.05l-.112 10.686c-.336.066-5.18 1.211-4.261 13.324.933 12.538 2.376 14.735 4.28 14.89 1.904.154 11.2 2.43 10.706-2.193-.495-4.624-.933-14.894-.317-16.46.616-1.567 1.727-5.709-.672-6.728a8.97 8.97 0 0 1 .998-4.034c1.046-1.781 4.537-10.248 7.165-16.76a60.07 60.07 0 0 0 4.41-20.724v-.238c.07-2.4.585-4.767 1.517-6.98a45.063 45.063 0 0 0 2.539-7.671c.065-.314.116-.618.163-.935l2.278.303 7.775-33.706s2.128-18.27 1.087-26.52a16.11 16.11 0 0 0-.144-.96l.466.043s1.587-4.072 1.111-21.477c-.476-17.404 3.174-22.907 3.174-22.907 1.97-6.255 4.144-8.35 5.414-9.05.326-.21.7-.331 1.087-.356l5.885 6.746 1.083 1.244a.403.403 0 0 0 0-.075l.467.547a5.048 5.048 0 0 1-.037-.837c3.14 1.828 10.398 6.1 14.729 9.168 5.647 3.997 7.197 3.53 12.134 3.113 2.997-.248 7.048-1.93 9.764-3.212l.247-.116c.731.39 1.5.704 2.297.935 0 0 7.971 6.764 8.741-5.582.77-12.347-9.563-9.364-9.563-9.364zM166.387 276.608a11.517 11.517 0 0 1-2.334-.986l2.334.986zm-12.48-133.647l.028 1.753-.121.056c.037-.617.065-1.225.093-1.809zm124.677 156.48v.682a.5.5 0 0 1 0-.683z"/>
        <path fill="#FF7590" fill-rule="nonzero" d="M292 94h13.74v14.503H292z"/>
        <path fill="#8E5362" fill-rule="nonzero" d="M274.451 258.638c-1.196 5.934-2.97 10.547-6.253 13.265s-7.895 10.007-7.895 10.007c-.08 9.695-2.66 12.641-2.66 12.641l-2.66.698h-6.567s-1.173-3.258-1.407-5.194c-.08-.647.385-1.731 1.032-2.895a36.063 36.063 0 0 0 4.292-13.791l.305-2.862c-.553-17.766 6.568-23.533 9.556-25.176a2.903 2.903 0 0 0 1.487-2.253l.53-5.078 17.666.861s-.375 1.545.296 5.12c.136.74.319 1.564.563 2.48 1.407 5.349-8.21 11.786-8.285 12.177zM304.645 246.59a45.558 45.558 0 0 1-2.46 7.6 19.679 19.679 0 0 0-1.477 6.916v.238a60.7 60.7 0 0 1-4.278 20.534c-2.553 6.45-5.936 14.843-6.951 16.609-1.69 2.95-.693 7.922-.693 7.922l-9.784-.699.17-16.623c-1.02-11.87 2.737-22.836 4.773-27.79a18.362 18.362 0 0 0 1.384-6.24l.462-11.026.143-3.262s17.299-2.484 18.758 1.477c.401 1.049.304 2.61-.047 4.344z"/>
        <path fill="#000" fill-rule="nonzero" d="M282.32 244.107l-18.32-.922.525-5.185 17.502.88s-.385 1.572.293 5.227zM303.778 246.87L285 244.203l.142-3.401s17.225-2.59 18.677 1.54c.404 1.093.308 2.72-.041 4.528z" opacity=".1"/>
        <path fill="#BDD2E8" fill-rule="nonzero" d="M314.96 211.934l-7.591 33.399-22.466-3.03v-11.496l-1.943 11.813-26.96-1.323 1.395-25.864a96.144 96.144 0 0 0 3.02-15.765c.526-5.844 3.287-20.257 4.621-27.028.465-2.233.726-3.64.726-3.64s46.176 9.628 49.198 13.123c.516.596.855 1.864 1.064 3.546 1.014 8.165-1.064 26.265-1.064 26.265z"/>
        <path fill="#000" fill-rule="nonzero" d="M260 213.633s18.412-9.33 22.9-7.36l-22.9 7.36zM270 183s15.551 11.42 16.03 14.503L270 183zM266 223.028s10.994-.452 14.503 2.262L266 223.028zM286.693 210s5.403 17.142 3.062 21.83c-2.341 4.689-4.755-1.097-4.755-1.097L286.693 210z" opacity=".1"/>
        <path fill="#494457" fill-rule="nonzero" d="M279.306 300s-5.125.788-4.193 13.366c.932 12.579 2.33 14.787 4.193 14.943 1.864.155 10.949 2.439 10.483-2.204-.466-4.642-.932-14.937-.312-16.513.62-1.576 1.691-5.723-.657-6.747l-.508 2.425s-4.971-4.642-7.92-1.26a13.204 13.204 0 0 0-.61-2.42c-.294-.736-.937-1.118-.476-1.59z"/>
        <path fill="#8E5362" fill-rule="nonzero" d="M373.456 146.278s-1.18.655-2.912 1.473c-2.673 1.265-6.656 2.929-9.606 3.175-4.859.41-6.38.874-11.937-3.077-4.265-3.031-11.404-7.257-14.512-9.06l-1.353-.795-.136-.08v-.055l2.58-7.038 9.128-4.821 2.266 1.93 6.746 5.74s1.053 1.683 2.752 1.567c1.7-.116 10.767.637 10.767.637l1.714.279 3.61.595.893 9.53z"/>
        <path fill="#000" fill-rule="nonzero" d="M372.107 146.993s-1.137.648-2.807 1.457c-1.764-.919-3.957-2.642-3.114-5.477.763-2.55.97-4.54 1.598-5.973l3.479.588.844 9.405z" opacity=".1"/>
        <path fill="#8E5362" fill-rule="nonzero" d="M371.521 134.3s9.918-2.88 9.18 9.213c-.74 12.092-8.382 5.472-8.382 5.472s-6.498-1.727-5.13-6.279c1.368-4.55.972-7.31 4.332-8.406zM266.166 93.939l-10.531 4.43-.163.07-.116-.056-.656-.33c-2.723-1.36-12.084-6.009-17.972-8.769-6.972-3.258-5.89-6.516-5.89-6.516l-1.003-34.13-1.785-6.129s-1.26-20.777 8.831-25.985c10.09-5.208 3.565 30.095 3.565 30.095l.78 7.335a78.652 78.652 0 0 0 2.766 13.856c.436 1.488.71 3.018.818 4.565.311 4.962 2.635 4.631 2.635 4.631a32.322 32.322 0 0 1 10.476 3.566c1.212.64 2.37 1.374 3.467 2.196l4.778 11.17zM303.992 110.663L295 109.73s2.65-3.96 3.817-7.813a13.32 13.32 0 0 0 .396-1.611c.27-1.527.2-2.942-.493-3.965-2.632-3.89 15.655-9.34 15.655-9.34a45.061 45.061 0 0 0-.2 6.482c.052 1.505.207 3.004.465 4.488.553 3.021 1.655 5.866 3.757 7.323 5.742 3.97-14.405 5.37-14.405 5.37z"/>
        <path fill="#000" fill-rule="nonzero" d="M303.99 110.977l-8.99-.955s2.65-4.049 3.816-7.988c1.037 1.514 1.395 1.48 2.85 1.781 0 0 9.073 1.38 12.978-5.815.553 3.089 1.655 5.997 3.756 7.486 5.732 4.058-14.41 5.49-14.41 5.49zM334.46 138.905c-.011.279.001.558.036.835l-1.38-1.637-.116-.136 2.536-7.102 8.976-4.865 2.228 1.947c-3.19 1.243-12.138 5.188-12.28 10.958zM266.45 94.148l-10.374 4.354h-.275l-.801.055s.06-.133.156-.38c.865-2.1 4.88-12.348 3.145-17.177a25.815 25.815 0 0 1 3.415 2.159l4.734 10.989zM316.143 185.793c-4.112-.37-45.254-4.204-49.092-10.306A21.432 21.432 0 0 0 265 172.67c.466-2.25.727-3.669.727-3.669s46.318 9.705 49.348 13.228c.518.592.858 1.865 1.068 3.565z" opacity=".1"/>
        <path fill="#FF7590" fill-rule="nonzero" d="M302.113 103.81s9.22 1.363 13.118-5.794c0 0 6.51 5.34 10.403 5.798 3.893.458 21.965 23.184 21.965 23.184s-14.487 4.669-13.553 12.139l-6.856-7.937s-3.425-.159-6.384 9.337c0 0-3.584 5.444-3.117 22.717.468 17.274-1.089 21.322-1.089 21.322s-45.49-3.89-49.538-10.271c-4.047-6.382-4.673-3.268-4.673-3.268s-.627-12.138 3.58-21.942c4.206-9.804 3.27-37.97 3.27-37.97S269.708 97.274 256 98.52c0 0 5.762-13.385 3.117-18.52 0 0 7.884 2.138 13.502 2.204 3.448.026 6.846.824 9.945 2.334 1.687.826 3.243 1.867 4.126 3.11 2.646 3.734 7.01 2.025 7.01 2.025a70.645 70.645 0 0 0 4.066 9.958c.183.341.365.677.552 1 .27.466.551.933.832 1.316 1.121 1.601 1.44 1.56 2.963 1.863z"/>
        <path fill="#000" fill-rule="nonzero" d="M313.814 93.652a16.33 16.33 0 0 1-1.657 2.037c-3.078 3.23-7.3 5.052-11.709 5.05-.565.001-1.129-.028-1.69-.085.271-1.568.2-3.02-.497-4.07C295.61 92.594 314.03 87 314.03 87c-.229 2.21-.3 4.432-.216 6.652z" opacity=".1"/>
        <path fill="#8E5362" fill-rule="nonzero" d="M317.823 83.412c0 9.063-7.348 16.411-16.412 16.411-9.063 0-16.411-7.348-16.411-16.411C285 74.348 292.348 67 301.411 67a16.35 16.35 0 0 1 16.412 16.412z"/>
        <path fill="#000" fill-rule="nonzero" d="M325 121.018l.334 10.669s4.853-3.836 5.006-7.48c.153-3.644-5.34-3.189-5.34-3.189zM286 132s12.647 17.887 20.006 19.702C313.364 153.516 288.759 137.8 286 132zM299 134s7.11 8.144 12.213 9.16L299 134zM274 154s13.115 12.953 20.61 13.74L274 154zM316.48 83.176a16.133 16.133 0 0 1-4.611 11.304l-1.77-1.105a4.9 4.9 0 0 1-1.725-1.502c-.585-.98-.415-2.208-.369-3.35.097-2.417-.567-5.032-2.453-6.543-3.056-2.454-7.958-1.096-11.065-3.503a10.925 10.925 0 0 1-1.96-2.186l-2.914-3.914c-.175-.231-.387-.462-.613-.735a16.11 16.11 0 0 1 17.562-3.38 16.175 16.175 0 0 1 9.89 14.933l.028-.019z" opacity=".1"/>
        <path fill="#362133" fill-rule="nonzero" d="M291.257 62.926c1.462-1.12 3.245-1.712 4.889-2.537 1.643-.826 3.095-1.876 4.739-2.58 1.643-.703 3.544-1.116 5.248-.53 3.656 1.262 5.038 6.393 8.796 7.293.635.15 1.29.164 1.929.263a8.778 8.778 0 0 1 5.906 4.15 13.864 13.864 0 0 1 1.868 7.134 11.476 11.476 0 0 1-.593 4.094c-1.112 3.062-3.899 5.159-5.78 7.808a14.894 14.894 0 0 0-2.704 8.672l-4.557-2.847a4.918 4.918 0 0 1-1.746-1.524c-.593-.994-.42-2.242-.374-3.4.098-2.453-.574-5.107-2.479-6.64-3.1-2.491-8.063-1.112-11.206-3.556a11.08 11.08 0 0 1-1.984-2.218l-2.95-3.972c-.64-.863-1.868-1.937-2.148-2.988-.621-2.26 1.503-5.351 3.146-6.622z"/>
        <path fill="#000" fill-rule="nonzero" d="M311.424 92.517a4.883 4.883 0 0 1-1.74-1.501c-.59-.979-.418-2.207-.371-3.348.097-2.415-.572-5.029-2.475-6.539-3.083-2.452-8.027-1.094-11.162-3.5a10.953 10.953 0 0 1-1.976-2.184l-2.94-3.911c-.641-.85-1.86-1.908-2.139-2.942-.507-1.782.777-4.105 2.149-5.592-1.54 1.413-3.228 4.096-2.656 6.095.298 1.035 1.502 2.092 2.14 2.942l2.939 3.911a10.953 10.953 0 0 0 1.976 2.184c3.121 2.406 8.065 1.049 11.162 3.5 1.898 1.51 2.568 4.124 2.47 6.54-.046 1.14-.218 2.368.372 3.347a4.883 4.883 0 0 0 1.74 1.501l4.539 2.803c0-.268 0-.536.028-.799l-4.056-2.507z" opacity=".1"/>
        <path fill="#494457" fill-rule="nonzero" d="M247.69 288s-4.486.938-3.565 13.462c.92 12.525 2.302 14.696 4.144 14.85 1.842.156 10.823 2.425 10.362-2.189-.46-4.614-.92-14.846-.308-16.412.612-1.566 3.044-5.772.723-6.79l-1.875 2.495s-4.913-4.614-7.829-1.252c0 0-2.726-3.071-1.653-4.164z"/>
        <path fill="#000" fill-rule="nonzero" d="M251 296c1.03.477 1.993 1.059 3.018 1.535a6.908 6.908 0 0 0 3.277.754 2.321 2.321 0 0 0 1.338-.453M281 308c.604.523 1.073 1.192 1.755 1.625.967.61 2.205.646 3.384.66.197.016.394-.007.58-.069.211-.107.389-.264.518-.455l.633-.769" opacity=".1"/>
        <path fill="#FFC1C7" fill-rule="nonzero" d="M204.241 100.845s-2.09-19.985 6.037-15.066c8.126 4.92 2.53 13.66 2.53 13.66l-1.908 6.17-6.659-4.764zM218 36.715l4.608-4.566s8.833-25.656 17.589-19.067c8.755 6.59-11.096 23.252-11.096 23.252l-5.263 6.199L218 36.715z"/>
        <path fill="#FF5374" fill-rule="nonzero" d="M149.231 138.527L149 143.89s4.24 7.573 6.011 8.126c1.772.554 1.619-16.016 1.619-16.016l-7.399 2.527z"/>
        <path fill="#000" fill-rule="nonzero" d="M149.231 138.527L149 143.89s4.24 7.573 6.011 8.126c1.772.554 1.619-16.016 1.619-16.016l-7.399 2.527z" opacity=".1"/>
        <path fill="#FFC1C7" fill-rule="nonzero" d="M156 133l.32 19.846h21.816l-1.642-11.562z"/>
        <path fill="#575988" fill-rule="nonzero" d="M161.395 182l1.007 6.243 12.612 28.258s5.723 8.898 1.081 16.391c-4.642 7.494-9.436 19.202-10.211 26.301-.776 7.1-6.884 14.05-6.884 14.05l13.308 5.7s.928-11.16 4.641-16.392c3.713-5.23 15.624-28.254 15.624-28.254s3.792-3.437 2.943-13.66c-.85-10.224-.776-17.408-.776-17.408l-1.313-16.312L161.395 182z"/>
        <path fill="#000" fill-rule="nonzero" d="M161.395 182l1.007 6.243 12.612 28.258s5.723 8.898 1.081 16.391c-4.642 7.494-9.436 19.202-10.211 26.301-.776 7.1-6.884 14.05-6.884 14.05l13.308 5.7s.928-11.16 4.641-16.392c3.713-5.23 15.624-28.254 15.624-28.254s3.792-3.437 2.943-13.66c-.85-10.224-.776-17.408-.776-17.408l-1.313-16.312L161.395 182z" opacity=".1"/>
        <path fill="#C4747B" fill-rule="nonzero" d="M160.445 272s-14.195 4.386-9.488 11.598c4.707 7.211 19.98 20.92 26.15 20.45 6.17-.47 3.702-5.096 3.702-5.096l-5.17-5.171s-.925-10.968-.536-14.18c.388-3.21-4.397-4.7-5.018-2.82-.62 1.88-9.64-4.781-9.64-4.781z"/>
        <path fill="#575988" fill-rule="nonzero" d="M169.055 145l-11.412 1.263a4.094 4.094 0 0 0-3.643 4.175c.122 4.564.202 11.824-.437 13.148-.939 1.959-3.83 15.891 8.685 25.358l16.98 5.4L152 196.303l.864 15.106 4.225-2.348 51.64 2.348s14.632-1.488 4.694-17.374c-9.938-15.887-31.059-31.463-31.059-31.463l-.235-12.369-1.568-3.597L169.055 145z"/>
        <path fill="#000" fill-rule="nonzero" d="M183 193.527c3.65-2.036 7.8-2.036 11.45 0H183z" opacity=".1"/>
        <path fill="#C4747B" fill-rule="nonzero" d="M154.131 194.865s-17.048-2.388-17.13.772c-.08 3.16 2.38 33.93 10.55 31.848 8.17-2.082 4.677-12.261 4.677-12.261l6.11-5.706s.632-3.16-3.412-2.854l-.795-11.8z"/>
        <path fill="#FF5374" fill-rule="nonzero" d="M181.273 108.47l6.62 7.531s2.884 3.573 6.311-1.863S204.022 99 204.022 99s7.092 6.209 8.962 4.97c1.87-1.24-17.218 25.856-17.218 25.856s-6.078 8.924-15.12-1.63L178 126.951l3.273-18.483z"/>
        <path fill="#000" fill-rule="nonzero" d="M181.273 108.47l6.62 7.531s2.884 3.573 6.311-1.863S204.022 99 204.022 99s7.092 6.209 8.962 4.97c1.87-1.24-17.218 25.856-17.218 25.856s-6.078 8.924-15.12-1.63L178 126.951l3.273-18.483z" opacity=".1"/>
        <circle cx="160.74" cy="63.74" r="13.74" fill="#FFC1C7" fill-rule="nonzero"/>
        <path fill="#000" fill-rule="nonzero" d="M161.18 70.56s-11.897 5.601-10.489 15.405c1.408 9.803 1.643 22.175 1.643 22.175s5.401 7.936-1.76 23.108c0 0-4.576 7.703-1.525 13.305 0 0 3.383-8.87 12.131-2.334 8.748 6.535 22.832 9.57 22.832 9.57s-7.275-31.745-2.816-36.18c0 0 7.743-11.438.704-18.674-7.04-7.236-3.52-14.005-3.52-14.005l22.606-12.058s4.768.075 11.184-9.883a171.556 171.556 0 0 1 13.69-18.207s-4.853-7.236-9.387-7.782c0 0-1.802 1.867-3.05 6.928-.667 2.684-5.195 7.17-9.292 10.789-2.91 2.567-5.717 5.233-8.518 7.936-2.075 1.984-6.692 4.822-16.764 6.428-16.575 2.628-17.669 3.478-17.669 3.478z" opacity=".1"/>
        <path fill="#FF5374" fill-rule="nonzero" d="M161.18 70.56s-11.897 5.601-10.489 15.405c1.408 9.803 1.643 22.175 1.643 22.175s5.401 7.936-1.76 23.108c0 0-4.576 7.703-1.525 13.305 0 0 3.383-8.87 12.131-2.334 8.748 6.535 22.832 9.57 22.832 9.57s-7.275-31.745-2.816-36.18c0 0 7.743-11.438.704-18.674-7.04-7.236-3.52-14.005-3.52-14.005l22.606-12.058s4.768.075 11.184-9.883a171.556 171.556 0 0 1 13.69-18.207s-4.853-7.236-9.387-7.782c0 0-1.802 1.867-3.05 6.928-.667 2.684-5.195 7.17-9.292 10.789-2.91 2.567-5.717 5.233-8.518 7.936-2.075 1.984-6.692 4.822-16.764 6.428-16.575 2.628-17.669 3.478-17.669 3.478z"/>
        <path fill="#000" fill-rule="nonzero" d="M171 129s8.933 13.673 9.16 16.03c.004 0-1.359-14.696-9.16-16.03zM159 83s6.556 7.686 16.03 1.244A20.807 20.807 0 0 1 159 83z" opacity=".1"/>
        <path fill="#000" fill-rule="nonzero" d="M163.822 49.141a4.126 4.126 0 0 0-1.01-1.866c-2.113-2.645-4.41-5.36-7.556-6.615a10.461 10.461 0 0 0-11.92 3.387c-1.131 1.52-1.805 3.33-2.782 4.959-1.805 3.014-4.597 5.337-7.599 7.175-1.81 1.106-3.717 2.062-5.424 3.317-6.205 4.558-9.072 12.983-7.51 20.527.688 3.303 2.142 6.56 1.75 9.914-.305 2.603-1.694 4.936-3.101 7.147-1.408 2.211-2.909 4.45-3.47 6.998-.561 2.547.028 5.565 2.146 7.11.781.569 1.721.933 2.39 1.614.442.53.812 1.117 1.099 1.744a17.187 17.187 0 0 0 10.675 8.398c2.011.527 4.71.336 5.443-1.605.085-.343.212-.673.38-.984.663-.933 2.127-.41 3.156.126a19.576 19.576 0 0 0 7.542 2.16 6.303 6.303 0 0 0 3.091-.369 5.706 5.706 0 0 0 2.081-1.796c2.46-3.196 3.166-7.371 3.587-11.379.275-2.607.467-5.262-.033-7.837-.795-4.134-3.316-7.996-2.941-12.186.397-4.478 4.04-8.14 4.596-12.596a9.589 9.589 0 0 0-1.641-6.62 9.463 9.463 0 0 1-1.249-1.95 1.933 1.933 0 0 1 .374-2.141c.297-.208.625-.366.973-.467 3.007-1.152 4.61-4.156 4.826-7.23.084-1.167 0-2.24.322-3.379.515-1.758 2.072-3.68 1.805-5.556z" opacity=".1"/>
        <path fill="#BB7684" fill-rule="nonzero" d="M162.822 49.141a4.126 4.126 0 0 0-1.01-1.866c-2.113-2.645-4.41-5.36-7.556-6.615a10.461 10.461 0 0 0-11.92 3.387c-1.131 1.52-1.805 3.33-2.782 4.959-1.805 3.014-4.597 5.337-7.599 7.175-1.81 1.106-3.717 2.062-5.424 3.317-6.205 4.558-9.072 12.983-7.51 20.527.688 3.303 2.142 6.56 1.75 9.914-.305 2.603-1.694 4.936-3.101 7.147-1.408 2.211-2.909 4.45-3.47 6.998-.561 2.547.028 5.565 2.146 7.11.781.569 1.721.933 2.39 1.614.442.53.812 1.117 1.099 1.744a17.187 17.187 0 0 0 10.675 8.398c2.011.527 4.71.336 5.443-1.605.085-.343.212-.673.38-.984.663-.933 2.127-.41 3.156.126a19.576 19.576 0 0 0 7.542 2.16 6.303 6.303 0 0 0 3.091-.369 5.706 5.706 0 0 0 2.081-1.796c2.46-3.196 3.166-7.371 3.587-11.379.275-2.607.467-5.262-.033-7.837-.795-4.134-3.316-7.996-2.941-12.186.397-4.478 4.04-8.14 4.596-12.596a9.589 9.589 0 0 0-1.641-6.62 9.463 9.463 0 0 1-1.249-1.95 1.933 1.933 0 0 1 .374-2.141c.297-.208.625-.366.973-.467 3.007-1.152 4.61-4.156 4.826-7.23.084-1.167 0-2.24.322-3.379.515-1.758 2.072-3.68 1.805-5.556z"/>
        <path fill="#000" fill-rule="nonzero" d="M135.248 120.518a4.371 4.371 0 0 0-.386.984c-.439 1.157-1.584 1.688-2.862 1.82 1.777.176 3.677-.248 4.276-1.82.089-.342.218-.673.387-.984.118-.172.281-.309.471-.397-.716-.205-1.452-.196-1.886.397zM162.756 49.151a4.013 4.013 0 0 0-1.018-1.865c-2.131-2.645-4.446-5.36-7.619-6.615a9.997 9.997 0 0 0-4.337-.644 9.715 9.715 0 0 1 2.923.644c3.173 1.255 5.488 3.97 7.619 6.615.502.52.853 1.165 1.018 1.865.269 1.866-1.297 3.802-1.815 5.528-.344 1.138-.245 2.207-.325 3.377-.222 3.07-1.834 6.065-4.87 7.23-.351.102-.683.26-.981.467a1.92 1.92 0 0 0-.373 2.146 9.429 9.429 0 0 0 1.254 1.95 9.518 9.518 0 0 1 1.66 6.615c-.566 4.464-4.243 8.121-4.64 12.595-.377 4.198 2.17 8.051 2.966 12.18.5 2.574.311 5.228.033 7.836-.424 4.007-1.131 8.187-3.616 11.377a5.72 5.72 0 0 1-2.093 1.796c-.489.212-1.01.34-1.542.378a6.156 6.156 0 0 0 2.956-.378 5.723 5.723 0 0 0 2.108-1.763c2.484-3.19 3.191-7.37 3.616-11.377.278-2.608.471-5.262-.033-7.837-.797-4.128-3.343-7.995-2.966-12.18.406-4.483 4.074-8.14 4.64-12.595a9.518 9.518 0 0 0-1.66-6.614 9.429 9.429 0 0 1-1.254-1.95 1.92 1.92 0 0 1 .372-2.146c.299-.208.63-.366.98-.466 3.037-1.157 4.65-4.161 4.871-7.23.08-1.172 0-2.24.325-3.378.505-1.759 2.07-3.68 1.801-5.56z"/>
        <path fill="#000" fill-rule="nonzero" d="M145 214c1.544 1.994 3.916 2.768 6.107 1.995M175.053 294a4.02 4.02 0 0 1-3.053.704" opacity=".1"/>
        <ellipse cx="49.595" cy="306.29" fill="#6C63FF" fill-rule="nonzero" opacity=".1" rx="12.595" ry="2.29"/>
        <ellipse cx="393.595" cy="349.29" fill="#6C63FF" fill-rule="nonzero" rx="12.595" ry="2.29"/>
        <ellipse cx="393.595" cy="308.29" fill="#6C63FF" fill-rule="nonzero" opacity=".1" rx="12.595" ry="2.29"/>
        <ellipse cx="84.595" cy="326.29" fill="#6C63FF" fill-rule="nonzero" opacity=".1" rx="12.595" ry="2.29"/>
        <ellipse cx="432.701" cy="326.053" fill="#6C63FF" fill-rule="nonzero" rx="18.701" ry="3.053"/>
        <ellipse cx="163.365" cy="351.252" fill="#6C63FF" fill-rule="nonzero" opacity=".1" rx="42.365" ry="7.252"/>
        <path fill="#6C63FF" fill-rule="nonzero" d="M441.245 320.58a5.43 5.43 0 0 0 1.78-2.681c.228-1.065-.226-2.339-1.242-2.727-1.141-.436-2.36.351-3.284 1.152-.923.801-1.985 1.704-3.195 1.538a4.843 4.843 0 0 0 1.503-4.542 1.901 1.901 0 0 0-.418-.926c-.635-.676-1.78-.385-2.541.148-2.412 1.694-3.084 4.963-3.098 7.908-.241-1.06-.037-2.167-.042-3.241-.005-1.074-.306-2.315-1.224-2.885a3.748 3.748 0 0 0-1.855-.463c-1.086-.037-2.291.07-3.033.861-.928.987-.682 2.635.12 3.704.802 1.07 2.018 1.76 3.135 2.51a6.952 6.952 0 0 1 2.245 2.134c.067.122.123.249.167.38h6.794a18.89 18.89 0 0 0 4.188-2.87zM401.25 343.562a5.41 5.41 0 0 0 1.775-2.675c.228-1.063-.222-2.31-1.242-2.722-1.141-.434-2.361.351-3.284 1.15-.923.8-1.985 1.701-3.195 1.535a4.827 4.827 0 0 0 1.502-4.533c-.05-.34-.194-.66-.417-.924-.63-.675-1.78-.384-2.537.148-2.411 1.69-3.084 4.953-3.098 7.892-.245-1.058-.041-2.163-.046-3.235-.005-1.072-.306-2.31-1.224-2.878a3.721 3.721 0 0 0-1.855-.44c-1.086-.036-2.291.07-3.033.86-.928.984-.682 2.63.12 3.697.802 1.067 2.018 1.755 3.14 2.504a6.945 6.945 0 0 1 2.24 2.13c.067.121.122.248.167.379h6.794a19.016 19.016 0 0 0 4.192-2.888z"/>
        <path stroke="#535461" stroke-width="2" d="M98.69 300.99s-6.834-22.238 1.284-38.602c3.457-6.846 4.501-14.582 2.977-22.046A57.164 57.164 0 0 0 99.697 230"/>
        <path fill="#6C63FF" fill-rule="nonzero" d="M104.92 220.19c0 2.781-4.96 10.84-4.96 10.84s-4.958-8.059-4.958-10.84a5.052 5.052 0 0 1 2.435-4.49 4.9 4.9 0 0 1 5.05 0 5.052 5.052 0 0 1 2.434 4.49zM112.962 235.504c-1.489 2.284-9.962 6.236-9.962 6.236s.154-9.321 1.643-11.6a4.971 4.971 0 0 1 6.78-1.346 4.922 4.922 0 0 1 1.539 6.71zM112.88 260.257c-2.468 1.228-11.88.382-11.88.382s4.902-7.948 7.37-9.172c2.452-1.132 5.375-.14 6.595 2.24 1.22 2.379.297 5.282-2.085 6.55zM107.227 280.05c-2.142 1.666-11.227 2.4-11.227 2.4s3.346-8.925 5.47-10.595c2.141-1.504 5.027-.975 6.558 1.203 1.532 2.177 1.172 5.237-.819 6.954l.018.039zM92.387 241.361c1.916 1.892 10.826 3.852 10.826 3.852s-2.18-9.018-4.106-10.91a4.77 4.77 0 0 0-6.742.19 4.986 4.986 0 0 0 .013 6.868h.01zM87.658 264.262c2.461 1.221 11.845.376 11.845.376s-4.89-7.934-7.351-9.155c-2.452-1.156-5.393-.168-6.617 2.222-1.223 2.39-.28 5.305 2.123 6.557zM84.75 288.05c2.142 1.67 11.227 2.4 11.227 2.4s-3.346-8.93-5.47-10.595c-2.142-1.504-5.027-.975-6.559 1.204-1.532 2.178-1.171 5.239.82 6.957l-.019.034z"/>
        <path fill="#A8A8A8" fill-rule="nonzero" d="M83 299.931s7.971-1.616 10.1-3.77c2.13-2.153 11.689-5.918 12.751-3.227 1.062 2.69 14.349 11.842 5.316 13.458-9.034 1.616-21.258 2.153-23.914 1.08-2.655-1.075-4.253-7.54-4.253-7.54z"/>
        <path fill="#000" fill-rule="nonzero" d="M111.18 305.671c-9.033 1.66-21.257 2.213-23.913 1.104-2.026-.84-3.433-4.885-3.987-6.775l-.28.073s1.593 6.638 4.253 7.747c2.66 1.11 14.88.552 23.913-1.109 2.61-.488 3.355-1.602 3.075-3.028-.21.913-1.118 1.631-3.06 1.988z" opacity=".2"/>
        <path fill="#6C63FF" fill-rule="nonzero" d="M396.147 277s2.599 3.31-1.196 8.286c-3.794 4.977-6.923 9.207-5.67 12.324 0 0 5.727-9.276 10.396-9.405 4.669-.129 1.588-5.64-3.53-11.205z"/>
        <path fill="#000" fill-rule="nonzero" d="M396.074 277c.23.32.411.67.54 1.04 4.597 5.198 7.045 10.052 2.624 10.171-4.116.115-9.053 7.2-10.238 8.99.039.138.085.275.139.409 0 0 5.792-9.27 10.514-9.399 4.722-.129 1.597-5.65-3.58-11.211z" opacity=".1"/>
        <path fill="#FFD037" fill-rule="nonzero" d="M400.763 280.804c0 1.243-.174 2.25-.384 2.25-.21 0-.379-.983-.379-2.25s.21-.658.42-.658c.211 0 .343-.584.343.658zM402.745 282.77c-.895.538-1.676.863-1.74.725-.065-.138.6-.681 1.494-1.22.894-.538.544-.146.612 0 .069.147.528-.044-.366.494z"/>
        <path fill="#6C63FF" fill-rule="nonzero" d="M381.832 277s-2.598 3.31 1.195 8.286c3.794 4.977 6.921 9.207 5.67 12.324 0 0-5.722-9.276-10.394-9.405-4.672-.129-1.597-5.64 3.53-11.205z"/>
        <path fill="#000" fill-rule="nonzero" d="M381.907 277c-.23.32-.411.67-.54 1.04-4.595 5.198-7.04 10.052-2.622 10.171 4.113.115 9.047 7.2 10.232 8.99a3.21 3.21 0 0 1-.144.409s-5.784-9.27-10.508-9.399c-4.724-.129-1.6-5.65 3.582-11.211z" opacity=".1"/>
        <path fill="#FFD037" fill-rule="nonzero" d="M378 280.804c0 1.243.174 2.25.385 2.25.21 0 .378-.983.378-2.25s-.21-.658-.42-.658-.343-.584-.343.658zM376.545 282.77c.894.538 1.672.863 1.74.725.069-.138-.6-.681-1.494-1.22-.894-.538-.544-.146-.612 0-.069.147-.528-.044.366.494z"/>
        <path fill="#A8A8A8" fill-rule="nonzero" d="M379 296.941s7.178-.227 9.347-1.787c2.168-1.56 11.043-3.428 11.58-.948.538 2.48 10.786 12.465 2.683 12.532-8.104.066-18.83-1.28-20.988-2.613-2.16-1.332-2.622-7.184-2.622-7.184z"/>
        <path fill="#000" fill-rule="nonzero" d="M402.756 306.049c-8.106.067-18.834-1.293-20.993-2.64-1.646-1.025-2.305-4.708-2.52-6.409H379s.467 5.935 2.618 7.281c2.15 1.346 12.887 2.707 20.993 2.64 2.337 0 3.146-.872 3.104-2.132-.327.771-1.22 1.246-2.96 1.26z" opacity=".2"/>
    </g>
</svg>
