<svg xmlns="http://www.w3.org/2000/svg" width="489" height="396" viewBox="0 0 489 396">
    <defs>
        <linearGradient id="a" x1="49.997%" x2="49.997%" y1="100%" y2="0%">
            <stop offset="0%" stop-color="gray" stop-opacity=".25"/>
            <stop offset="54%" stop-color="gray" stop-opacity=".12"/>
            <stop offset="100%" stop-color="gray" stop-opacity=".1"/>
        </linearGradient>
        <linearGradient id="b" x1="50.002%" x2="50.002%" y1="100.004%" y2="0%">
            <stop offset="0%" stop-color="gray" stop-opacity=".25"/>
            <stop offset="54%" stop-color="gray" stop-opacity=".12"/>
            <stop offset="100%" stop-color="gray" stop-opacity=".1"/>
        </linearGradient>
        <linearGradient id="c" x1="-350.759%" x2="-350.759%" y1="100.001%" y2="-.459%">
            <stop offset="0%" stop-color="gray" stop-opacity=".25"/>
            <stop offset="54%" stop-color="gray" stop-opacity=".12"/>
            <stop offset="100%" stop-color="gray" stop-opacity=".1"/>
        </linearGradient>
        <linearGradient id="d" x1="-836.512%" x2="-836.512%" y1="100%" y2="-.171%">
            <stop offset="0%" stop-color="gray" stop-opacity=".25"/>
            <stop offset="54%" stop-color="gray" stop-opacity=".12"/>
            <stop offset="100%" stop-color="gray" stop-opacity=".1"/>
        </linearGradient>
        <linearGradient id="e" x1="50.002%" x2="50.002%" y1="100.004%" y2="0%">
            <stop offset="0%" stop-color="gray" stop-opacity=".25"/>
            <stop offset="54%" stop-color="gray" stop-opacity=".12"/>
            <stop offset="100%" stop-color="gray" stop-opacity=".1"/>
        </linearGradient>
        <linearGradient id="f" x1="49.802%" x2="49.802%" y1="100.207%" y2="-.036%">
            <stop offset="0%" stop-color="gray" stop-opacity=".25"/>
            <stop offset="54%" stop-color="gray" stop-opacity=".12"/>
            <stop offset="100%" stop-color="gray" stop-opacity=".1"/>
        </linearGradient>
        <linearGradient id="g" x1="-.004%" x2="99.996%" y1="50.002%" y2="50.002%">
            <stop offset="0%" stop-color="gray" stop-opacity=".25"/>
            <stop offset="54%" stop-color="gray" stop-opacity=".12"/>
            <stop offset="100%" stop-color="gray" stop-opacity=".1"/>
        </linearGradient>
        <linearGradient id="h" x1="49.297%" x2="62.44%" y1="96.914%" y2="2.617%">
            <stop offset="0%" stop-color="gray" stop-opacity=".25"/>
            <stop offset="54%" stop-color="gray" stop-opacity=".12"/>
            <stop offset="100%" stop-color="gray" stop-opacity=".1"/>
        </linearGradient>
        <linearGradient id="i" x1="173.922%" x2="173.922%" y1="100.004%" y2="0%">
            <stop offset="0%" stop-color="gray" stop-opacity=".25"/>
            <stop offset="54%" stop-color="gray" stop-opacity=".12"/>
            <stop offset="100%" stop-color="gray" stop-opacity=".1"/>
        </linearGradient>
    </defs>
    <g fill="none" fill-rule="evenodd">
        <path fill="#6C63FF" fill-rule="nonzero" d="M430.621 176.722c5.559 11.402 2.021 27.76 9.893 37.08 5.772 6.835 15.353 6.796 21.898 12.562 5.092 4.5 7.628 11.864 9.936 18.854l11.214 33.978c5.106 15.475 9.47 35.396-.816 46.74-6.166 6.796-15.48 7.568-23.9 6.845-60.943-5.238-109.963-66.647-170.697-74.569-42.927-5.601-85.338 16.45-128.513 15.232-22.836-.645-45.132-7.766-67.167-14.873-16.947-5.45-35.755-12.62-43.835-30.998-3.61-8.213-4.732-18.135-10.096-24.887-4.111-5.18-10.053-7.63-15.16-11.383C1.13 174.955-1.402 138.34.518 107.522c1.074-17.096 2.891-34.6 9.66-49.774 6.767-15.174 19.502-27.722 34.04-28.217 9.192-.315 17.977 4.063 26.921 6.51 8.945 2.446 19.435 2.519 26.15-4.855 5.51-6.053 7.24-15.775 12.75-21.843 4.29-4.713 10.276-6.543 16.062-7.665 31.12-6.033 64.276 4.408 88.677 27.984 5.913 5.723 11.583 12.344 18.832 15.257 9.654 3.907 20.207.597 30.416.68 36.012.29 60.437 39.23 85.82 63.777 14.838 14.354 29.19 17.446 45.292 27.008 9.97 5.932 29.473 28.013 35.483 40.338z" opacity=".1"/>
        <path fill="#6C63FF" fill-rule="nonzero" d="M424.425 331.687c2.083 4.494-.898 9.344.136 13.984 1.306 5.856 8.794 10.413 16.859 13.32 8.065 2.909 17.072 4.675 24.934 7.808 3.399 1.351 6.943 3.844 5.176 6.138-.612.795-1.758 1.351-2.88 1.873-22.899 10.618-51.202 16.385-79.482 16.2-29.91-.2-59.2-6.831-89.086-6.07-38.544.976-75.826 14.179-113.943 10.373-16.179-1.615-31.212-6.221-46.963-9.095-23.172-4.23-47.542-4.655-71.539-6.045-18.019-1.044-38.612-3.752-47.22-13.93-6.226-7.359-3.613-17.078 5.156-23.309 8.77-6.23 22.783-8.904 35.723-7.704 6.958.649 13.872 2.332 20.83 1.664 4.04-.39 7.77-1.552 11.455-2.694 28.508-8.88 58.04-17.74 89.684-19.029 51.47-2.113 99.176 15.882 149.32 23.665 7.809 1.21 16.286 2.142 23.662.112 7.77-2.142 12.868-7.202 20.651-9.334 3.695-1.015 7.813-1.308 11.445-2.41 9.983-3.035 5.341-7.207 19.2-4.392 7.239 1.488 14.552 3.86 16.882 8.875z" opacity=".1"/>
        <path fill="#6C63FF" fill-rule="nonzero" d="M395.319 185s-27.315 27.042-11.885 67.148C398.863 292.254 357 359 357 359s.45-.063 1.278-.209c56.058-9.8 83.911-73.321 52.74-120.508-11.568-17.527-21.084-38.104-15.7-53.283z"/>
        <path fill="#000" fill-rule="nonzero" d="M395.319 185s-27.315 27.042-11.885 67.148C398.863 292.254 357 359 357 359s.45-.063 1.278-.209c56.058-9.8 83.911-73.321 52.74-120.508-11.568-17.527-21.084-38.104-15.7-53.283z" opacity=".1"/>
        <path stroke="#535461" d="M394.767 185s-15.196 33.144 0 60.182C409.963 272.221 397.374 348.1 357 359"/>
        <path fill="#6C63FF" fill-rule="nonzero" d="M443 294.339s-30.858-4.928-33.67 22.807C406.517 344.881 350 348.73 350 348.73s.369.253 1.062.705c46.667 30.726 91.278 19.573 84.552-21.227-2.502-15.17-2.299-30.405 7.386-33.868z"/>
        <path fill="#F5F5F5" fill-rule="nonzero" d="M443 294.339s-30.858-4.928-33.67 22.807C406.517 344.881 350 348.73 350 348.73s.369.253 1.062.705c46.667 30.726 91.278 19.573 84.552-21.227-2.502-15.17-2.299-30.405 7.386-33.868z" opacity=".2"/>
        <path stroke="#535461" d="M443 295s-23.952 5.19-21.983 26.696c1.969 21.506-35.567 47.283-71.017 26.85"/>
        <path fill="url(#a)" fill-rule="nonzero" d="M213.045 9h151.91c8.29 0 15.018 6.714 15.045 15.013v332.974c-.027 8.3-6.755 15.013-15.045 15.013h-151.91c-8.29 0-15.018-6.714-15.045-15.013V24.013C198.027 15.713 204.755 9 213.045 9z"/>
        <rect width="179" height="358" x="198" y="11" fill="#535461" fill-rule="nonzero" rx="26.87" transform="rotate(-180 287.5 190)"/>
        <path fill="#FFF" fill-rule="nonzero" d="M365 336H212V45h153z"/>
        <circle cx="306" cy="27" r="1" fill="#FFF" fill-rule="nonzero"/>
        <rect width="31" height="2" x="269" y="26" fill="#FFF" fill-rule="nonzero" rx="1" transform="rotate(180 284.5 27)"/>
        <circle cx="290" cy="351" r="10" fill="#FFF" fill-rule="nonzero"/>
        <path fill="url(#b)" fill-rule="nonzero" d="M229 71h114v114H229z"/>
        <path fill="#FFF" fill-rule="nonzero" d="M341 183H231V72h110z"/>
        <path fill="#6C63FF" fill-rule="nonzero" d="M336 153H235V77h101z" opacity=".5"/>
        <path stroke="#535461" stroke-width="2" d="M295 114s3.589-1.84 4.815-4.994c.508-1.328 1.389-2.436 2.51-3.158A9.605 9.605 0 0 1 304 105"/>
        <path fill="#6C63FF" fill-rule="nonzero" d="M305.734 104.204c-.316.3-.734 1.796-.734 1.796s1.42-.249 1.74-.549a.87.87 0 0 0 .246-.783.81.81 0 0 0-.501-.623.716.716 0 0 0-.748.16h-.003zM303.027 104.473c-.15.337.375 1.527.375 1.527s1.408-.826 1.56-1.17c.151-.346-.158-.706-.692-.805-.534-.099-1.09.102-1.243.448zM298.03 106.806c.14.336 1.512 1.194 1.512 1.194s.573-1.17.437-1.517c-.143-.347-.695-.554-1.232-.46-.537.092-.856.449-.713.796l-.005-.013zM297.003 109.686c.047.348 1.172 1.314 1.172 1.314s.865-1.065.824-1.416c-.045-.35-.527-.61-1.078-.582-.551.028-.962.334-.918.684z"/>
        <path fill="#6C63FF" fill-rule="nonzero" d="M303.315 108c-.348-.047-1.315-1.175-1.315-1.175s1.066-.865 1.417-.824c.227.03.426.247.522.57.097.324.077.704-.052.997-.13.294-.349.456-.575.427l.003.005zM301.082 110.932c-.346-.208-1.082-1.744-1.082-1.744s1.24-.327 1.583-.119c.342.208.506.792.368 1.305-.138.513-.528.76-.87.552v.006zM298.217 114.976c-.334-.119-1.217-1.442-1.217-1.442s1.147-.638 1.493-.52c.348.12.568.655.492 1.197-.077.542-.42.884-.768.765z"/>
        <path fill="#6C63FF" fill-rule="nonzero" d="M305.734 104.204c-.316.3-.734 1.796-.734 1.796s1.42-.249 1.74-.549a.87.87 0 0 0 .246-.783.81.81 0 0 0-.501-.623.716.716 0 0 0-.748.16h-.003zM303.027 104.473c-.15.337.375 1.527.375 1.527s1.408-.826 1.56-1.17c.151-.346-.158-.706-.692-.805-.534-.099-1.09.102-1.243.448zM298.03 106.806c.14.336 1.512 1.194 1.512 1.194s.573-1.17.437-1.517c-.143-.347-.695-.554-1.232-.46-.537.092-.856.449-.713.796l-.005-.013zM297.003 109.686c.047.348 1.172 1.314 1.172 1.314s.865-1.065.824-1.416c-.045-.35-.527-.61-1.078-.582-.551.028-.962.334-.918.684z" opacity=".1"/>
        <path fill="#6C63FF" fill-rule="nonzero" d="M303.315 108c-.348-.047-1.315-1.175-1.315-1.175s1.066-.865 1.417-.824c.227.03.426.247.522.57.097.324.077.704-.052.997-.13.294-.349.456-.575.427l.003.005zM301.082 110.932c-.346-.208-1.082-1.744-1.082-1.744s1.24-.327 1.583-.119c.342.208.506.792.368 1.305-.138.513-.528.76-.87.552v.006zM298.217 114.976c-.334-.119-1.217-1.442-1.217-1.442s1.147-.638 1.493-.52c.348.12.568.655.492 1.197-.077.542-.42.884-.768.765z" opacity=".1"/>
        <path stroke="#6C63FF" d="M261.76 131s-1.506 2.79-.278 4.315c1.228 1.526-.113 5.685-.113 5.685"/>
        <path fill="#6C63FF" fill-rule="nonzero" d="M261 129.858a.67.67 0 0 0 .71.073c.228-.114.339-.345.27-.562-.07-.218-.303-.369-.568-.369a1.34 1.34 0 0 0-.412.858z"/>
        <path stroke="#6C63FF" d="M261.24 131s1.506 2.79.278 4.315c-1.228 1.526.113 5.685.113 5.685"/>
        <path fill="#6C63FF" fill-rule="nonzero" d="M261 129.858a.67.67 0 0 1-.71.073c-.228-.114-.339-.345-.27-.562.07-.218.303-.369.568-.369.245.24.39.541.412.858z"/>
        <path fill="#000" fill-rule="nonzero" d="M261 129.858a.67.67 0 0 1-.71.073c-.228-.114-.339-.345-.27-.562.07-.218.303-.369.568-.369.245.24.39.541.412.858z" opacity=".1"/>
        <path stroke="#6C63FF" d="M259.76 131s-1.506 2.79-.278 4.315c1.228 1.526-.113 5.685-.113 5.685"/>
        <path fill="#6C63FF" fill-rule="nonzero" d="M260 129.858a.67.67 0 0 0 .71.073c.228-.114.339-.345.27-.562-.07-.218-.303-.369-.568-.369a1.34 1.34 0 0 0-.412.858zM260.58 132.38c.391.353.89.57 1.42.62 0-1.087-.888-1.975-2-2 .036.509.24.993.58 1.38zM259.58 135.38c.391.353.89.57 1.42.62 0-1.087-.888-1.975-2-2 .036.509.24.993.58 1.38zM261.533 135.646A2.054 2.054 0 0 0 261 137c1.183-.077 2.074-.97 1.995-2-.555.07-1.069.297-1.462.646z"/>
        <path fill="#6C63FF" fill-rule="nonzero" d="M261.733 131.198c-.355.194-.612.467-.733.778.917.132 1.81-.298 2-.964a2.668 2.668 0 0 0-1.267.186z"/>
        <path fill="#000" fill-rule="nonzero" d="M261.733 131.198c-.355.194-.612.467-.733.778.917.132 1.81-.298 2-.964a2.668 2.668 0 0 0-1.267.186z" opacity=".1"/>
        <path stroke="#6C63FF" d="M259.24 131s1.506 2.79.278 4.315c-1.228 1.526.113 5.685.113 5.685"/>
        <path fill="#6C63FF" fill-rule="nonzero" d="M260 129.858a.67.67 0 0 1-.71.073c-.228-.114-.339-.345-.27-.562.07-.218.303-.369.568-.369.245.24.39.541.412.858z"/>
        <path fill="#000" fill-rule="nonzero" d="M260 129.858a.67.67 0 0 1-.71.073c-.228-.114-.339-.345-.27-.562.07-.218.303-.369.568-.369.245.24.39.541.412.858z" opacity=".1"/>
        <path fill="#6C63FF" fill-rule="nonzero" d="M260.42 132.593c.342.393.546.887.58 1.407a2 2 0 0 1-2-2 2.373 2.373 0 0 1 1.42.593z"/>
        <path fill="#000" fill-rule="nonzero" d="M260.42 132.593c.342.393.546.887.58 1.407a2 2 0 0 1-2-2 2.373 2.373 0 0 1 1.42.593z" opacity=".1"/>
        <path fill="#6C63FF" fill-rule="nonzero" d="M259.42 135.593c.342.393.546.887.58 1.407a2 2 0 0 1-2-2 2.373 2.373 0 0 1 1.42.593z"/>
        <path stroke="#6C63FF" d="M260 136s-.834-1.947-2-2M261 134s.834-1.947 2-2M261 137s-.834-1.947-2-2"/>
        <circle cx="257.48" cy="134.48" r="1" fill="#6C63FF" fill-rule="nonzero"/>
        <circle cx="262.48" cy="132.48" r="1" fill="#6C63FF" fill-rule="nonzero"/>
        <path stroke="#6C63FF" d="M260 137s.834-1.947 2-2"/>
        <circle cx="261.48" cy="135.48" r="1" fill="#6C63FF" fill-rule="nonzero"/>
        <circle cx="258.48" cy="135.48" r="1" fill="#6C63FF" fill-rule="nonzero"/>
        <path fill="#A8A8A8" fill-rule="nonzero" d="M255 140.478s2.294-.501 2.905-1.178c.611-.676 3.368-1.848 3.67-1.008.303.84 4.107 3.696 1.54 4.198-2.566.501-6.118.67-6.883.338-.765-.333-1.232-2.35-1.232-2.35z"/>
        <path fill="#000" fill-rule="nonzero" d="M263.106 141.362c-2.6.398-6.115.532-6.88.268-.585-.2-.985-1.179-1.149-1.63H255s.457 1.599 1.221 1.863c.765.263 4.284.134 6.88-.268.75-.117.965-.385.883-.728-.057.236-.319.406-.878.495z" opacity=".2"/>
        <path fill="#6C63FF" fill-rule="nonzero" d="M311.345 136s-.602.963.277 2.414c.88 1.451 1.605 2.678 1.312 3.586 0 0-1.328-2.698-2.403-2.738-1.076-.04-.37-1.641.814-3.262z"/>
        <path fill="#000" fill-rule="nonzero" d="M311.36 136a1.308 1.308 0 0 0-.123.304c-1.067 1.495-1.648 2.925-.61 2.96.952.035 2.097 2.098 2.373 2.616-.01.041-.02.08-.033.12 0 0-1.343-2.696-2.43-2.736-1.088-.04-.375-1.644.824-3.264z" opacity=".1"/>
        <path fill="#FFD037" fill-rule="nonzero" d="M311 137.261c0 .409.08.739.17.739.09 0 .17-.33.17-.739 0-.408-.1-.216-.19-.216s-.15-.192-.15.216zM310.235 138.469c.395.33.737.52.763.44.027-.08-.263-.41-.658-.74-.394-.33-.236-.09-.27 0-.032.09-.21-.03.165.3z"/>
        <path fill="#6C63FF" fill-rule="nonzero" d="M314.655 136s.602.963-.277 2.414c-.88 1.451-1.605 2.678-1.312 3.586 0 0 1.328-2.698 2.403-2.738 1.076-.04.37-1.641-.814-3.262z"/>
        <path fill="#000" fill-rule="nonzero" d="M314.64 136c.052.094.094.196.123.304 1.067 1.495 1.648 2.925.61 2.96-.952.035-2.097 2.098-2.373 2.616.01.041.02.08.033.12 0 0 1.343-2.696 2.43-2.736 1.088-.04.375-1.644-.824-3.264z" opacity=".1"/>
        <path fill="#FFD037" fill-rule="nonzero" d="M317.34 137.261c0 .409-.08.739-.17.739-.09 0-.17-.33-.17-.739 0-.408.1-.216.19-.216s.15-.192.15.216zM317.759 138.469c-.392.33-.731.52-.757.44-.026-.08.26-.41.653-.74.391-.33.235-.09.267 0 .033.09.229-.03-.163.3z"/>
        <path fill="#A8A8A8" fill-rule="nonzero" d="M316 140.851s-1.883-.05-2.448-.385-2.894-.747-3.035-.2c-.142.547-2.826 2.718-.702 2.733 2.124.016 4.936-.28 5.501-.57.565-.288.684-1.578.684-1.578z"/>
        <path fill="#000" fill-rule="nonzero" d="M309.771 143.827c2.125 0 4.939-.263 5.504-.532.433-.209.602-.95.661-1.295H316s-.119 1.198-.684 1.467c-.565.27-3.379.547-5.504.532-.615 0-.825-.176-.811-.431.077.162.314.259.77.259z" opacity=".2"/>
        <path fill="url(#c)" fill-rule="nonzero" d="M262.833 132.297c.201.393.481.74.824 1.022a4.418 4.418 0 0 0 3.718 1.041c.142-.033.282-.074.42-.125 1.003 1.88.301 5.073.301 5.073l-.112 1.6c.19.146.39.277.6.391l-.035.13-.068.28c-.935 5.329 4.07 5.864 4.07 5.864s5.165 1.066 9.068.747a18.29 18.29 0 0 1 6.11.57c.417.11.85.138 1.277.081a3.137 3.137 0 0 0 1.233-.443l.083-.053h.025l.058-.039h.024l.069-.048.068-.058.044-.039.044-.043.053-.058.03-.038v-.024l.029-.04.039-.052v-.125c.667-1.172-.59-2.44-.59-2.44a8.343 8.343 0 0 0-5.005-1.601h-.375l-.039-.068-.049-.101h.03l-.069-.068a1.82 1.82 0 0 1-.087-.226l.029-.039-.054-.024-.058-.178.024-.039-.049-.039a4.66 4.66 0 0 1-.053-.202l.03-.044-.05-.028c0-.078-.034-.15-.048-.222l.029-.053-.044-.03v-.09l.034-.05-.044-.023c0-.063 0-.13-.029-.188l.03-.048-.04-.03v-.23l.04-.05-.045-.023V141.55a.267.267 0 0 0-.258-.25h-.127c0-.145.03-.425.064-.844V140.108c.03-.321.066-.717.112-1.186l.039-.395V136l.03-.241v-.077l.028-.266c.147-1.23-.097-1.952-.487-2.367v-.087l.107.063.215.115.097.053.088.044.185.091.068.034.068.034.078.039.059.029h.049l.053.024.059.024H285.025c0-.044 0-.087.034-.13v-.121-.116-.154-.101-.136-.086-.198l-.034-.087-.034-.067-.044-.077-.044-.063-.053-.067-.054-.058-.063-.063-.064-.053-.073-.053-.073-.048-.083-.049-.082-.043-.176-.082a3.645 3.645 0 0 0-.75-.217c-.488-1.2-2.515-.067-2.515-.067v.245h-.107l-2.583.333a2.364 2.364 0 0 1-.292-.694 21.154 21.154 0 0 0-1.584-3.732 5.874 5.874 0 0 0-1.574-2.894l-.044-.154a10.818 10.818 0 0 1-.307-1.447 2.65 2.65 0 0 0 .395-1.668 3.158 3.158 0 0 0 2.237-2.99c0-.21-.021-.42-.064-.627a.81.81 0 0 0 .488-.482c.165-.564-.395-1.702-.639-2.199l-.078-.154c-.638-1.545-2.404-2.304-3.98-1.712a4.629 4.629 0 0 0-2.983 2.787 1.339 1.339 0 0 1-.488.781c-.132.052-.259.115-.38.188a.6.6 0 0 0-.18.357c-.502.376-.978.785-1.423 1.225-.285.305-.591.59-.916.854-.721.54-1.652.79-2.324 1.388a3.993 3.993 0 0 0-1.146 3.029c0 1.104.254 2.199.332 3.303a4.724 4.724 0 0 1-.717 3.178 4.437 4.437 0 0 0-.56.786c.057.517.369.974.833 1.22zm17.631.82l-.054-.03.18-.062-.126.091zm-3.002 8.41c1.808-1.298 4.162-4.457 4.162-4.457.018.713.073 1.425.165 2.132V139.535c.074.453.147 1.09.186 1.408a.174.174 0 0 0-.147.168l-.039 1.857v.106a41.398 41.398 0 0 1-4.327-1.548z"/>
        <path fill="#8C8296" fill-rule="nonzero" d="M276.049 138.543c.09 1.35.405 2.75 1.345 2.404.266-.107.516-.244.744-.41 1.703-1.188 3.926-4.092 3.926-4.092.017.655.07 1.309.157 1.958.105.45.258 1.8.258 1.8h1.908s.105-1.76.573-5.576c.467-3.817-3.268-2.35-3.268-2.35l-3.482 2.53-2.17 1.58s0 .301-.03.747c-.028.446.006.9.039 1.409z"/>
        <path fill="#000" fill-rule="nonzero" d="M276.061 138.54c.09 1.352.406 2.753 1.345 2.406.266-.106.516-.244.745-.41 1.703-1.19 3.926-4.095 3.926-4.095.017.655.07 1.31.157 1.96.076.315.177 1.104.224 1.532 0 .17.034.279.034.279h1.908V140c.043-.567.181-2.311.558-5.37.477-3.821-3.268-2.352-3.268-2.352l-3.482 2.532-2.17 1.581s0 .302-.03.748c-.028.446.02.892.053 1.401zM283 142.02c0 .38.034.62.034.62H285v-.47l-1.966-.17-.034.02z" opacity=".1"/>
        <path fill="#E7C4C3" fill-rule="nonzero" d="M282 144.39l3 .61a2.028 2.028 0 0 1-.291-.47 6.497 6.497 0 0 1-.429-2.206c-.004-.13-.1-.234-.219-.24L282.24 142a.143.143 0 0 0-.112.045.172.172 0 0 0-.047.12l-.034 1.774-.047.45z"/>
        <path fill="#000" fill-rule="nonzero" d="M282 143.425l3 .575a1.898 1.898 0 0 1-.291-.442 12.366 12.366 0 0 1-2.679-.558l-.03.425z" opacity=".1"/>
        <path fill="#8C8296" fill-rule="nonzero" d="M273.027 147.65s4.976 1.003 8.73.703a18.084 18.084 0 0 1 5.881.536 3.11 3.11 0 0 0 2.435-.337c1.981-1.225.17-3.014.17-3.014a8.166 8.166 0 0 0-4.815-1.507c-2.381 0-6.237-1.492-7.654-2.08l-.545-.23-.22-2.57-.097-1.151-1.3.462-6.13 2.21-.302 1.192-.068.263c-.9 5.015 3.915 5.523 3.915 5.523z"/>
        <path fill="#000" fill-rule="nonzero" d="M269.114 141.635l.069-.282.304-1.279.197-.074-.236.991-.069.283c-.909 5.387 3.93 5.947 3.93 5.947s5.021 1.075 8.809.753a17.211 17.211 0 0 1 5.934.525 2.98 2.98 0 0 0 2.457-.361 2.57 2.57 0 0 0 .491-.412c-.182.326-.444.6-.761.793a2.98 2.98 0 0 1-2.457.362 17.212 17.212 0 0 0-5.934-.575c-3.793.322-8.809-.753-8.809-.753s-4.834-.54-3.925-5.918z" opacity=".1"/>
        <path fill="#FFC7D1" fill-rule="nonzero" d="M272 125.009l3.9.437 1.879.554s-.056-.152-.14-.412c-.29-.955-.863-3.344.14-4.777 1.27-1.825-3.344 0-3.344 0 .117 1.44-.56 2.839-1.805 3.73a6.702 6.702 0 0 1-.608.422l-.022.046zM280 131.57l4.737-.57s2.759.048 2.184 2a13.24 13.24 0 0 1-2.447-1.241l-3.229 1.096L280 131.57z"/>
        <path fill="#000" fill-rule="nonzero" d="M280 131.573l1.25 1.283 1.67-.565 1.555-.53a12.848 12.848 0 0 0 2.446 1.239c.426-1.444-.98-1.847-1.737-1.956a3.91 3.91 0 0 0-.445-.044l-1.915.228-2.824.345z" opacity=".1"/>
        <circle cx="275" cy="119" r="3" fill="#FFC7D1" fill-rule="nonzero"/>
        <path fill="#000" fill-rule="nonzero" d="M269 142.233c1.118.689 4.118 1.995 6.49-1.994l.109-.115a3.41 3.41 0 0 1 1.403-.813c.324-.092.662-.125.998-.1a18.364 18.364 0 0 1-.145-2.099c0-.354 0-.733.03-1.112l-2.271 1.75s0 .334-.03.828l-6.275 2.369-.309 1.286zM272 124.868l4.05.5L278 126s-.058-.174-.145-.47l-.086-.087a3.867 3.867 0 0 0-2.24-1.201 4.784 4.784 0 0 1-.792-.134 2.758 2.758 0 0 0-2.072.22c-.231.131-.443.293-.63.482l-.035.058z" opacity=".1"/>
        <path fill="#FFE09C" fill-rule="nonzero" d="M269.045 139.462l-.105 1.528s3.772 3.108 6.616-1.58a3.1 3.1 0 0 1 2.378-.97 17.034 17.034 0 0 1-.137-1.974 11.23 11.23 0 0 1 .137-1.997c.195-1.13-.085-3.75-.313-5.517l-.067-.469a5.66 5.66 0 0 0-1.67-3.319 3.196 3.196 0 0 0-1.84-.97 3.996 3.996 0 0 1-.652-.108c-.613-.164-2.03-.29-2.901 1.58-1.137 2.447-1.241 3.281-1.241 3.281s-2.131 3.68-.828 5.199c1.422 1.622.623 5.316.623 5.316z"/>
        <path fill="#000" fill-rule="nonzero" d="M282 131.36l.073 1.64 1.256-.82c.216.27.432.515.637.732.045-.485.045-.98 0-1.465a2.902 2.902 0 0 0-.058-.38 1.71 1.71 0 0 0-.359-.067l-1.549.36z" opacity=".1"/>
        <path fill="#FFC7D1" fill-rule="nonzero" d="M281 137l.855-.574.685-.47.88-1.147c.489-.783.684-1.848.526-2.869-.219-1.87-2.07-.373-2.07-.373l.133 2.433a.727.727 0 0 1-.336.361c-.13.07-.267.117-.406.138L281 137z"/>
        <path fill="#000" fill-rule="nonzero" d="M263.109 130.64c.15-.275.332-.534.54-.771a4.666 4.666 0 0 0 .692-3.105c-.073-1.078-.321-2.147-.316-3.225a3.93 3.93 0 0 1 1.1-2.957c.649-.585 1.54-.829 2.237-1.356.314-.258.609-.536.882-.834.428-.43.886-.83 1.37-1.198a.59.59 0 0 1 .175-.35 2.32 2.32 0 0 1 .37-.182 1.31 1.31 0 0 0 .463-.766 4.484 4.484 0 0 1 2.875-2.722 3.296 3.296 0 0 1 2.28.062 3.35 3.35 0 0 1 1.58 1.653c.234.48.774 1.6.614 2.147-.161.546-.765.652-1.292.647-.165.158-.35.316-.487.48-.205.198-.383.422-.531.665-.35.633-.258 1.404-.224 2.128.034.723-.054 1.543-.629 1.993-.164.117-.336.22-.516.312-1.282.728-2.018 2.127-2.437 3.522-.419 1.394-.638 2.875-1.208 4.203-.57 1.327-1.613 2.611-3.055 2.947a4.223 4.223 0 0 1-3.611-1.045c-.668-.546-1.223-1.438-.872-2.248z" opacity=".1"/>
        <path fill="#AD5975" fill-rule="nonzero" d="M263.106 130.64c.151-.275.332-.534.54-.77a4.666 4.666 0 0 0 .693-3.106c-.073-1.078-.322-2.147-.317-3.225a3.93 3.93 0 0 1 1.102-2.957c.648-.584 1.54-.829 2.237-1.356.313-.257.608-.536.882-.834.428-.43.885-.83 1.37-1.198a.59.59 0 0 1 .175-.35c.117-.071.241-.132.37-.182.24-.194.404-.466.463-.766a4.485 4.485 0 0 1 2.876-2.722 3.298 3.298 0 0 1 2.28.062 3.35 3.35 0 0 1 1.58 1.653c.233.48.774 1.6.614 2.147-.161.546-.766.652-1.292.647-.166.158-.35.316-.487.48-.205.199-.384.422-.532.665-.35.633-.258 1.404-.224 2.128.034.724-.053 1.543-.628 1.994-.164.116-.337.22-.517.311-1.282.728-2.018 2.128-2.437 3.522-.419 1.395-.638 2.875-1.209 4.203-.57 1.327-1.613 2.612-3.055 2.947a4.225 4.225 0 0 1-3.583-1.02c-.692-.57-1.247-1.481-.901-2.272z"/>
        <path fill="#000" fill-rule="nonzero" d="M274.812 132.19c1.024 1.304 2.596 3.094 3.96 3.81-.015-.63.037-1.26.155-1.883.218-1.065-.096-3.536-.352-5.202-.49-.853-.922-1.525-.922-1.525s-1.999-1.295-3.198.835c-.716 1.284-.58 2.784.357 3.965zM281 137l.898-.439a1.772 1.772 0 0 0-.187-1.561c-.137.054-.28.09-.426.105L281 137z" opacity=".1"/>
        <path fill="#FFE09C" fill-rule="nonzero" d="M274.41 128.261a4.066 4.066 0 0 0 .323 4.108c1.085 1.592 2.855 3.906 4.191 4.226 2.07.497 2.327.397 2.327.397s1.498-1.935.257-3.076c0 0-1.903-.644-2.274-2.132-.371-1.487-1.965-4.363-1.965-4.363s-1.784-1.373-2.86.84z"/>
        <path fill="#000" fill-rule="nonzero" d="M276.994 142s.147.486-1.061.967C274.724 143.45 274 145 274 145" opacity=".1"/>
        <path fill="#000" fill-rule="nonzero" d="M285.18 144.603l.033-.033-.6-.163.307-.207-.52-.123.313-.23-.393-.13.28-.19-.493-.137.4-.253-.474-.137-.033.033.4.117-.4.253.493.134-.273.19.393.13-.32.236.52.124-.306.2z"/>
        <path fill="#000" fill-rule="nonzero" d="M284.713 144.62l.38-.153-.486-.234.206-.156-.426-.174.24-.226-.307-.1.22-.19-.433-.17.346-.194-.053-.023-.4.223.447.174-.227.19.313.103-.233.223.413.174-.2.15.467.226-.313.13z"/>
        <path fill="#8C8296" fill-rule="nonzero" d="M284.973 144l.027-.042-.495-.203.253-.258-.428-.154.258-.287-.324-.162.23-.237-.406-.17.33-.317-.39-.17-.028.042.33.145-.33.316.407.166-.226.237.324.163-.269.295.429.154-.247.25z"/>
        <path fill="#8C8296" fill-rule="nonzero" d="M284.656 144l.344-.19-.442-.287.184-.194-.386-.214.22-.28-.282-.123.203-.235-.399-.21.32-.238-.05-.029-.368.276.411.214-.209.234.289.128-.215.276.38.214-.184.185.43.28-.289.16z"/>
        <path fill="#000" fill-rule="nonzero" d="M270.857 117.351a1.366 1.366 0 0 1-.435.785c-.121.051-.238.114-.348.187a.626.626 0 0 0-.165.358c-.455.377-.885.787-1.286 1.227-.258.305-.535.59-.83.855-.654.54-1.492.79-2.1 1.389a4.24 4.24 0 0 0-1.035 3.028c0 1.11.229 2.2.298 3.304a5.13 5.13 0 0 1-.65 3.18 4.441 4.441 0 0 0-.509.791 1.414 1.414 0 0 0-.1.545c-.518-.58-.884-1.38-.595-2.096.142-.282.312-.547.508-.79a5.13 5.13 0 0 0 .65-3.181c-.069-1.105-.302-2.2-.298-3.304a4.24 4.24 0 0 1 1.035-3.028c.609-.6 1.446-.85 2.101-1.39.294-.263.571-.549.829-.854.402-.44.831-.85 1.286-1.227a.626.626 0 0 1 .165-.358c.11-.074.227-.136.348-.187.226-.2.38-.477.435-.785.448-1.329 1.446-2.359 2.7-2.788.715-.231-1.547 3.028-2.004 4.339z" opacity=".1"/>
        <path fill="url(#d)" fill-rule="nonzero" d="M285.854 119.758l.055.268.63 3.028.758 3.944s.382 2.238 0 2.736c-.382.497.808 7.26.808 7.26l.451 3.096v.078a1.197 1.197 0 0 0-.322.41 4.605 4.605 0 0 1-.853 1.881.859.859 0 0 0-.193.57.92.92 0 0 0 .29.65.95.95 0 0 0 .672.257h1.804c.304 0 .59-.136.779-.37l.44-.566a.911.911 0 0 0 .194-.604.893.893 0 0 0-.05-.278 6.798 6.798 0 0 1-.406-1.746.484.484 0 0 0-.149-.321v-.103c-.129-1.034-.267-2.74.12-3.379.386-.638.242-3.944.108-5.88-.075-1.1.024-2.205.293-3.276.054-.215.109-.424.168-.615.174-.58-.099-3.725-.337-6.055l-.024-.258c.076-.025.15-.054.223-.088a4.382 4.382 0 0 1 1.413-.356l-.03.273c-.248 2.355-.575 5.914-.387 6.538.07.22.134.488.198.731.25 1.015.34 2.06.268 3.101-.134 1.926-.297 5.276.104 5.939.402.663.248 2.355.12 3.389v.102a.522.522 0 0 0-.15.336 7.14 7.14 0 0 1-.436 1.804.725.725 0 0 0-.04.244.738.738 0 0 0 .16.488l.495.643c.188.234.475.37.778.37h1.805a.95.95 0 0 0 .672-.257.92.92 0 0 0 .29-.65.859.859 0 0 0-.194-.57 4.605 4.605 0 0 1-.852-1.882 1.197 1.197 0 0 0-.323-.41v-.077l.452-3.096s1.19-6.768.808-7.26c-.382-.492 0-2.735 0-2.735l.758-3.945.496-2.437.055-.269H298.6l.07-.024h.04l.059-.034h.035l.05-.04.03-.024.039-.043.025-.03.03-.048v-.035a1.72 1.72 0 0 1 1.487-.882H301v-.122a81.919 81.919 0 0 0-1.24-4.68c.069-.3.114-.605.134-.912l-.332-7.655c.291-.05.577-.126.853-.23 0 0 .213-1.95.203-3.788 0-1.59-.139-3.14-.729-3.29a4.093 4.093 0 0 0-.53-.084v-.092c-.307-2.36-.654-2.545-3.47-2.965-1.597-.238-2.217-1.048-2.454-1.755v-.073c.202-.14.387-.304.55-.488a3.462 3.462 0 0 0 1.403-2.76c0-.426-.08-.85-.238-1.247a1.888 1.888 0 0 0-.823-1.55l-.12-.079c.348.278.586.666.675 1.097a3.708 3.708 0 0 0-1.795-1.487c.23-.316.353-.694.352-1.082 0-1.11-.914-2.009-2.042-2.009-1.128 0-2.043.9-2.043 2.009.005.346.108.683.298.975a1.864 1.864 0 0 1 .466-2.823l-.13.063c-.466.237-.815.65-.963 1.147a1.86 1.86 0 0 0 .18 1.476c.113.185.255.35.422.488a3.495 3.495 0 0 0-1.745 2.989 3.379 3.379 0 0 0 .808 2.194 2.147 2.147 0 0 1-2.186 0l.109.083c.664.459 1.536.504 2.246.117.085.087.175.17.267.248.35.424.806.748 1.324.941v.083c-.387 1.336-1.953 1.902-2.9 2.126-1.227.262-2.078 1.361-2.008 2.594v.088c-.23.034-.45.12-.64.253-.282.288-.357 1.702-.352 3.15 0 1.765.114 3.661.114 3.661.134-.287.6-.438 1.14-.487a97.162 97.162 0 0 1-.094 1.95l-1.09 6.826s-1.046 2.599-.382 2.78a.386.386 0 0 0 .322-.098c-.357 1.848-.56 3.232-.56 3.232s.957-.297 1.854-.307zm11.666-11.243a5.763 5.763 0 0 1-.437-3.594c.1.027.198.06.293.098.118 1.161.167 2.329.149 3.496h-.005z"/>
        <path fill="#FFBCC8" fill-rule="nonzero" d="M293.052 128.01c.067.22.134.49.195.734.247 1.016.337 2.06.267 3.101-.128 1.927-.292 5.278.103 5.938.396.66.247 2.353.118 3.39-.061.49-.118.827-.118.827l2.214-.225.072-.49.447-3.096s1.176-6.77.8-7.259c-.374-.489 0-2.734 0-2.734l.756-3.942.514-2.446L299 119l-5.316.357s-.103.895-.231 2.113c-.257 2.358-.58 5.919-.401 6.54zM286 119l.458 2.217.627 3.029.756 3.944s.375 2.241 0 2.736c-.375.494.802 7.262.802 7.262l.447 3.098.072.489 2.217.225s-.057-.343-.119-.837c-.128-1.037-.262-2.74.119-3.381.38-.641.236-3.95.108-5.873-.074-1.1.025-2.205.293-3.278.056-.216.108-.426.164-.612.175-.582-.097-3.729-.334-6.063-.144-1.468-.278-2.594-.278-2.594L286 119z"/>
        <circle cx="292.5" cy="85.5" r="1.5" fill="#40243E" fill-rule="nonzero"/>
        <path fill="#40243E" fill-rule="nonzero" d="M290.635 84.052l.08-.052c-.569.463-.748 1.375-.412 2.097.335.722 1.073 1.013 1.697.67l-.077.056c-.631.393-1.407.111-1.754-.637-.348-.747-.142-1.693.466-2.138v.004zM287.097 92.675l-.097-.07c.804.451 1.86.273 2.426-.409.566-.682.45-1.639-.267-2.196l.106.066c.522.347.798.916.723 1.493-.075.578-.488 1.076-1.084 1.307a1.998 1.998 0 0 1-1.807-.187v-.004zM292.097 90.675l-.097-.07c.804.451 1.86.273 2.426-.41.565-.681.45-1.638-.267-2.195l.106.066c.807.536.975 1.555.376 2.277-.598.721-1.738.872-2.544.336v-.004z"/>
        <circle cx="292.5" cy="90.5" r="3.5" fill="#40243E" fill-rule="nonzero"/>
        <path fill="#FFBCC8" fill-rule="nonzero" d="M285.215 116.992c.626.178 1.795-2.652 1.795-2.652l2.24-6.715-.068-2.343-.156-5.067 6.678.179s1.258 3.182 1.703 4.064c.09.212.152.436.18.665a30.75 30.75 0 0 1 .177 4.194l.49 4.725s.043 2.342.85 1.899c.808-.444.896-2.295.896-2.295l-.318-7.612v-.26a52.187 52.187 0 0 0-.147-6.542c-.02-.186-.039-.362-.059-.525-.288-2.329-.616-2.507-3.258-2.922-1.507-.236-2.094-1.036-2.314-1.73a2.69 2.69 0 0 1-.108-1.143s-3.048-2.343-2.69.482c.047.335.027.676-.06 1.003-.366 1.32-1.844 1.875-2.74 2.092a2.468 2.468 0 0 0-1.898 2.555c.021.293.077.583.167.863a21.5 21.5 0 0 0 .088 2.651c.053.906.053 1.814 0 2.72-.04 1.161-.098 2.227-.098 2.227l-1.032 6.715s-.945 2.594-.318 2.772z"/>
        <path fill="#000" fill-rule="nonzero" d="M291 93.834a1.936 1.936 0 0 0 2-.265 2.233 2.233 0 0 1-.075-.873s-2.134-1.789-1.884.369c.034.257.02.518-.041.77z" opacity=".1"/>
        <circle cx="293" cy="92" r="3" fill="#FFBCC8" fill-rule="nonzero"/>
        <path fill="#000" fill-rule="nonzero" d="M293 140l1.937-.185.063-.403a2.3 2.3 0 0 0-.966-.403c-.158-.049-.544.113-.81.238a.447.447 0 0 0-.116.08c-.059.395-.108.673-.108.673z" opacity=".1"/>
        <path fill="#DFD5E3" fill-rule="nonzero" d="M295.062 139.013s1.294.212 1.687 1.051a5.409 5.409 0 0 0 1.012 2.212c.267.323.314.761.121 1.128a1.15 1.15 0 0 1-1.029.596h-2.134c-.364 0-.705-.162-.92-.437l-.613-.758a.856.856 0 0 1-.135-.822 8.342 8.342 0 0 0 .515-2.12.618.618 0 0 1 .35-.523c.404-.167.932-.396 1.146-.327z"/>
        <path fill="#000" fill-rule="nonzero" d="M290 139.414l.063.401L292 140s-.05-.281-.103-.686a.455.455 0 0 0-.1-.06c-.264-.125-.664-.294-.826-.246-.357.061-.69.2-.971.406z" opacity=".1"/>
        <path fill="#DFD5E3" fill-rule="nonzero" d="M289.779 139.012s-.784.213-1.021 1.052a7.45 7.45 0 0 1-.613 2.212c-.162.323-.19.761-.074 1.128.117.367.36.598.624.596h1.292c.22 0 .427-.162.557-.437l.316-.666c.138-.291.177-.668.104-1.012a12.427 12.427 0 0 1-.294-2.051c-.006-.203-.08-.387-.197-.483-.237-.172-.572-.408-.694-.339z"/>
        <path fill="#000" fill-rule="nonzero" d="M293.25 119.25s-.111.639-.25 1.506c1.067-.08 2.15-.024 2.383-.066.234-.042 1.784.275 2.99.31l.627-2-5.75.25zM286 119l.49 2.137a3.273 3.273 0 0 1 1.477.198c.48.368 2.727.944 4.033.51-.154-1.416-.298-2.5-.298-2.5L286 119z" opacity=".1"/>
        <path fill="#FF808E" fill-rule="nonzero" d="M297.93 102.8s-1.648 2.417 0 5.67c1.646 3.253 3.07 9.967 3.07 9.967s-1.516-.13-1.914.885c-.399 1.015-3.518-.087-3.83 0-.31.087-2.268-.13-3.4.444-1.132.576-3.295-.043-3.742-.444-.447-.401-3.114-.087-3.114-.087s1.424-10.363 3.43-12.137c0 0 1.2-1.45-.31-3.896-1.512-2.446 9.81-.401 9.81-.401z"/>
        <path fill="#000" fill-rule="nonzero" d="M286.172 99.345c-.025.851.004 1.703.086 2.55.052.871.052 1.745 0 2.616a7.03 7.03 0 0 1 1.83 0c.198.016.396.002.589-.042.717-.13 1.807-.464 2.127-.849.44-.51 1.84.339 2.146.552.306.213 2.146.297 2.63.084a1.77 1.77 0 0 1 1.314.046c.255.102.49.244.698.422.4.264.9.343 1.367.218.086-2.098.038-4.2-.144-6.292-.019-.18-.038-.348-.057-.505-1.845-.2-6.816-.135-6.816-.135s-4.302.093-5.942.464c.02.296.078.589.172.871z" opacity=".1"/>
        <ellipse cx="293" cy="89.5" fill="#000" fill-rule="nonzero" opacity=".1" rx="3" ry="1.5"/>
        <ellipse cx="293" cy="89.5" fill="#40243E" fill-rule="nonzero" rx="3" ry="1.5"/>
        <path fill="#000" fill-rule="nonzero" d="M296 97.18c-.062 0-1.716 0-2-.18M291 97.18a4.758 4.758 0 0 1-2-.18" opacity=".1"/>
        <path fill="#000" fill-rule="nonzero" d="M293 98s-1.028.496-1.075 1c0 0-.383-.937-.925-.98" opacity=".05"/>
        <path fill="#000" fill-rule="nonzero" d="M293.188 142.508l.613.838c.215.303.557.483.92.483h2.135c.6.001 1.099-.48 1.14-1.099.025.328-.085.652-.301.893-.217.241-.521.378-.84.377h-2.134c-.363 0-.705-.18-.92-.483l-.613-.838a1.022 1.022 0 0 1-.184-.679c.015.184.078.36.184.508zM288.693 143.825h1.294c.22 0 .428-.176.558-.475l.316-.725c.079-.184.126-.4.138-.625.01.287-.038.572-.138.806l-.309.719c-.13.299-.337.475-.557.475h-1.302c-.192 0-.377-.133-.508-.37a1.704 1.704 0 0 1-.183-.88c.027.608.329 1.077.691 1.075z" opacity=".1"/>
        <path fill="#000" fill-rule="nonzero" d="M288.545 106.912s1.235-1.42-.32-3.818c-.415-.635.105-.947 1.085-1.094-.17.175-.18.403 0 .701 1.56 2.368.32 3.818.32 3.818-2.06 1.738-3.53 11.894-3.53 11.894s2.75-.303 3.205.085c.455.389 2.705 1 3.85.436 1.145-.563 3.16-.346 3.5-.436.215-.056 1.725.413 2.825.427-.47.947-3.605-.119-3.925-.033-.32.085-2.335-.128-3.5.435-1.165.564-3.39-.042-3.85-.435-.46-.394-3.205-.086-3.205-.086s1.5-10.155 3.545-11.894zM301.445 118l.055.242a3.113 3.113 0 0 0-.5 0c.134-.103.284-.185.445-.242z"/>
        <path fill="#000" fill-rule="nonzero" d="M291.918 99.01s6.253-.083 7.405.215c1.152.297.484 6.51.484 6.51s-1.452.596-2.173 0a2.077 2.077 0 0 0-2.038-.465c-.484.214-2.352.126-2.662-.083-.31-.21-1.728-1.065-2.173-.554-.446.512-2.353.982-2.75.893-.396-.088-2.618-.214-2.904.465 0 0-.353-5.669.223-6.264.576-.595 6.588-.716 6.588-.716z" opacity=".1"/>
        <path fill="#FF808E" fill-rule="nonzero" d="M291.918 98.01s6.253-.083 7.405.215c1.152.297.484 6.51.484 6.51s-1.452.596-2.173 0a2.077 2.077 0 0 0-2.038-.465c-.484.214-2.352.126-2.662-.083-.31-.21-1.728-1.065-2.173-.554-.446.512-2.353.982-2.75.893-.396-.088-2.618-.214-2.904.465 0 0-.353-5.669.223-6.264.576-.595 6.588-.716 6.588-.716z"/>
        <path fill="url(#e)" fill-rule="nonzero" d="M229 201h114v114H229z"/>
        <path fill="#FFF" fill-rule="nonzero" d="M341 314H231V203h110z"/>
        <path fill="#6C63FF" fill-rule="nonzero" d="M337 283H236v-76h101z" opacity=".5"/>
        <ellipse cx="310.5" cy="274" fill="#6C63FF" fill-rule="nonzero" opacity=".1" rx="17.5" ry="3"/>
        <circle cx="254" cy="218" r="4" fill="#FFDF9C" fill-rule="nonzero"/>
        <path fill="#6C63FF" fill-rule="nonzero" d="M318.895 257s-.404.481.185 1.207c.59.727 1.074 1.34.874 1.793 0 0-.905-1.349-1.608-1.37-.702-.02-.244-.817.549-1.63z"/>
        <path fill="#000" fill-rule="nonzero" d="M318.896 257a.576.576 0 0 0-.083.15c-.717.759-1.1 1.464-.412 1.48.689.017 1.414 1.05 1.599 1.312V260s-.924-1.349-1.64-1.37c-.716-.02-.273-.817.536-1.63z" opacity=".1"/>
        <path fill="#FFD037" fill-rule="nonzero" d="M318 257.263c0 .408 0 .737.1.737s.1-.329.1-.737-.06-.22-.11-.22-.09-.188-.09.22zM318.213 258.277c.36.2.67.31.7.26.03-.05-.24-.25-.6-.44s-.22-.05-.24 0c-.02.05-.22-.02.14.18z"/>
        <path fill="#6C63FF" fill-rule="nonzero" d="M321.105 257s.404.481-.185 1.207c-.59.727-1.074 1.34-.874 1.793 0 0 .905-1.349 1.608-1.37.702-.02.244-.817-.549-1.63z"/>
        <path fill="#000" fill-rule="nonzero" d="M321.104 257a.576.576 0 0 1 .083.15c.717.759 1.1 1.464.412 1.48-.689.017-1.414 1.05-1.599 1.312V260s.924-1.349 1.64-1.37c.716-.02.273-.817-.536-1.63z" opacity=".1"/>
        <path fill="#FFD037" fill-rule="nonzero" d="M321.2 257.263c0 .408 0 .737-.1.737s-.1-.329-.1-.737.06-.22.11-.22.09-.188.09.22zM321.702 258.277c-.36.2-.67.31-.7.26-.03-.05.24-.25.6-.44s.22-.05.24 0c.02.05.22-.02-.14.18z"/>
        <path fill="#A8A8A8" fill-rule="nonzero" d="M322 260.572s-1.343-.035-1.75-.26c-.406-.226-2.068-.5-2.166-.133-.097.367-2.02 1.812-.503 1.82 1.516.01 3.525-.187 3.932-.379.406-.192.487-1.048.487-1.048z"/>
        <path fill="#000" fill-rule="nonzero" d="M317.548 262.82c1.516 0 3.526-.262 3.932-.53.309-.21.428-.95.471-1.29H322s-.087 1.194-.487 1.468c-.401.275-2.41.544-3.933.532-.439 0-.59-.173-.58-.43.055.15.223.245.548.25z" opacity=".2"/>
        <path fill="#E2E7F0" fill-rule="nonzero" d="M278 224h17v6h-17z"/>
        <path fill="#FFF" fill-rule="nonzero" d="M295 230h-5v-6h5z" opacity=".4"/>
        <path fill="#D8E2F0" fill-rule="nonzero" d="M293 228h-2v-2h2z"/>
        <path fill="#FFF" fill-rule="nonzero" d="M289 230h-5v-6h5z" opacity=".4"/>
        <path fill="#D8E2F0" fill-rule="nonzero" d="M287 228h-2v-2h2z"/>
        <path fill="#FFF" fill-rule="nonzero" d="M285 230h-5v-6h5z" opacity=".4"/>
        <path fill="#D8E2F0" fill-rule="nonzero" d="M282 228h-2v-2h2z"/>
        <path fill="#000" fill-rule="nonzero" d="M278 224v.85h17V224z" opacity=".1"/>
        <path fill="#6C63FF" fill-rule="nonzero" d="M279.58 220.996l2.182-1.996h10.587l2.012 1.985c1.13.651 2.406.853 3.639.573 0 0-.077 3.441-2.895 3.441h-16.407s-2.355.127-2.698-3.44a5.639 5.639 0 0 0 3.58-.563z"/>
        <path fill="#E2E7F0" fill-rule="nonzero" d="M275 235h24v8h-24z"/>
        <path fill="#FFF" fill-rule="nonzero" d="M297 242h-6v-7h6z" opacity=".4"/>
        <path fill="#D8E2F0" fill-rule="nonzero" d="M294 239h-3v-2h3z"/>
        <path fill="#FFF" fill-rule="nonzero" d="M289 242h-6v-7h6z" opacity=".4"/>
        <path fill="#D8E2F0" fill-rule="nonzero" d="M287 239h-3v-2h3z"/>
        <path fill="#FFF" fill-rule="nonzero" d="M282 242h-6v-7h6z" opacity=".4"/>
        <path fill="#D8E2F0" fill-rule="nonzero" d="M280 239h-3v-2h3z"/>
        <path fill="#6C63FF" fill-rule="nonzero" d="M300 261h-28v-9h28z"/>
        <path fill="#E2E7F0" fill-rule="nonzero" d="M300 261h-28v-9h28z"/>
        <path fill="#D8E2F0" fill-rule="nonzero" d="M298 261h-9v-9h9z"/>
        <path fill="#FFF" fill-rule="nonzero" d="M297 261h-6v-9h6z" opacity=".4"/>
        <path fill="#D8E2F0" fill-rule="nonzero" d="M293 260h-2v-7h2zM284 261h-9v-9h9z"/>
        <path fill="#FFF" fill-rule="nonzero" d="M282 261h-6v-9h6z" opacity=".4"/>
        <path fill="#D8E2F0" fill-rule="nonzero" d="M280 260h-2v-7h2z"/>
        <path fill="#6C63FF" fill-rule="nonzero" d="M303.402 261.505v-9.554c5.439-.397 5.598-6.24 5.598-6.24-2.64.496-5.365.113-7.773-1.092L296.93 241H274.33l-4.668 3.653a13.86 13.86 0 0 1-7.662 1.058c.67 5.916 4.909 6.25 5.656 6.264v9.535m0 0h35.746m-1.982 0h-31.806m0 0v-9.54h31.825v9.535"/>
        <path fill="#000" fill-rule="nonzero" d="M275 235h24v1h-24z" opacity=".1"/>
        <path fill="#6C63FF" fill-rule="nonzero" d="M274.377 230.671l3.106-2.671h16.201l2.868 2.646a8.309 8.309 0 0 0 5.448.8s-.12 4.553-4.344 4.553h-24.608s-3.532.167-4.048-4.553a9.36 9.36 0 0 0 5.377-.775z"/>
        <path fill="#000" fill-rule="nonzero" d="M300 252h-28v-1h28zM301 244h-31a120.625 120.625 0 0 0 31 0zM298 231h-23a66.625 66.625 0 0 0 23 0zM295 220h-15a28.625 28.625 0 0 0 15 0z" opacity=".1"/>
        <path fill="#D8E2F0" fill-rule="nonzero" d="M323 263h-79v-2h79z"/>
        <path fill="url(#f)" fill-rule="nonzero" d="M318.121 241.728a6.1 6.1 0 0 0 1 1.064c.932.702 2.217.658 3.393.741.432.057.87.057 1.301 0 .167-.033.327-.09.476-.172.293-.113.527-.338.65-.623.21-.564-.175-1.172-.625-1.58a4.646 4.646 0 0 1-1.256-1.3c-.34-.73-.065-1.658-.5-2.344a.73.73 0 0 0-.35-.314 1.597 1.597 0 0 0-.601 0 2.145 2.145 0 0 1-1.817-1.261c-.365-.677-.5-1.447-.85-2.14a3.65 3.65 0 0 0-1.821-1.82 13.21 13.21 0 0 0-1.502-.416c-.554-.2-1.119-.372-1.69-.515a2.15 2.15 0 0 0-1.397.171c-.146.062-.28.148-.395.255-.4.378-.5.982-.9 1.364-.169.134-.305.301-.4.49-.106.285.17.408.454.491a2.633 2.633 0 0 0-.34 1.3c.001 1.37 1.049 2.522 2.437 2.68l.075.127c.17.29.32.592.45.902-.114.268-.16.56-.135.849a.98.98 0 0 0 .415.603 4.166 4.166 0 0 0-1 .815 2.452 2.452 0 0 1-1.066.8l-.13.039a1.464 1.464 0 0 0-.88 1.834c.314 1.472-.381 3.72-.381 3.72l-.255 1.858v.064l-2.282 1.472s-3.622 1.177-2.412 2.541c1.211 1.364 3.113-1.472 3.113-1.472l1.406-.632-.035.323c-.185 1.708-.5 3.925-.866 4.96l-.465 1.712-.826 3.783s-.445.804 0 2.477l-1.46 4.646v.064a15.578 15.578 0 0 1-.942 2.556l-.075.127-.04.06v.024a.365.365 0 0 0-.44.073 1.2 1.2 0 0 0-.17.221c-.255.432-2.162.805-2.542.682-.38-.123-1.716-.25-1.396.682.32.932 6.034 2.291 6.034 2.291s.636-.868.57-1.472a6.946 6.946 0 0 1 0-1.24c-.083.072-.171.14-.264.2V273.385l.04-.162V272.88l.025-.087v-.094l.025-.078.03-.088v-.119l.03-.078.03-.073V272.148l.035-.073.025-.054v-.03l.025-.048.035-.064.025-.044.03-.044.04-.054.03-.035.04-.039c.5-.431 2.161-4.773 2.161-4.773l.5-3.037s1.272-3.326 2.543-4.734l2.286 3.743a21.875 21.875 0 0 0 2.032 2.419s1.65 3.223 2.732 4.523c.508.687.752 1.528.69 2.374 0 .148 0 .285-.025.408-.126.431-.436.789-.85.98-.951.374-2.287.982-1.842 1.55.446.57 1.967 1.056 3.303.62a23.895 23.895 0 0 0 3.237-1.473l-.686-2.639a4.22 4.22 0 0 1-.225.397l-.08-.103c-.5-.75-1.346-3.272-1.346-3.272-.825-3.782-3.002-5.578-3.002-5.578l-1-1.962-1.066-4.062c.217-.09.429-.192.635-.304a.47.47 0 0 0 .746.025c1.27-1.115-.256-3.842-.256-3.842s-.065-1.364 0-2.355c.065-.991-.57-3.037-.57-3.037l-.42-2.565.545-1.526a7.81 7.81 0 0 0 .225-1.712zm-1.406 8.457c.196.563.294 1.153.29 1.747a3.387 3.387 0 0 0-.735-.82s-1.266-1.923-.335-3.326c.1-.152.195-.304.295-.46.03.97.193 1.932.485 2.86z"/>
        <path fill="#FFCDD3" fill-rule="nonzero" d="M315.735 244l.35 3.227s.434 2.129.392 3.138a43.22 43.22 0 0 0 0 2.453s1.05 2.84.175 4.002c-.875 1.16-1.127-3.662-1.127-3.662s.13-2.066-.175-3.138-.35-3.483-.35-3.483l.735-2.537z"/>
        <path fill="#000" fill-rule="nonzero" d="M315.735 244l.35 3.227s.434 2.129.392 3.138a43.22 43.22 0 0 0 0 2.453s1.05 2.84.175 4.002c-.875 1.16-1.127-3.662-1.127-3.662s.13-2.066-.175-3.138-.35-3.483-.35-3.483l.735-2.537z" opacity=".05"/>
        <path fill="#FFCDD3" fill-rule="nonzero" d="M308.996 254l-.759 2.976-.71 3.49s-.384.742 0 2.29l-1.258 4.289s-.71 2.744-1.147 2.78c-.437.038.441 2.175.441 2.175l1.205-.742s.326-1.715.768-2.118c.44-.403 1.862-4.404 1.862-4.404l.44-2.781s1.369-3.834 2.573-4.747a4.862 4.862 0 0 0 1.589-2.401l-5.004-.807z"/>
        <path fill="#000" fill-rule="nonzero" d="M314 254.802a4.865 4.865 0 0 1-1.588 2.403c-1.205.927-2.572 4.75-2.572 4.75l-.441 2.782s-1.421 4.007-1.862 4.406c-.322.292-.583 1.299-.702 1.809-.044.185-.066.306-.066.306l-1.204.742s-.883-2.12-.441-2.175c.066 0 .14-.084.22-.2.441-.64.931-2.602.931-2.602l1.257-4.29c-.383-1.544 0-2.29 0-2.29l.71-3.493.777-2.95 4.981.802z" opacity=".05"/>
        <path fill="#FFCDD3" fill-rule="nonzero" d="M322 271.823l-.467 1.177-2.082-.246c.064-.321.1-.648.107-.976a3.814 3.814 0 0 0-.625-2.378c-.986-1.302-2.489-4.525-2.489-4.525a21.522 21.522 0 0 1-1.868-2.419l-2.885-5.214.089-.468L311 256h4.856l1.158 4.837.933 1.986s1.97 1.8 2.722 5.586c0 0 .752 2.514 1.228 3.274.03.05.065.097.103.14z"/>
        <path fill="#000" fill-rule="nonzero" d="M307 273.117c-.048.156-.072.258-.072.258l-1.313.625s-.961-1.785-.48-1.832c.072 0 .153-.07.24-.168.128.06.191.184.154.3a.667.667 0 0 1-.096.208c-.178.242.596.625.596.625.27.273.692.129.971-.016z" opacity=".1"/>
        <path fill="#DCE6F2" fill-rule="nonzero" d="M305.32 272.335c.033-.12-.036-.245-.168-.303a.383.383 0 0 0-.398.056.948.948 0 0 0-.152.167c-.23.328-1.942.61-2.301.518-.36-.091-1.542-.186-1.257.518.285.704 5.44 1.709 5.44 1.709a1.98 1.98 0 0 0 .516-1.142 4.443 4.443 0 0 1 0-.94s-.8.609-1.197.186c0 0-.74-.38-.57-.609a.674.674 0 0 0 .087-.16z"/>
        <path fill="#000" fill-rule="nonzero" d="M322 271.311l-.366 1.689-1.634-.354c.05-.46.079-.929.084-1.4.033-.13.096-.222.17-.242.073-.02.147.033.197.141.084.18.168.368.234.52.183.447.773.18.773.18.154.101.333-.332.465-.722.023.068.048.13.077.188z" opacity=".1"/>
        <path fill="#DCE6F2" fill-rule="nonzero" d="M321.046 271.562c-.07-.087-.17-.12-.265-.088-.094.032-.17.125-.198.246-.085.635-.394 1.182-.835 1.475-.863.448-2.068 1.21-1.67 1.863.4.653 1.781 1.27 2.991.744a19.71 19.71 0 0 0 2.931-1.814l-.862-2.988s-.464 1.27-.807 1.119c0 0-.747.224-.979-.151a2.13 2.13 0 0 1-.306-.406z"/>
        <path fill="#FFCDD3" fill-rule="nonzero" d="M313 237.695s1.823 2.24 1.355 3.802c-.468 1.563 3.645-1.018 3.645-1.018-1.308-1.171-1.947-2.824-1.731-4.479L313 237.695z"/>
        <path fill="#FF748E" fill-rule="nonzero" d="M316.94 255.066c-2.354 1.403-5.135.81-5.135.81l.056-.403h-.122c-2.23.196-2.739-.468-2.739-.468.403-1.512.667-3.057.79-4.617l.067-.65c.047-.468.08-.851.103-1.118.024-.267.028-.365.028-.365l.236-1.73s.64-2.077.348-3.462a1.4 1.4 0 0 1 .814-1.698l.118-.033c.39-.153.728-.41.978-.744.443-.5 1.007-.88 1.638-1.103.292-.108.541-.22.541-.22.41-.468 1.516-.173 1.516-.173 1.341.865.64 3.695.64 3.695l-.56 1.576a11.667 11.667 0 0 1-1.266 2.48c-.857 1.31.306 3.1.306 3.1 1.816 1.428 1.642 5.123 1.642 5.123z"/>
        <path fill="#000" fill-rule="nonzero" d="M311 252.738l-.14 3.224c-1.515.204-1.86-.486-1.86-.486a40.15 40.15 0 0 0 .537-4.8l.044-.676 1.419 2.738z" opacity=".05"/>
        <path fill="#000" fill-rule="nonzero" d="M316.364 244.536s-1.139 2.084-1.532 2.977c-.393.893-.378.61-.572.917a19.194 19.194 0 0 1-2.217 1.652L310 251c.087-.789.148-1.488.184-1.875l1.956-1.225s1.328-.794 1.394-1.836c.173-1.01.471-1.996.89-2.936 0 0 1.644-1.712 2.344-.918.7.794-.404 2.326-.404 2.326z" opacity=".1"/>
        <path fill="#FFCDD3" fill-rule="nonzero" d="M314.569 243.08a12.003 12.003 0 0 0-.836 2.817c-.058 1-1.311 1.761-1.311 1.761l-3.928 2.585s-3.396 1.113-2.262 2.408c1.133 1.294 2.915-1.428 2.915-1.428l3.213-1.466a18.079 18.079 0 0 0 2.084-1.585c.178-.295.178 0 .538-.88.36-.88 1.44-2.856 1.44-2.856s1.014-1.466.356-2.232c-.658-.767-2.21.875-2.21.875z"/>
        <path fill="#000" fill-rule="nonzero" d="M313 244c.445-.256.87-.534 1.271-.833a.355.355 0 0 1 .369-.034c.246.083.513.118.78.101.228 0 .453 0 .423.098-.05.21.157-1.082.157-1.082l-.894-.25-1.157.5L313 244z" opacity=".1"/>
        <path fill="#FF748E" fill-rule="nonzero" d="M313 244c.445-.256.87-.534 1.271-.833a.355.355 0 0 1 .369-.034c.246.083.513.118.78.101.228 0 .453 0 .423.098-.05.21.157-1.082.157-1.082l-.894-.25-1.157.5L313 244z"/>
        <path fill="#000" fill-rule="nonzero" d="M311 244.19c.65.395 1.395.324 2-.19M314.651 236.097c-.034-.343.308.366.349-.028l-2 1.427s.113.194.259.5c.076.005.153.005.229 0 .604.005.795-1.385 1.163-1.9z" opacity=".1"/>
        <circle cx="314" cy="236" r="3" fill="#FFCDD3" fill-rule="nonzero"/>
        <path fill="#000" fill-rule="nonzero" d="M311.548 235.224c0 .179.03.356.09.522.109.22.336.319.53.45.753.618 1.06 1.701.761 2.684-.127.329-.185.686-.17 1.044.1.6.724.914 1.277.966a5.4 5.4 0 0 1 1.656.178c.87.37 1.254 1.493 1.996 2.12.861.73 2.049.684 3.132.767.398.06.803.06 1.201 0 .405-.066.752-.352.923-.762.198-.585-.161-1.217-.577-1.645a4.63 4.63 0 0 1-1.16-1.347c-.316-.763-.06-1.723-.472-2.439a.711.711 0 0 0-.322-.324 1.31 1.31 0 0 0-.558 0c-.738-.057-1.385-.562-1.68-1.31-.335-.705-.473-1.504-.785-2.225-.335-.835-.933-1.507-1.684-1.89-.454-.175-.916-.32-1.386-.434a15.16 15.16 0 0 0-1.56-.522 1.636 1.636 0 0 0-1.538.381c-.37.392-.473 1.008-.833 1.42a1.54 1.54 0 0 0-.369.486c-.151.476.587.523.833.71.366.27.618.692.695 1.17z" opacity=".1"/>
        <path fill="#2D283D" fill-rule="nonzero" d="M312.548 235.224c0 .179.03.356.09.522.109.22.336.319.53.45.753.618 1.06 1.701.761 2.684-.127.329-.185.686-.17 1.044.1.6.724.914 1.277.966a5.4 5.4 0 0 1 1.656.178c.87.37 1.254 1.493 1.996 2.12.861.73 2.049.684 3.132.767.398.06.803.06 1.201 0 .405-.066.752-.352.923-.762.198-.585-.161-1.217-.577-1.645a4.63 4.63 0 0 1-1.16-1.347c-.316-.763-.06-1.723-.472-2.439a.711.711 0 0 0-.322-.324 1.31 1.31 0 0 0-.558 0c-.738-.057-1.385-.562-1.68-1.31-.335-.705-.473-1.504-.785-2.225-.335-.835-.933-1.507-1.684-1.89-.454-.175-.916-.32-1.386-.434a15.16 15.16 0 0 0-1.56-.522 1.636 1.636 0 0 0-1.538.381c-.37.392-.473 1.008-.833 1.42a1.54 1.54 0 0 0-.369.486c-.151.476.587.523.833.71.366.27.618.692.695 1.17z"/>
        <path fill="url(#g)" fill-rule="nonzero" d="M137.089 115.089h114v114h-114z" transform="rotate(-82.34 194.09 172.09)"/>
        <path fill="#FFF" fill-rule="nonzero" d="M241.018 234.672L132 220.009 146.796 110l109.018 14.663z"/>
        <path fill="#6C63FF" fill-rule="nonzero" d="M241.098 204.785L141 191.322 151.13 116l100.099 13.463z" opacity=".5"/>
        <path stroke="#6C63FF" d="M163 160s-2.094 2.61-.984 4.302C163.126 165.995 161 170 161 170"/>
        <path fill="#6C63FF" fill-rule="nonzero" d="M162.006 157.947a1.48 1.48 0 0 0 .327 1.053c.744-.485.886-1.37.323-2-.337.248-.565.58-.65.947z"/>
        <path stroke="#6C63FF" d="M162.502 160s1.358 2.967-.412 4.33-.853 5.67-.853 5.67"/>
        <path fill="#6C63FF" fill-rule="nonzero" d="M161.994 158.053c-.085.366-.313.699-.65.947-.563-.63-.42-1.515.323-2 .245.312.36.682.327 1.053z"/>
        <path fill="#000" fill-rule="nonzero" d="M161.994 158.053c-.085.366-.313.699-.65.947-.563-.63-.42-1.515.323-2 .245.312.36.682.327 1.053z" opacity=".1"/>
        <path stroke="#6C63FF" d="M162 159s-2.094 2.614-.984 4.308C162.126 165.003 160 169 160 169"/>
        <path fill="#6C63FF" fill-rule="nonzero" d="M161.006 157.947a1.48 1.48 0 0 0 .327 1.053c.744-.485.886-1.37.323-2-.337.248-.565.58-.65.947zM161.228 161.3c.195.35.462.596.76.7.09-.953-.346-1.838-.984-2-.024.458.055.915.224 1.3z"/>
        <path fill="#6C63FF" fill-rule="nonzero" d="M161.228 162.3c.195.35.462.596.76.7.09-.953-.346-1.838-.984-2-.024.458.055.915.224 1.3zM162.644 165.537a2.68 2.68 0 0 0-.644 1.46c1.033.056 1.92-.828 2-1.997a2.083 2.083 0 0 0-1.356.537zM162.805 160.128c-.359.18-.642.46-.805.8.82.242 1.706-.144 2-.872a2.07 2.07 0 0 0-1.195.072z"/>
        <path fill="#000" fill-rule="nonzero" d="M162.805 160.128c-.359.18-.642.46-.805.8.82.242 1.706-.144 2-.872a2.07 2.07 0 0 0-1.195.072z" opacity=".1"/>
        <path stroke="#6C63FF" d="M161.504 159s1.354 2.972-.411 4.337c-1.765 1.366-.862 5.663-.862 5.663"/>
        <path fill="#6C63FF" fill-rule="nonzero" d="M161.994 158.053c-.085.366-.313.699-.65.947-.563-.63-.42-1.515.323-2 .245.312.36.682.327 1.053z"/>
        <path fill="#000" fill-rule="nonzero" d="M161.994 158.053c-.085.366-.313.699-.65.947-.563-.63-.42-1.515.323-2 .245.312.36.682.327 1.053z" opacity=".1"/>
        <path fill="#6C63FF" fill-rule="nonzero" d="M159.803 160.398c.143.215.212.47.194.727a1.002 1.002 0 1 1-1.963.132 1 1 0 0 1 .53-1.156c.431-.21.95-.085 1.24.297z"/>
        <path fill="#000" fill-rule="nonzero" d="M159.803 160.398c.143.215.212.47.194.727a1.002 1.002 0 1 1-1.963.132 1 1 0 0 1 .53-1.156c.431-.21.95-.085 1.24.297z" opacity=".1"/>
        <path fill="#6C63FF" fill-rule="nonzero" d="M158.803 163.398c.143.215.212.47.194.727a1.002 1.002 0 1 1-1.963.132 1 1 0 0 1 .53-1.156c.431-.21.95-.085 1.24.297z"/>
        <path stroke="#6C63FF" d="M161 163s-.722-1.772-2-2M161 162s.928-1.108 2-.991M162 164s-.722-1.772-2-2"/>
        <circle cx="159.562" cy="161.562" r="1" fill="#6C63FF" fill-rule="nonzero" transform="rotate(-82.34 159.562 161.562)"/>
        <circle cx="164.562" cy="161.562" r="1" fill="#6C63FF" fill-rule="nonzero" transform="rotate(-82.34 164.562 161.562)"/>
        <path stroke="#6C63FF" d="M161 164s.928-1.108 2-.991"/>
        <circle cx="163.562" cy="163.562" r="1" fill="#6C63FF" fill-rule="nonzero" transform="rotate(-82.34 163.562 163.562)"/>
        <circle cx="160.562" cy="162.562" r="1" fill="#6C63FF" fill-rule="nonzero" transform="rotate(-82.34 160.562 162.562)"/>
        <path fill="#A8A8A8" fill-rule="nonzero" d="M155 167.66s2.397-.169 3.102-.766c.704-.598 3.654-1.393 3.856-.48.203.914 3.74 4.437 1.014 4.561-2.727.124-6.305-.236-7.04-.699-.734-.462-.932-2.616-.932-2.616z"/>
        <path fill="#000" fill-rule="nonzero" d="M163.025 169.796c-2.703.074-6.298-.142-7.033-.42-.562-.21-.82-1.014-.911-1.376H155s.218 1.289.952 1.566c.734.277 4.33.494 7.033.42.78-.021 1.043-.214 1.013-.488-.102.173-.395.28-.973.298z" opacity=".2"/>
        <path fill="#6C63FF" fill-rule="nonzero" d="M229.845 181s-.786.826 0 2.357c.785 1.532 1.452 2.822 1.018 3.643 0 0-1.141-2.784-2.335-3.002-1.193-.218-.197-1.63 1.317-2.998z"/>
        <path fill="#000" fill-rule="nonzero" d="M229.885 181c-.071.08-.13.171-.176.27-1.391 1.286-2.209 2.554-1.057 2.744 1.07.181 2.104 2.322 2.348 2.88a1.096 1.096 0 0 1-.05.106s-1.174-2.786-2.402-3.005c-1.228-.218-.221-1.625 1.337-2.995z" opacity=".1"/>
        <path fill="#FFD037" fill-rule="nonzero" d="M228.067 182.256c-.09.404-.09.738 0 .744.09.006.25-.311.35-.715.1-.403 0-.219-.15-.23-.15-.012-.1-.202-.2.201z"/>
        <path fill="#FFD037" fill-rule="nonzero" d="M228.23 182.452c.383.369.726.606.766.536.04-.07-.242-.421-.625-.79-.383-.369-.242-.123-.282-.053-.04.07-.242-.061.141.307z"/>
        <path fill="#6C63FF" fill-rule="nonzero" d="M234.414 182s.742 1.105-.814 2.468c-1.555 1.362-2.85 2.523-2.559 3.532 0 0 2.435-2.584 4.062-2.437 1.627.146.825-1.67-.69-3.563z"/>
        <path fill="#000" fill-rule="nonzero" d="M234.42 182c.065.107.11.221.137.339 1.339 1.766 1.954 3.334.419 3.197-1.428-.126-3.478 1.832-3.974 2.332a.998.998 0 0 0 0 .132s2.45-2.59 4.087-2.444c1.637.147.855-1.659-.67-3.556z" opacity=".1"/>
        <path fill="#FFD037" fill-rule="nonzero" d="M235.425 183.283c-.09.405-.25.728-.35.717-.1-.012-.1-.341 0-.746.1-.404.15-.208.24-.196.09.011.21-.18.11.225z"/>
        <path fill="#FFD037" fill-rule="nonzero" d="M235.756 183.44c-.395.25-.73.38-.755.29-.024-.09.282-.37.677-.62.395-.25.228 0 .252.05.023.05.221.02-.174.28z"/>
        <path fill="#A8A8A8" fill-rule="nonzero" d="M234 188.307s-2.06-.428-2.624-1.094c-.565-.666-3.053-1.76-3.301-.892-.248.868-3.583 3.922-1.251 4.338 2.332.415 5.477.458 6.149.091.672-.366 1.027-2.443 1.027-2.443z"/>
        <path fill="#000" fill-rule="nonzero" d="M226.81 189.517c2.331.308 5.476.34 6.148.068.511-.208.842-1.15.974-1.585H234s-.355 1.535-1.027 1.812c-.672.276-3.817.244-6.15-.068-.67-.09-.875-.34-.812-.67.058.221.297.375.798.443z" opacity=".2"/>
        <path fill="url(#h)" fill-rule="nonzero" d="M164.11 174.884c-.767 5.268 2.524 10.286 7.7 11.739 5.177 1.453 10.641-1.107 12.786-5.988 2.144-4.882.307-10.58-4.299-13.331l-.117-.068 2.599-4.924 10.684 14.283a2.248 2.248 0 0 0-.335 1.537c-.17.058-.34.125-.486.197a3.376 3.376 0 0 1-1.69.365s-1.413.893 1.005 1.398l.136.029-.199 1.441 5.43.72.165-1.2c1.69.386 3.414.61 5.147.667.147 4.804 3.551 8.905 8.286 9.981 4.735 1.077 9.607-1.142 11.86-5.4a10.488 10.488 0 0 0-2.276-12.717c-3.593-3.234-8.94-3.663-13.013-1.044l-.127.086-1.039-1.393 1.321-.817-2.185-1.868a2.457 2.457 0 0 1-.272.413l-.102-.072c-.272-.197-.675-.48-1.093-.822l-.048-.038.485-3.594v-.144c.529.091 1.062.15 1.598.178 2.346.096 2.836-1.355 2.083-2.32-.597-.77-3.23-.711-4.273-.654a7.246 7.246 0 0 1-.802 0h-.126c.806-1.177 1.943-2.728 3.298-5.054 1.612-2.738 1.641-4.515 1.389-5.52 0-.321-.214-3.665-1.457-4.856-1.244-1.192-2.21-2.73-3.463-7.043-.83-2.883-2.802-3.613-4.036-3.795.297-.169.457-.48.734-.678.534-.374 1.457-.269 1.733-.836.578-1.196-1.393-1.057-1.98-1.21-.589-.154-.487-.52-.487-.961a3.717 3.717 0 0 0-.485-1.643 1.21 1.21 0 0 0-.35-.404 1.356 1.356 0 0 0-.65-.177c-.782-.058-1.584.09-2.346-.087-.292-.067-.573-.187-.87-.24a2.471 2.471 0 0 0-2.428 1.167 4.122 4.122 0 0 0-.451 2.638c.013.452.184.885.485 1.225.172.13.334.27.486.423.09.137.165.283.223.437a3.032 3.032 0 0 0 0 .384 6.757 6.757 0 0 0-3.725 6.02c0 1.835-.238 4.121-.238 4.121.25.273.548.498.88.663l-.083 1.542a5.92 5.92 0 0 1-.15 1.014V149.913c0 .115.043.24.072.37a9.188 9.188 0 0 1 .156 3.257l-.267 1.98a20.691 20.691 0 0 0-4.226-.092l-.14-.067s-1.768 0-1.307 1.484l.267.115-.058.125-4.594 9.483a10.933 10.933 0 0 0-2.661-.7 10.77 10.77 0 0 0-7.928 2.03 10.547 10.547 0 0 0-4.145 6.986zm5.722 7.653l4.419-5.255c.072.038.149.068.228.09l-1.33 6.678a8.16 8.16 0 0 1-3.317-1.513zm7.202 1.379l-1.4-6.831 5.037 4.693a8.143 8.143 0 0 1-3.637 2.138zm-1.501-15.556l-.66 6.423-.107.217a1.178 1.178 0 0 0-.544.206l-2.244-6.39a8.212 8.212 0 0 1 3.535-.45l.02-.006zm.18 0h.17c.635.088 1.257.25 1.855.48l-2.647 5.468.622-5.948zm5.473 2.998l.563.793c.236.38.439.778.607 1.191l-6.313 2.45a1.139 1.139 0 0 0-.175-.346l3.157-5.985.116.072a8.097 8.097 0 0 1 2.025 1.85l.02-.025zm1.69 5.765l-6.8-.788v-.043a1.122 1.122 0 0 0 0-.298l6.3-2.46a7.758 7.758 0 0 1 .485 3.589h.015zm-9.227-1.009c-.028.21.004.423.092.615l-6.313 2.849c-1-2.116-1-4.562 0-6.678l6.22 3.094a1.131 1.131 0 0 0-.014.125l.015-.005zm-1.84-7.235l2.262 6.447a2.373 2.373 0 0 0-.34.48l-6.201-3.084a8.04 8.04 0 0 1 4.264-3.838l.014-.005zm13.393-11.16l2.574 1.134c.07.148.155.29.252.423a.95.95 0 0 1 0-.303l4.318 1.922-.301 1.6-7.557-3.454.627-1.187.087-.135zm23.209 29.906l4.37-5.222c.083.032.17.054.258.067l-1.35 6.654a8.161 8.161 0 0 1-3.293-1.49l.015-.01zm7.182 1.378l-1.398-6.83 5.036 4.693a8.143 8.143 0 0 1-3.652 2.147l.014-.01zm-1.049-7.59a1.112 1.112 0 0 0-.024-.293l6.464-2.503a7.757 7.757 0 0 1 .461 3.589l-6.9-.793zm-.461-7.931l-.695 6.725a1.188 1.188 0 0 0-.427 0l-.369-.48-2.05-5.813a8.207 8.207 0 0 1 3.54-.432zm-2.428 7.158l-5.585-2.777a7.875 7.875 0 0 1 1.457-2.037l4.128 4.814zm.374.437a178.21 178.21 0 0 0-6.314-2.359l.049-.13a8.79 8.79 0 0 1 .243-.567l5.958 2.964.064.092zm2.234-7.595h.17c1 .132 1.966.446 2.85.927l-3.23 6.02a1.177 1.177 0 0 0-.485-.203l.695-6.744zm3.176 1.032a8.105 8.105 0 0 1 2.297 1.965l.563.798c.236.38.439.778.607 1.191l-6.45 2.498a1.152 1.152 0 0 0-.261-.394l3.244-6.058zm-5.26 7.37l-6.177 2.796a7.778 7.778 0 0 1-.729-2.801c2.929.077 5.721.029 6.906.005zm-8.98-4.03l-.611-.193v-.144l.267-1.975 2.744-2.022.243.288a10.417 10.417 0 0 0-2.618 3.91l-.024.135zm0-4.68l.059-.038-.058.043v-.005zm-1.709-1.518a5.968 5.968 0 0 1-1.428 1.787l.457-3.118a4.22 4.22 0 0 0 .452-1.105l.102.082.058.048.092.077.063.053.078.062.063.053.068.058.058.053.054.048.121.105-.238 1.797zm-8.222-15.59l-1.257-.177c.592-.452 1.097-.797 1.097-.797l.394-.26-.234 1.235zm-.616 3.292l-3.118-1.533c.21-.064.424-.114.64-.149l.03-.062c1.02.13 1.981.23 2.72.302l-.272 1.442zm-1.37-5.65a7.82 7.82 0 0 1 .549-2.123l.03-.048v-.053l.023-.077v-.082c0-.067.034-.14.049-.22 0-.082.034-.174.048-.275v-.149c0-.105.03-.22.049-.336 0-.115.03-.24.044-.365 0-.128.013-.258.039-.39V147.944c.048-.692.082-1.369.111-1.921v-.188c1.428.788 2.05 2.22 2.312 3.531-.711.91-1.35 1.874-1.909 2.883 0 0-.442.576-1.35 1.465l.005-.005zm9.465 23.41c-.413-.11-.806-.211-1.18-.302l.228-1.543 1.316-.811-.34 2.512-.024.144zm1.773-13.043l-.33 2.402c-.29-.296-.595-.576-.913-.84h.063l.18-1.331c.018-.221.063-.439.135-.649.287.092.578.173.88.255l-.015.163zm6.473 10.593a8.16 8.16 0 0 1 1.375-.687l1.85 5.285-3.35-4.502.125-.096zm10.364 12.068l-5.041-4.698c.095-.13.161-.277.194-.433l6.901.798v.038a7.81 7.81 0 0 1-2.059 4.295h.005zm-7.484 2.436l1.355-6.668c.28.033.563-.036.797-.193l1.379 6.726a8.245 8.245 0 0 1-3.113.178l-.418-.043zm-5.789-4.324l6.202-2.806c.091.12.205.221.335.298l-4.37 5.193a8.043 8.043 0 0 1-2.171-2.695l.004.01zm-22.591-23.905l.228-.437 13.063 6.413.175 4.213c.021.595.096 1.187.224 1.768a6.386 6.386 0 0 1-.301 3.06 2.36 2.36 0 0 0-1.02-.389h-.146a2.386 2.386 0 0 0-.65 0l-11.573-14.628zm-2.705 20.705l-5.041-4.698.063-.096c.08-.1.142-.212.184-.331l6.867.802a7.81 7.81 0 0 1-2.073 4.323zm-7.484 2.402l1.355-6.668c.28.033.563-.035.796-.192l1.38 6.726a8.245 8.245 0 0 1-3.114.178l-.417-.044zm-5.794-4.323l6.313-2.854c.075.113.168.212.277.293l-4.404 5.241a8.045 8.045 0 0 1-2.186-2.68z"/>
        <path fill="#535461" fill-rule="nonzero" d="M170.86 182.861l5.066-6.123-.268.108L168 180.38l.056-7.86 7.93 4.002v-.088l-.468-.467-2.631-7.655 3.953-.173v-.126h.169v.103l2.659-.117.595.855.08-.15 2.781 4.274 1.876 2.704-.544 1.835-7.729-.873v-.168l7.57.878.469-1.616-1.375-1.976-7.067 2.802.366.346h.033l5.655 5.362-4.244 2.279-1.505-7.52-.511-.256-1.656 8.224-3.601-2.139zm.259-.042l3.207 1.929 1.543-7.674-4.75 5.745zm5.721-5.604l1.407 7.066 3.892-2.036-5.299-5.03zm-8.62-4.437l-.051 7.313 7.419-3.423.192-.075-7.56-3.815zm11.959-3.737l-.59-.854-2.59.112-.82 8.042.033.033.258-.313 3.709-7.02zm2.814 4.045l-2.697-3.886-3.676 6.978-.136.163 6.846-2.704-.337-.551zm-9.848-4.619l2.541 7.398.347.327.807-7.888-3.695.163zM207.866 186.906l5.066-6.141-.267.107L205 184.42l.056-7.884 7.933 4.014v-.089l-.47-.468-2.631-7.678 3.954-.173v-.127h.17v.103l2.66-.117.595.857.08-.15 2.777 4.282 1.876 2.712-.544 1.841-7.717-.894v-.17l7.571.882.47-1.621-1.375-1.982-7.07 2.81.367.348h.033l5.657 5.377-4.311 2.258-1.506-7.542-.511-.257-1.656 8.249-3.542-2.094zm.258-.042l3.209 1.935 1.543-7.697-4.752 5.762zm5.723-5.622l1.407 7.088 3.894-2.042-5.3-5.046zm-8.622-4.45l-.051 7.336 7.42-3.434.193-.075-7.562-3.827zm11.962-3.747l-.591-.858-2.59.113-.82 8.066.033.033.258-.314 3.71-7.04zm2.815 4.056l-2.698-3.897-3.673 6.97-.136.164 6.85-2.712-.343-.525zm-9.851-4.633l2.542 7.42.347.329.807-7.913-3.696.164z"/>
        <path fill="#6C63FF" fill-rule="nonzero" d="M207.997 172.598l-4.794 3.607-1.203-1.598 4.795-3.607z"/>
        <path fill="#000" fill-rule="nonzero" d="M207.997 172.598l-4.794 3.607-1.203-1.598 4.795-3.607z" opacity=".1"/>
        <path fill="#DB8B8B" fill-rule="nonzero" d="M205 169.34a22.729 22.729 0 0 1-2.802-2.431 11.965 11.965 0 0 0-1.473-1.493l-2.566-2.139L192.43 162l-.397.985s-.638 1.426 3.646 3.354c4.285 1.929 6.248 4.289 6.248 4.289s2.724 1.42 3.072-1.288z"/>
        <path fill="#000" fill-rule="nonzero" d="M202 169.362c.13.157.193.243.193.243s2.492 1.497 2.807-1.336l-.306-.269c-.5.736-1.284 1.107-2.069.98l-.274-.043-.351.425z" opacity=".1"/>
        <path fill="#000" fill-rule="nonzero" d="M192.056 163.491c.177.586.913 1.61 3.632 2.833a19.419 19.419 0 0 1 6.038 4.067c.142.15.211.232.211.232s2.72 1.429 3.063-1.276l-.334-.257a19.216 19.216 0 0 1-2.454-2.185 11.95 11.95 0 0 0-1.473-1.496l-2.586-2.154-1.021-.227-4.708-1.028-.397.987a.816.816 0 0 0 .029.504z" opacity=".05"/>
        <path fill="#ABB1D1" fill-rule="nonzero" d="M204.904 168l2.096 1.95-7.493 5.05s-.91-.786-.292-1.455c0 0 1.914-1.328 2.301-3.533l.613-.664.297.04c1.02.148 2.016-.409 2.483-1.388h-.005z"/>
        <path fill="#000" fill-rule="nonzero" d="M192.057 164c1.77-.687 5.846-.144 5.846-.144l.097-.481-5.496-1.375-.465 1.32c-.057.222-.051.462.018.68z" opacity=".1"/>
        <path fill="#ABB1D1" fill-rule="nonzero" d="M197.573 162.743s-4.332-.459-5.573.257l2.027-10 5.973.73-2.427 9.013z"/>
        <path fill="#000" fill-rule="nonzero" d="M197.573 162.743s-4.332-.459-5.573.257l2.027-10 5.973.73-2.427 9.013z" opacity=".05"/>
        <path fill="#535461" fill-rule="nonzero" d="M165.094 175.103a10.498 10.498 0 1 0 20.049 5.548 10.502 10.502 0 0 0-5.518-13.81 10.507 10.507 0 0 0-14.531 8.257v.005zm2.59.312a7.935 7.935 0 0 1 10.854-6.287 7.931 7.931 0 0 1-5.166 14.969 7.93 7.93 0 0 1-5.694-8.687l.005.005zM193.884 155.696s-9.534-1.316-9.875-.33c-.341.987 9.48 1.634 9.48 1.634.482-.31.644-.847.395-1.304z"/>
        <path fill="#000" fill-rule="nonzero" d="M193.884 155.696s-9.534-1.316-9.875-.33c-.341.987 9.48 1.634 9.48 1.634.482-.31.644-.847.395-1.304z" opacity=".05"/>
        <circle cx="198.09" cy="186.09" r="1" stroke="#C1272D"/>
        <path fill="#6C63FF" fill-rule="nonzero" d="M201 178.858L203.133 163l1.982.267-2.133 15.857z"/>
        <path fill="#000" fill-rule="nonzero" d="M203.165 162l-.165 1.515c.599.198 1.221.365 1.815.485l.185-1.695-1.835-.305z" opacity=".1"/>
        <path fill="#535461" fill-rule="nonzero" d="M202.795 161.02c.258.01.516.01.774 0 1.009-.038 3.54-.077 4.117.432.725.65.25 1.607-2.013 1.545-2.263-.061-6.02-.785-6.673-1.421 1.163-.422 2.478-.615 3.795-.555z"/>
        <path fill="#6C63FF" fill-rule="nonzero" d="M203 166.934L183.867 159l-.867 1.289L202.541 169zM196 176.897L183.93 161l-.93 1.048L194.414 178z"/>
        <path fill="#000" fill-rule="nonzero" d="M179 168.569c.357.118.7.263 1.027.431l.973-1.542a9.499 9.499 0 0 0-1.092-.458l-.908 1.569z" opacity=".1"/>
        <path fill="#6C63FF" fill-rule="nonzero" d="M176 176.314l.845.686 8.764-18.072.391-.81-1.389-1.118-.53 1.194z"/>
        <path fill="#000" fill-rule="nonzero" d="M184 158.239l1.593.761.407-.84-1.447-1.16z" opacity=".1"/>
        <path fill="#535461" fill-rule="nonzero" d="M192.958 159.856L184.271 155s-1.619 0-1.203 1.534l8.793 4.421s1.395.384 1.097-1.099zM203.094 179.098a10.5 10.5 0 0 0 10.22 11.9 10.5 10.5 0 1 0-10.22-11.9zm2.502 1.729a7.853 7.853 0 1 1 0 0z"/>
        <path fill="#000" fill-rule="nonzero" d="M203.092 179.82c-.07.678-.1 1.362-.09 2.046.828.06 1.685.11 2.527.134-.05-1.345.11-2.69.471-3.952-.786-.36-1.59-.72-2.353-1.048a16.32 16.32 0 0 0-.555 2.82zM201.247 176l-.247 1.767 1.791.233.209-1.497a794.62 794.62 0 0 0-1.753-.503z" opacity=".1"/>
        <path fill="#6C63FF" fill-rule="nonzero" d="M211.801 181.265s-13.934-6.512-15.298-5.051c-1.365 1.46-2.843 3.466.691 4.809 3.535 1.342 14.806.911 14.806.911l-.199-.669z"/>
        <path fill="#000" fill-rule="nonzero" d="M206 174.083l1.124 1.917c.267-.372.56-.703.876-.989L206.972 173c-.345.32-.67.683-.972 1.083z" opacity=".1"/>
        <path fill="#6C63FF" fill-rule="nonzero" d="M213 181.017L203.698 168l-.698 2.626L212.307 182z"/>
        <circle cx="213.124" cy="181.124" r="1" fill="#000" fill-rule="nonzero" opacity=".1" transform="rotate(-82.34 213.124 181.124)"/>
        <circle cx="214.124" cy="181.124" r="1" fill="#535461" fill-rule="nonzero" transform="rotate(-82.34 214.124 181.124)"/>
        <circle cx="176.124" cy="176.124" r="1" fill="#000" fill-rule="nonzero" opacity=".1" transform="rotate(-82.34 176.124 176.124)"/>
        <circle cx="176.124" cy="176.124" r="1" fill="#535461" fill-rule="nonzero" transform="rotate(-82.34 176.124 176.124)"/>
        <circle cx="194.804" cy="177.804" r="2.5" fill="#000" fill-rule="nonzero" opacity=".1" transform="rotate(-82.519 194.804 177.804)"/>
        <circle cx="195.811" cy="178.811" r="2.5" fill="#535461" fill-rule="nonzero" transform="rotate(-82.34 195.81 178.81)"/>
        <rect width="1" height="5" x="193.608" y="177.635" fill="#6C63FF" fill-rule="nonzero" rx=".5" transform="rotate(-135.55 194.108 180.135)"/>
        <path fill="#DB8B8B" fill-rule="nonzero" d="M190.413 145.417l-.12 2.912a8.51 8.51 0 0 1-.138 1.076 5.506 5.506 0 0 0 .06 1.794c.193 1.155.234 2.346.118 3.52L190 158l1.694-.084s.397-4.606.758-5.319c.361-.712.548-7.597.548-7.597l-2.587.417z"/>
        <path fill="#000" fill-rule="nonzero" d="M190.353 146.862l-.06 1.466c-.023.365-.07.726-.138 1.08a5.51 5.51 0 0 0 .059 1.794c.194 1.154.234 2.345.119 3.518L190 158l1.692-.084s.397-4.604.757-5.316c.258-.528.424-4.103.503-6.166.032-.849.048-1.434.048-1.434l-2.604.411-.043 1.45z" opacity=".05"/>
        <path fill="#DB8B8B" fill-rule="nonzero" d="M197.474 165.8l.186 4.418c.022.59.1 1.176.232 1.752.299 1.278-.248 2.942-.609 3.847-.16.397-.283.649-.283.649l2.253 1.534.824-.43.057-.354 1.206-7.796a5.267 5.267 0 0 0 .516-3.775 2.83 2.83 0 0 1-.119-.75c-.024-.766.002-1.532.077-2.294 0 0-1.154-2.56-3.16-1.205a3.054 3.054 0 0 0-1.252 1.935c-.15.82-.125 1.658.072 2.469z"/>
        <path fill="#000" fill-rule="nonzero" d="M197 162.81c1.35.683 3.877 1.06 4.912 1.19-.027-.59.003-1.18.088-1.767 0 0-1.31-1.972-3.585-.928-.756.368-1.263.907-1.415 1.506z" opacity=".1"/>
        <path fill="#ABB1D1" fill-rule="nonzero" d="M194.259 161.896c.9.637 1.734 1.362 2.49 2.164 1.285 1.364 4.89 1.94 4.89 1.94l.184-1.35c.13-1.633 1.907-3.226 4.666-7.99 1.763-3.042 1.638-4.913 1.32-5.87a2.181 2.181 0 0 0-.424-.79l-11.582.645-.593 1.152-1.21 2.48s3.137.606 3.64.949c.503.342-.184 2.724-.184 2.724.204 2.566-3.197 3.946-3.197 3.946z"/>
        <path fill="#000" fill-rule="nonzero" d="M190.067 145.405l-.067 1.402c1.34.677 2.536-.642 2.536-.642.14.067.278.144.41.23.036-.825.054-1.395.054-1.395l-2.933.405zM195.051 151.62c0 .385-.051.623-.051.623s1.897 1.79 5.876-.135c3.979-1.924 7.124-.895 7.124-.895s0-.192-.04-.501a1.905 1.905 0 0 0-.436-.712l-11.895.582-.578 1.038z" opacity=".1"/>
        <path fill="#FFF" fill-rule="nonzero" d="M189.228 141.58c0 1.804-.228 4.06-.228 4.06 1.733 1.844 3.513.044 3.513.044 1.765.765 2.411 2.541 2.625 4.047a10.1 10.1 0 0 1 .046 2.455c.39.372.873.623 1.394.721.883.202 2.193.14 3.95-.866 3.614-2.074 6.472-.962 6.472-.962s-.135-3.576-1.347-4.813c-1.213-1.236-2.054-2.685-3.22-6.934-1.167-4.25-4.744-3.773-4.744-3.773s-.065-.808-3.285-.481c-.786.1-1.538.386-2.198.837-1.861 1.238-2.984 3.373-2.978 5.664z"/>
        <path fill="#DB8B8B" fill-rule="nonzero" d="M193.004 136.824v.339c-.04 1.368.173 1.24 2.154 1.76 1.233.327 2.037-.458 2.46-1.099a3.9 3.9 0 0 0 .382-.727l-4.334-1.083s-.534-.186-.662.81z"/>
        <path fill="#000" fill-rule="nonzero" d="M195 149.04c.115.757.131 1.526.047 2.287.389.348.873.581 1.395.673a.758.758 0 0 0 .084-.153c.27-.708 1.716-1.848 1.716-1.848a3.734 3.734 0 0 0 1.298-1.902l1.944-3.763.516-.305s-1.735-1.719-3.595-.714c-1.86 1.005-1.717 3.67-1.717 3.67l-.465.852c-.472.335-.885.741-1.223 1.202z" opacity=".05"/>
        <path fill="#DB8B8B" fill-rule="nonzero" d="M202 144.133l-2.527 4.604a4.256 4.256 0 0 1-1.336 2.15s-1.488 1.288-1.766 2.09c-.277.8-2.991 2.662-2.991 2.662s-2.537 1.886-2.815 2.688c0 0-2.163.344-2.068 1.673 0 0-1.354-1.876.407-3.22 1.762-1.344 4.255-4.265 4.255-4.265s1.647-3.23 2.906-4.057l.478-.963s-.148-3.043 1.767-4.148c1.914-1.106 3.69.786 3.69.786z"/>
        <path fill="#000" fill-rule="nonzero" d="M197 176.585l1.438 1.415.526-.397.036-.326c-.53-.147-1.03-.452-1.464-.893-.131-.138-.256-.268-.355-.384-.109.34-.181.585-.181.585zM199.89 139.782L198 144.28s3.717 1.083 4.594.593a5.881 5.881 0 0 1 2.406-.467s-.974-4.61-1.783-5.23c-.809-.622-3.327.606-3.327.606z" opacity=".1"/>
        <path fill="#FFF" fill-rule="nonzero" d="M199.89 139.782L198 144.28s3.717 1.083 4.594.593a5.881 5.881 0 0 1 2.406-.467s-.974-4.61-1.783-5.23c-.809-.622-3.327.606-3.327.606z"/>
        <path fill="#000" fill-rule="nonzero" d="M193 136.743c.429.58 1.167 1.004 2.04 1.175.874.17 1.805.072 2.575-.272.156-.21.285-.43.385-.656l-4.364-.978s-.513-.167-.636.731z" opacity=".1"/>
        <path fill="#DB8B8B" fill-rule="nonzero" d="M193.017 133.678a3.008 3.008 0 0 0 2.592 3.295 3.01 3.01 0 0 0 3.373-2.493v-.15a3.002 3.002 0 0 0-1.212-2.75 3.01 3.01 0 0 0-4.767 2.098h.014z"/>
        <path fill="#000" fill-rule="nonzero" d="M192.028 133.255c-.037.228-.037.46 0 .688.223.067.464.075.693.024.332-.07.636-.22.958-.313.936-.266 1.927-.082 2.858.144.448.162.955.162 1.403 0l.042-.023c.18-1.374-1.008-2.61-2.652-2.76-1.644-.15-3.122.842-3.302 2.217v.023z" opacity=".1"/>
        <path fill="#472727" fill-rule="nonzero" d="M199.914 133.425c-.24.53-1.05.434-1.516.781-.244.183-.383.48-.644.635a1.587 1.587 0 0 1-1.242-.032c-.827-.246-1.742-.457-2.535-.173-.287.096-.553.251-.87.32a.874.874 0 0 1-.872-.192c-.166-.183-.196-.457-.34-.645a4.131 4.131 0 0 0-.414-.393 1.878 1.878 0 0 1-.435-1.147 4.104 4.104 0 0 1 .396-2.468c.436-.778 1.273-1.208 2.126-1.092.257.05.5.16.758.224.666.169 1.363.027 2.047.077.2.003.397.06.57.165.127.1.231.227.305.375.256.47.405.995.436 1.535.03.407 0 .768.435.914.436.147 2.3-.018 1.795 1.116z"/>
        <path fill="#000" fill-rule="nonzero" d="M205 146s-2.314.28-3.208 1.625C200.897 148.969 199 149 199 149" opacity=".05"/>
        <path fill="#6C63FF" fill-rule="nonzero" d="M197.946 182.782l-5.946-.8.266-1.982 5.947.8z"/>
        <path fill="#000" fill-rule="nonzero" d="M197.946 182.782l-5.946-.8.266-1.982 5.947.8z" opacity=".1"/>
        <path fill="#ABB1D1" fill-rule="nonzero" d="M197.203 176.931a3.611 3.611 0 0 1-.808-.931 7.168 7.168 0 0 1-2.381 1.643 4.46 4.46 0 0 0-1.046.45 2.58 2.58 0 0 1-1.583.446s-1.322 1.09.934 1.696c2.255.605 7.681.765 7.681.765l-.056-2.746c-.995-.097-1.946-.557-2.741-1.323z"/>
        <path fill="url(#i)" fill-rule="nonzero" d="M52.015 134.14c0-.246.024-.48.073-.7.049-.22.09-.477.126-.772.091-.505.195-.991.311-1.458.059-.233.119-.463.18-.69a18.73 18.73 0 0 1 3.65-7.097l.292-.34a15.736 15.736 0 0 1 1.142-1.166c.185-.17.365-.325.54-.486.345-.291.67-.53.972-.728.3-.2.408-.277.578-.38a3.218 3.218 0 0 1 1.36-.451l3-.301 4.053-.403 14.649-5.781.578.208a34.82 34.82 0 0 0 1.084-3.658 3.261 3.261 0 0 1-1.157-.86 2.682 2.682 0 0 1-.797-1.04c-.37-.864.335-2.71.194-3.769-.233-1.695-1.098-3.333-1.803-4.858-1.506-3.299-2.605-6.874-2.43-10.493.175-3.62 1.803-7.287 4.812-9.318 1.555-1.044 3.402-1.608 5.001-2.56 1.259-.743 2.367-1.715 3.567-2.55a20.217 20.217 0 0 1 20.185-1.458c3.042 1.526 5.638 3.8 8.51 5.626 2.873 1.826 6.255 3.23 9.614 2.691.048.137.082.279.102.423l.282-.034c.578 1.603-.841 3.187-2.149 4.28-2.478 2.079-5.292 4.148-8.53 4.221-1.248.03-2.57-.238-3.708.282a3.31 3.31 0 0 0-.69.437 16.561 16.561 0 0 1-5.069 16.313l7.475-2.735s.311.165.797.486l10.377-7.034s20.816-7.705 26.6 4.24c5.783 11.946-25.06 5.782-25.06 5.782l-6.6 3.687a6.206 6.206 0 0 1-.724 4.017l-17.983 11.3c3.636 1.137 9.609 2.959 10.693 2.959 1.54 0 5.783 1.54 8.48 7.704 2.698 6.165 12.336 36.222 20.817 41.23 8.481 5.009 30.843 38.534 30.843 38.534l-.102.262c.399.107.79.224 1.171.35 5.595 1.85 9.356 5.747 11.626 8.905a3.793 3.793 0 0 1-2.605 5.955c-8.826 1.132-13.648-2.997-15.966-6.12-.15-.205-.291-.404-.423-.593-.688.3-1.463.336-2.177.102l-10.829-8.856s8.447 8.448 3.495 16.143l.374.534a123.57 123.57 0 0 1 18.09 39.967s4.627 3.468 5.01 17.338c.385 13.87 5.012 36.221 5.012 36.221s3.1 26.593 1.156 34.686c0 0-.223.32-.631.816.145.175.3.36.486.559 1.681 1.846 4.719 4.396 8.262 3.639 5.4-1.157 5.4 8.477-2.314 9.23-4.967.486-14.721 2.75-21.044 4.294a4.463 4.463 0 0 1-5.497-4.804c.379-3.454 1.064-7.632 2.313-10.605.078-.185.156-.365.238-.54a17.768 17.768 0 0 1-.68-.675s0-16.954-2.697-21.579c0 0-7.325-35.065-6.94-43.93.315-6.919-19.01-33.929-27.388-45.336l.068-.432c-2.148-2.915-3.51-4.702-3.51-4.702l-6.55 42.002s-3.087 9.23-6.941 14.258c0 0-16.578 31.985-18.503 42.002-1.458 7.598-4.472 12.087-5.832 13.816l.486.486c1.754 1.632 4.345 3.274 7.29 2.648 5.4-1.157 5.4 8.477-2.314 9.23-4.967.486-14.721 2.75-21.044 4.294a4.463 4.463 0 0 1-5.497-4.804c.437-4.013 1.297-8.997 2.96-11.946.139-.25.285-.483.437-.7a4.078 4.078 0 0 1-1.53-1.098s10.02-24.29 10.02-30.828c0 0 4.244-25.048 18.504-34.298 0 0-1.351-31.324-5.41-48.76-.1-.43-.202-.851-.306-1.262a113.002 113.002 0 0 1-11.246-2.38l-.384-11.563-1.944 9.23-21.609-13.447s.19-2.429.554-6.155a392.293 392.293 0 0 1 1.41-12.388c.068-.515.137-1.031.208-1.55.282-2.074.593-4.177.929-6.232.126-.77.256-1.534.389-2.288.175-1.006.36-1.992.549-2.954.094-.48.191-.952.291-1.418.1-.467.201-.923.302-1.37.1-.447.202-.886.306-1.317l.155-.636c.107-.418.214-.824.321-1.22.453-1.648.716-3.343.783-5.052a26.65 26.65 0 0 0 0-2.035 17.778 17.778 0 0 0-.195-2.026 23.203 23.203 0 0 0-1.259-4.94c-.24-.648-.508-1.28-.806-1.895-.7-1.458-1.458-3.037-2.217-4.698-.385-.832-.774-1.683-1.166-2.55-.392-.868-.787-1.75-1.186-2.643-3.752-8.492-7.455-17.975-8.447-24.183a21.577 21.577 0 0 1-.219-1.851 12.552 12.552 0 0 1-.024-1.608z"/>
        <path fill="#F7BBC3" fill-rule="nonzero" d="M116 110.434l12.644-8.96s20.082-7.792 25.66 4.282c5.577 12.075-24.167 5.843-24.167 5.843L117.493 119 116 110.434z"/>
        <path fill="#535461" fill-rule="nonzero" d="M78.257 372.867c5.994-1.524 15.242-3.75 19.95-4.24 7.31-.762 7.31-10.276 2.194-9.133-2.774.618-5.225-.99-6.892-2.617a16.57 16.57 0 0 1-1.449-1.613 4.196 4.196 0 0 0-2.375-1.485c-2.74-.623-8.445-1.563-11.955.406a5.303 5.303 0 0 0-1.9 2.157c-1.577 2.914-2.375 7.837-2.807 11.8-.143 1.43.393 2.841 1.436 3.782a4.104 4.104 0 0 0 3.798.943zM173.25 376.87c5.996-1.525 15.247-3.752 19.955-4.242 7.312-.762 7.312-10.28 2.195-9.137-3.326.752-6.229-1.772-7.82-3.593-.195-.223-.37-.436-.523-.634a4.197 4.197 0 0 0-2.376-1.484c-2.741-.624-8.447-1.564-11.958.405-1.026.58-1.848 1.847-2.504 3.465-1.183 2.94-1.834 7.068-2.195 10.478-.146 1.43.386 2.844 1.427 3.789a4.105 4.105 0 0 0 3.8.952z"/>
        <path fill="#000" fill-rule="nonzero" d="M169 361.8c8.554 9.68 15.887-.18 17-1.806-.19-.23-.363-.45-.512-.654-.597-.785-1.417-1.325-2.328-1.535-2.687-.644-8.28-1.616-11.72.42-.992.562-1.797 1.877-2.44 3.574zM76 355.68c3.874 2.972 16.828 2.24 16.828 2.24.426-.513.817-1.061 1.172-1.639a17.892 17.892 0 0 1-1.477-1.781c-.62-.838-1.474-1.416-2.421-1.64-2.794-.688-8.61-1.726-12.19.449A5.743 5.743 0 0 0 76 355.68z" opacity=".1"/>
        <path fill="#F88787" fill-rule="nonzero" d="M76 353.355c2.615 3.356 17.545 2.614 17.545 2.614s4.479-4.476 6.347-14.18c1.868-9.704 17.92-40.668 17.92-40.668 3.73-4.85 6.72-13.807 6.72-13.807l6.346-40.648s30.607 40.285 30.253 48.868c-.354 8.584 6.72 42.535 6.72 42.535 2.616 4.476 2.616 20.892 2.616 20.892 9.704 10.072 17.919-1.867 17.919-1.867 1.868-7.837-1.121-33.578-1.121-33.578s-4.479-21.639-4.852-35.072c-.374-13.433-4.852-16.789-4.852-16.789a119.645 119.645 0 0 0-17.531-38.704c-2.295-3.225-3.751-4.951-3.751-4.951l-60.497 7.09c.97 1.94 1.84 4.719 2.601 8.007 3.93 16.88 5.236 47.214 5.236 47.214-13.815 8.953-17.92 33.205-17.92 33.205.005 6.343-9.699 29.839-9.699 29.839z"/>
        <path fill="#000" fill-rule="nonzero" d="M134 251.96l.782-4.96s30.818 40.205 30.442 48.77c-.377 8.564 6.765 42.44 6.765 42.44 2.633 4.466 2.633 20.845 2.633 20.845 2.047 2.105 4.03 3.247 5.862 3.735-2.96.77-6.56.208-10.395-3.735 0 0 0-16.38-2.633-20.845 0 0-7.142-33.871-6.765-42.44.317-6.702-18.5-32.793-26.691-43.81z"/>
        <path fill="#000" fill-rule="nonzero" d="M84.774 323.303s4.133-24.193 18.04-33.13c0 0-1.314-30.262-5.27-47.11-.772-3.28-1.637-6.048-2.619-7.989L155.81 228s.142.165.4.484l-56.775 6.59c.977 1.936 1.851 4.708 2.618 7.989 3.957 16.843 5.27 47.11 5.27 47.11-13.901 8.932-18.044 33.13-18.044 33.13 0 6.33-9.77 29.782-9.77 29.782 1.55 1.975 7.41 2.526 11.964 2.647-3.61.092-14.293.126-16.472-2.647.005-.01 9.774-23.453 9.774-29.782z"/>
        <path fill="#F7BBC3" fill-rule="nonzero" d="M167 223.53a14.104 14.104 0 0 0 1.733 3.18c2.199 3.11 6.767 7.228 15.134 6.1 1.251-.171 2.326-1.019 2.832-2.234a3.943 3.943 0 0 0-.363-3.702c-2.146-3.145-5.698-7.034-11.016-8.876a19.002 19.002 0 0 0-4.664-.998L167 223.53z"/>
        <path fill="#CBCDDA" fill-rule="nonzero" d="M87 118.909L116.986 108s8.621 4.466 5.22 10.788L93.045 137 87 118.909z"/>
        <path fill="#000" fill-rule="nonzero" d="M87 118.909L116.986 108s8.621 4.466 5.22 10.788L93.045 137 87 118.909z" opacity=".1"/>
        <path fill="#F7BBC3" fill-rule="nonzero" d="M86.467 100.724s.361 17.24-7.224 23.108C71.658 129.701 101.27 133 101.27 133s-4.694-17.606 0-26.774c4.693-9.168-14.804-5.502-14.804-5.502z"/>
        <path fill="#000" fill-rule="nonzero" d="M94 235.39c.967 2.02 1.833 4.917 2.592 8.344 35.98 5.741 61.021-9.902 61.021-9.902.136-.227.266-.45.387-.672-2.263-3.36-3.714-5.16-3.714-5.16L94 235.39zM167 223.054a12.625 12.625 0 0 0 1.875 2.946c3.658-.546 6.586-6.845 7.125-8.075a23.56 23.56 0 0 0-5.045-.925L167 223.054z" opacity=".1"/>
        <path fill="#CBCDDA" fill-rule="nonzero" d="M83.876 117l13.407 4.883 5.586 7.515s11.544 3.755 13.034 3.755c1.491 0 5.586 1.504 8.195 7.514 2.609 6.011 11.916 35.313 20.11 40.196 8.195 4.883 29.792 37.57 29.792 37.57s-3.722 10.141-8.194 8.642l-10.412-8.643s8.195 8.267 3.35 15.777c0 0-30.537 18.408-72.603 7.139l-.372-11.27-1.864 9.014-20.851-13.15s1.83-24.243 5.217-36.587a22.475 22.475 0 0 0-1.452-15.567c-5.406-11.367-13.75-30.352-12.734-37.276 1.2-8.16 5.77-11.719 7.512-12.774.399-.243.847-.394 1.311-.44l6.815-.663L83.876 117z"/>
        <path fill="#000" fill-rule="nonzero" d="M107 154s7.361 34.809 15.455 40.423c8.093 5.614 29.808 23.58 30.545 26.577" opacity=".05"/>
        <path fill="#CBCDDA" fill-rule="nonzero" d="M109 153s7.361 34.809 15.455 40.423c8.093 5.614 29.808 23.58 30.545 26.577"/>
        <path fill="#000" fill-rule="nonzero" d="M102 129s-25.587-8.946-33-6.611" opacity=".1"/>
        <path fill="#000" fill-rule="nonzero" d="M66.841 173.55c-5.415-11.316-13.774-30.213-12.756-37.106 1.202-8.122 5.78-11.665 7.525-12.715.4-.243.849-.392 1.314-.437l2.909-.292a3.06 3.06 0 0 0-.863.355c-1.746 1.07-6.303 4.593-7.525 12.715-1.018 6.887 7.34 25.79 12.756 37.106a22.244 22.244 0 0 1 1.455 15.476c-3.394 12.287-5.241 36.425-5.241 36.425l17.988 11.271-.456 2.192-20.887-13.09s1.842-24.117 5.236-36.405a22.244 22.244 0 0 0-1.455-15.495zM73.23 122.235l-3.23.325L84.046 117l1.26.457z"/>
        <path fill="#000" fill-rule="nonzero" d="M109 190s-11.273-7.287-14.908-5.571C90.457 186.145 77 184 77 184M88.3 106.032c.426-3.858-1.3-3.272-1.3-3.272s20.087-3.848 15.248 5.774c-1.209 2.412-1.813 5.374-2.04 8.466h-.19c-5.602.005-8.86-6.465-11.718-10.968z" opacity=".05"/>
        <circle cx="99" cy="99" r="16" fill="#F7BBC3" fill-rule="nonzero"/>
        <path fill="#000" fill-rule="nonzero" d="M82.353 103.645c-1.45-3.206-2.512-6.685-2.333-10.232.178-3.548 1.739-7.09 4.638-9.039 1.497-1.018 3.265-1.564 4.83-2.49 1.213-.726 2.286-1.666 3.44-2.485a19.344 19.344 0 0 1 19.46-1.427c2.933 1.461 5.436 3.698 8.214 5.472 2.778 1.773 6.029 3.142 9.27 2.616.556 1.56-.811 3.099-2.072 4.166-2.391 2.022-5.102 4.04-8.213 4.108-1.208.029-2.478-.234-3.575.277a5.148 5.148 0 0 0-1.826 1.71 33.568 33.568 0 0 0-3.793 6.486c-.415.94-.84 1.949-1.7 2.519-1.45.926-3.3.156-5 .088-2.648-.103-5.025 1.573-6.986 3.376-1.962 1.803-3.822 3.85-6.281 4.8-1.846.706-5.537.682-6.479-1.545-.352-.838.324-2.636.184-3.664-.266-1.647-1.102-3.24-1.778-4.736z" opacity=".1"/>
        <path fill="#A95F60" fill-rule="nonzero" d="M82.353 103.674c-1.45-3.206-2.512-6.685-2.333-10.232.178-3.547 1.739-7.1 4.638-9.068 1.497-1.018 3.265-1.564 4.83-2.49 1.213-.726 2.286-1.666 3.44-2.485a19.344 19.344 0 0 1 19.46-1.427c2.933 1.461 5.436 3.698 8.214 5.472 2.778 1.773 6.029 3.142 9.27 2.616.556 1.56-.811 3.099-2.072 4.166-2.391 2.022-5.102 4.04-8.213 4.108-1.208.029-2.478-.234-3.575.277a5.148 5.148 0 0 0-1.826 1.71 33.568 33.568 0 0 0-3.793 6.486c-.415.94-.84 1.949-1.7 2.519-1.45.926-3.3.156-5 .088-2.648-.103-5.025 1.573-6.986 3.376-1.962 1.803-3.822 3.85-6.281 4.8-1.846.706-5.537.682-6.479-1.545-.352-.838.324-2.636.184-3.664-.266-1.618-1.102-3.211-1.778-4.707z"/>
        <path fill="#A8A8A8" fill-rule="nonzero" d="M375 363.877s10.955-2.214 13.877-5.17c2.922-2.955 16.067-8.124 17.528-4.418 1.46 3.707 19.716 16.25 7.28 18.47-12.435 2.219-29.21 2.945-32.865 1.472-3.655-1.472-5.82-10.354-5.82-10.354z"/>
        <path fill="#000" fill-rule="nonzero" d="M413.715 371.45c-12.42 2.178-29.218 2.898-32.874 1.45-2.782-1.107-4.715-6.423-5.477-8.9l-.364.077s2.19 8.72 5.826 10.17c3.637 1.448 20.455.724 32.874-1.45 3.583-.627 4.608-2.105 4.224-3.978-.291 1.246-1.539 2.163-4.21 2.632z" opacity=".2"/>
    </g>
</svg>
